<svg width="190" height="211" viewBox="0 0 190 211" fill="none" xmlns="http://www.w3.org/2000/svg">
<path d="M166.242 71.1398C162.806 67.7041 158.829 65.0032 154.433 63.0121C142.91 57.7937 133.851 48.4516 128.759 36.873C119.335 15.4432 97.9277 0.475232 73.0199 0.456316C40.4057 0.431643 13.3266 26.4301 12.0991 59.0212C11.574 72.9705 15.7413 85.9235 23.1486 96.4293C32.556 109.772 35.0003 126.77 30.1479 142.358C23.2543 164.505 25.6578 185.494 38.7724 198.609C61.7545 221.591 108.92 211.687 144.12 176.488C179.32 141.288 189.224 94.1224 166.242 71.1398Z" fill="url(#paint0_linear)"/>
<path d="M7.53135 93.2743C7.005 93.2743 6.47905 93.0736 6.07729 92.6723L1.55393 88.1491C0.750823 87.346 0.750823 86.0441 1.55393 85.2414L6.07729 80.7182C6.8804 79.9155 8.18189 79.9155 8.985 80.7182L13.5084 85.2414C14.3115 86.0445 14.3115 87.3464 13.5084 88.1491L8.985 92.6723C8.58365 93.0736 8.05771 93.2743 7.53135 93.2743ZM5.91569 86.695L7.53135 88.3107L9.14702 86.695L7.53135 85.0794L5.91569 86.695Z" fill="#006BCD"/>
<path d="M155.793 53.2298C155.266 53.2298 154.741 53.0291 154.339 52.6278L149.815 48.1044C149.012 47.3013 149.012 45.9994 149.815 45.1967L154.339 40.6733C155.142 39.8706 156.443 39.8706 157.246 40.6733L161.77 45.1967C162.573 45.9998 162.573 47.3017 161.77 48.1044L157.246 52.6278C156.845 53.0287 156.319 53.2298 155.793 53.2298ZM154.177 46.6503L155.793 48.266L157.408 46.6503L155.793 45.0347L154.177 46.6503Z" fill="#006BCD"/>
<path d="M54.1574 35.0028C51.2069 35.0028 48.8066 32.6026 48.8066 29.6521C48.8066 26.7017 51.2069 24.3015 54.1574 24.3015C57.1079 24.3015 59.5081 26.7017 59.5081 29.6521C59.5081 32.6026 57.1079 35.0028 54.1574 35.0028ZM54.1574 28.4136C53.4744 28.4136 52.9188 28.9691 52.9188 29.6521C52.9188 30.3352 53.4744 30.8907 54.1574 30.8907C54.8404 30.8907 55.396 30.3352 55.396 29.6521C55.396 28.9691 54.8404 28.4136 54.1574 28.4136Z" fill="#006BCD"/>
<path opacity="0.1" d="M186.961 120.604C183.981 110.499 174.481 104.101 164.403 104.63C160.742 98.7185 155.263 94.0532 148.747 91.4116C146.215 64.1421 123.274 42.7925 95.3437 42.7925C67.1177 42.7925 43.9838 64.5948 41.864 92.2776C35.8384 93.0712 30.018 95.7791 25.3881 100.409C21.662 104.135 19.1849 108.634 17.9418 113.389C9.27369 115.385 2.80811 123.144 2.80811 132.418C2.80811 143.206 11.5531 151.951 22.341 151.951C26.8866 151.951 31.0658 150.394 34.3843 147.79C38.8847 152.162 45.0217 154.859 51.7916 154.859C56.5309 154.859 60.9585 153.535 64.733 151.243L91.7817 178.292C93.7486 180.258 96.9376 180.258 98.9044 178.292L124.541 152.656C128.217 154.076 132.21 154.859 136.388 154.859C144.219 154.859 151.408 152.12 157.061 147.555C161.603 149.428 166.789 149.825 171.868 148.327C183.692 144.839 190.449 132.427 186.961 120.604Z" fill="#0000CC"/>
<path d="M186.961 109.5C183.981 99.3955 174.481 92.9974 164.403 93.5258C160.742 87.6145 155.263 82.9493 148.747 80.3076C146.215 53.0381 123.274 31.6885 95.3437 31.6885C67.1177 31.6885 43.9838 53.4908 41.864 81.1736C35.8384 81.9673 30.018 84.6751 25.3881 89.305C21.662 93.0311 19.1849 97.5302 17.9418 102.285C9.27369 104.281 2.80811 112.04 2.80811 121.314C2.80811 132.102 11.5531 140.847 22.341 140.847C26.8866 140.847 31.0658 139.29 34.3843 136.686C38.8847 141.058 45.0217 143.755 51.7916 143.755C58.7794 143.755 65.0941 140.884 69.629 136.261C77.0087 141.004 85.7903 143.755 95.2146 143.755C103.402 143.755 111.105 141.679 117.825 138.023C123.11 141.638 129.501 143.755 136.388 143.755C144.219 143.755 151.408 141.017 157.061 136.451C161.603 138.324 166.789 138.721 171.868 137.223C183.692 133.735 190.449 121.323 186.961 109.5Z" fill="white"/>
<path d="M170.975 137.467C166.184 138.671 161.336 138.215 157.059 136.451C151.409 141.019 144.221 143.758 136.387 143.758C129.504 143.758 123.109 141.64 117.825 138.026C111.106 141.681 103.404 143.758 95.2162 143.758C85.7911 143.758 77.0075 141.003 69.6302 136.262C65.0945 140.884 58.7782 143.758 51.7916 143.758C45.023 143.758 38.8835 141.061 34.3847 136.689C31.0662 139.292 26.8882 140.847 22.3402 140.847C21.2751 140.847 20.2306 140.76 19.2108 140.596C18.0183 138.318 17.3439 135.723 17.3439 132.972C17.3439 125.155 22.7925 118.612 30.0999 116.93C31.1485 112.925 33.2333 109.13 36.375 105.992C40.2775 102.085 45.1833 99.8032 50.2619 99.1371C52.0507 75.8006 71.5506 57.4233 95.3437 57.4233C118.886 57.4233 138.226 75.4181 140.36 98.4051C145.854 100.634 150.472 104.565 153.556 109.549C162.051 109.101 170.058 114.496 172.57 123.012C174.055 128.05 173.335 133.21 170.975 137.467Z" fill="#006BCD"/>
<path d="M58.1099 133.517L91.7825 167.189C93.7493 169.156 96.9383 169.156 98.9052 167.189L132.578 133.517C135.751 130.344 133.503 124.919 129.017 124.919H122.071V84.124C122.071 81.3425 119.816 79.0874 117.034 79.0874H73.6535C70.872 79.0874 68.6169 81.3421 68.6169 84.124V124.919H61.671C57.1842 124.919 54.9369 130.344 58.1099 133.517Z" fill="white"/>
<path d="M188.935 108.917C185.853 98.4721 176.371 91.4403 165.601 91.4403C165.569 91.4403 165.537 91.4403 165.505 91.4403C161.855 85.9776 156.653 81.5793 150.664 78.8915C149.135 65.6076 142.878 53.3479 132.958 44.2563C122.669 34.8263 109.31 29.6326 95.3437 29.6326C81.2188 29.6326 67.7481 34.9286 57.413 44.5454C47.5318 53.7398 41.3738 66.0628 39.9625 79.3953C33.8724 80.5269 28.3583 83.4293 23.9324 87.8516C20.3758 91.4123 17.7473 95.7967 16.2833 100.594C7.0774 103.261 0.751221 111.614 0.751221 121.318C0.751221 133.222 10.4358 142.907 22.3402 142.907C26.6259 142.907 30.7031 141.676 34.2334 139.333C39.1298 143.525 45.3001 145.814 51.7912 145.814C56.1982 145.814 60.5181 144.74 64.3847 142.7L90.3281 168.643C91.6674 169.983 93.4488 170.721 95.3433 170.721C97.2378 170.721 99.0188 169.982 100.358 168.643L134.031 134.971C136.098 132.904 136.687 129.943 135.569 127.242C134.45 124.541 131.939 122.863 129.016 122.863H124.126V110.801C124.126 109.665 123.205 108.745 122.07 108.745C120.935 108.745 120.014 109.665 120.014 110.801V124.92C120.014 126.055 120.935 126.976 122.07 126.976H129.016C130.263 126.976 131.292 127.664 131.769 128.815C132.246 129.967 132.005 131.182 131.123 132.063L97.4508 165.736C96.8878 166.299 96.1398 166.609 95.3437 166.609C94.5476 166.609 93.7992 166.299 93.2362 165.736L59.5636 132.064C58.6816 131.182 58.4406 129.968 58.9176 128.816C59.3946 127.664 60.4243 126.976 61.6711 126.976H68.617C69.7524 126.976 70.6731 126.055 70.6731 124.92V84.1247C70.6731 82.4815 72.0099 81.1446 73.6536 81.1446H117.034C118.677 81.1446 120.014 82.4815 120.014 84.1247V96.8194C120.014 97.9548 120.935 98.8755 122.07 98.8755C123.206 98.8755 124.126 97.9548 124.126 96.8194V84.1247C124.126 80.214 120.945 77.0324 117.034 77.0324H73.6536C69.7429 77.0324 66.5609 80.214 66.5609 84.1247V122.864H61.6711C58.7482 122.864 56.2373 124.542 55.1184 127.242C53.9998 129.943 54.5887 132.905 56.6559 134.971L61.3142 139.63C58.3415 140.99 55.0961 141.703 51.7912 141.703C45.796 141.703 40.1229 139.399 35.817 135.215C35.0789 134.498 33.9246 134.437 33.1153 135.072C30.0102 137.508 26.2842 138.795 22.3398 138.795C12.7029 138.795 4.86299 130.955 4.86299 121.319C4.86299 113.127 10.4301 106.126 18.4007 104.291C19.1458 104.119 19.7347 103.548 19.9284 102.808C21.1209 98.2587 23.5113 94.0918 26.8397 90.7597C31.0119 86.5916 36.2998 83.9824 42.1329 83.2138C43.0968 83.0868 43.8403 82.3018 43.9143 81.3321C44.9029 68.4121 50.6912 56.4168 60.2138 47.5563C69.7853 38.6502 82.2612 33.7456 95.3433 33.7456C108.279 33.7456 120.65 38.5552 130.18 47.289C139.65 55.9682 145.516 67.7623 146.697 80.4977C146.767 81.2626 147.259 81.9243 147.971 82.2129C154.008 84.6617 159.222 89.0646 162.655 94.6103C163.049 95.2489 163.765 95.6166 164.511 95.5816C173.906 95.0869 182.325 101.05 184.99 110.082C188.15 120.8 182.002 132.091 171.285 135.252C166.806 136.573 162.156 136.331 157.841 134.554C157.146 134.268 156.351 134.384 155.766 134.856C151.996 137.902 147.512 140.038 142.799 141.035C141.688 141.27 140.978 142.361 141.213 143.472C141.448 144.583 142.537 145.292 143.65 145.058C148.607 144.01 153.339 141.851 157.408 138.79C162.23 140.498 167.525 140.648 172.448 139.197C185.341 135.393 192.737 121.81 188.935 108.917Z" fill="#006BCD"/>
<path d="M105.391 108.011C105.028 108.011 104.66 107.914 104.327 107.712C101.621 106.071 98.5153 105.204 95.3436 105.204C92.1723 105.204 89.0659 106.071 86.3605 107.712C85.3897 108.301 84.1252 107.992 83.5363 107.02C82.9474 106.049 83.2571 104.785 84.228 104.196C87.5765 102.165 91.4202 101.091 95.3436 101.091C99.267 101.091 103.111 102.165 106.459 104.196C107.43 104.785 107.74 106.049 107.151 107.02C106.764 107.658 106.086 108.011 105.391 108.011Z" fill="#006BCD"/>
<path d="M99.617 114.686C99.2539 114.686 98.8858 114.589 98.5523 114.387C97.5864 113.801 96.4769 113.492 95.3436 113.492C94.2102 113.492 93.1008 113.801 92.1348 114.387C91.1635 114.976 89.8994 114.667 89.3102 113.696C88.7213 112.726 89.0305 111.462 90.0014 110.873C91.6105 109.897 93.4577 109.381 95.3432 109.381C97.2286 109.381 99.0758 109.897 100.685 110.873C101.656 111.462 101.965 112.726 101.376 113.696C100.99 114.333 100.312 114.686 99.617 114.686Z" fill="#006BCD"/>
<path d="M110.733 100.985C110.37 100.985 110.001 100.889 109.668 100.687C105.354 98.0697 100.401 96.6863 95.3436 96.6863C90.2869 96.6863 85.3329 98.0697 81.0188 100.687C80.0479 101.276 78.7834 100.966 78.1946 99.995C77.6057 99.0241 77.9154 97.7596 78.8862 97.1707C83.8439 94.1636 89.5347 92.5742 95.344 92.5742C101.153 92.5742 106.844 94.1636 111.801 97.1707C112.772 97.7596 113.082 99.0241 112.493 99.995C112.106 100.633 111.428 100.985 110.733 100.985Z" fill="#006BCD"/>
<defs>
<linearGradient id="paint0_linear" x1="201.759" y1="-17.3157" x2="-60.2671" y2="244.711" gradientUnits="userSpaceOnUse">
<stop stop-color="#006BCD"/>
<stop offset="1" stop-color="#B7C5FF"/>
</linearGradient>
</defs>
</svg>
