<svg width="131" height="149" viewBox="0 0 131 149" fill="none" xmlns="http://www.w3.org/2000/svg">
<path d="M81.2367 26.0031C75.0002 10.6756 59.9137 -0.107737 42.3203 0.000812141C19.876 0.139045 1.42213 18.2428 0.877642 40.6807C0.609035 51.751 4.65444 61.8728 11.4514 69.4863C16.8698 75.5557 19.5891 83.5497 19.3149 91.6815C19.2786 92.7623 19.273 93.851 19.2998 94.9467C20.0169 124.456 45.2255 149.018 74.7432 149C105.339 148.982 130.135 124.173 130.135 93.574C130.135 71.1442 116.811 51.8284 97.647 43.1052C90.1775 39.7052 84.3296 33.6044 81.2367 26.0031Z" fill="url(#paint0_linear)"/>
<path opacity="0.1" d="M123.703 25.7015V99.6923C123.703 102.102 121.747 104.057 119.338 104.057H11.6621C9.2525 104.057 7.29688 102.102 7.29688 99.6923V25.7015C7.29688 23.2919 9.2525 21.3363 11.6621 21.3363H119.338C121.747 21.3363 123.703 23.2919 123.703 25.7015Z" fill="#006BCD"/>
<path d="M83.932 19.4387C83.5462 19.4387 83.176 19.2853 82.9033 19.0126L79.6969 15.8062C79.1285 15.2378 79.1285 14.3165 79.6969 13.7484L82.9033 10.542C83.1763 10.269 83.5462 10.116 83.932 10.116C84.3179 10.116 84.6881 10.2693 84.9608 10.542L88.1675 13.7484C88.4405 14.0214 88.5938 14.3913 88.5938 14.7775C88.5938 15.1636 88.4407 15.5335 88.1675 15.8065L84.9608 19.0129C84.6881 19.2853 84.3179 19.4387 83.932 19.4387ZM82.7837 14.7772L83.932 15.9258L85.0807 14.7772L83.932 13.6285L82.7837 14.7772Z" fill="#006BCD"/>
<path d="M102.183 127.022C101.797 127.022 101.426 126.869 101.154 126.596L97.9474 123.39C97.379 122.822 97.379 121.9 97.9474 121.332L101.154 118.126C101.722 117.558 102.643 117.558 103.211 118.126L106.418 121.332C106.691 121.605 106.844 121.975 106.844 122.361C106.844 122.747 106.691 123.117 106.418 123.39L103.211 126.597C102.938 126.869 102.568 127.022 102.183 127.022ZM101.034 122.361L102.183 123.51L103.331 122.361L102.183 121.212L101.034 122.361Z" fill="#006BCD"/>
<path d="M22.0467 138.884C21.2429 138.884 20.5916 138.233 20.5916 137.429C20.5916 136.464 19.8059 135.678 18.84 135.678C18.0362 135.678 17.3849 135.026 17.3849 134.223C17.3849 133.419 18.0362 132.768 18.84 132.768C19.8056 132.768 20.5916 131.982 20.5916 131.016C20.5916 130.213 21.2429 129.561 22.0467 129.561C22.8505 129.561 23.5018 130.213 23.5018 131.016C23.5018 131.982 24.2873 132.768 25.2531 132.768C26.0569 132.768 26.7082 133.419 26.7082 134.223C26.7082 135.026 26.0569 135.678 25.2531 135.678C24.2875 135.678 23.5018 136.464 23.5018 137.429C23.5018 138.233 22.8502 138.884 22.0467 138.884Z" fill="#006BCD"/>
<path d="M34.657 125.382C33.8532 125.382 33.2019 124.73 33.2019 123.927C33.2019 122.961 32.4164 122.175 31.4506 122.175C30.6468 122.175 29.9955 121.524 29.9955 120.72C29.9955 119.917 30.6468 119.265 31.4506 119.265C32.4162 119.265 33.2019 118.479 33.2019 117.514C33.2019 116.71 33.8532 116.059 34.657 116.059C35.4608 116.059 36.1121 116.71 36.1121 117.514C36.1121 118.479 36.8978 119.265 37.8637 119.265C38.6675 119.265 39.3188 119.917 39.3188 120.72C39.3188 121.524 38.6675 122.175 37.8637 122.175C36.8981 122.175 36.1121 122.961 36.1121 123.927C36.1121 124.73 35.4605 125.382 34.657 125.382Z" fill="#006BCD"/>
<path d="M82.0035 131.328H48.9962L53.298 114.273L55.597 105.164H75.4027L77.7017 114.273L82.0035 131.328Z" fill="white"/>
<path d="M82.0046 132.781H48.9953C48.5466 132.781 48.1231 132.574 47.8475 132.22C47.572 131.866 47.4748 131.405 47.5848 130.97L52.78 110.382C52.9767 109.603 53.7677 109.132 54.5467 109.328C55.3258 109.524 55.7981 110.315 55.6014 111.094L50.8633 129.871H80.1372L75.357 110.927C75.1602 110.148 75.6325 109.356 76.4116 109.16C77.1918 108.964 77.9819 109.435 78.1784 110.215L83.4155 130.97C83.5255 131.405 83.4283 131.866 83.1527 132.22C82.8771 132.574 82.4534 132.781 82.0046 132.781Z" fill="#006BCD"/>
<path d="M123.703 31.8129V105.804C123.703 108.213 121.747 110.169 119.338 110.169H11.6621C9.2525 110.169 7.29688 108.213 7.29688 105.804V31.8129C7.29688 29.4033 9.2525 27.4476 11.6621 27.4476H119.338C121.747 27.4476 123.703 29.4033 123.703 31.8129Z" fill="white"/>
<path d="M119.338 27.4476H94.3105V110.169H119.338C121.747 110.169 123.703 108.213 123.703 105.804V31.8129C123.703 29.4033 121.747 27.4476 119.338 27.4476Z" fill="white"/>
<path d="M118.319 55.1379L116.227 47.7898C116.049 47.1641 115.476 46.7305 114.827 46.7305H107.726C107.077 46.7305 106.504 47.1641 106.327 47.7898L104.234 55.1379C101.301 55.8567 98.539 57.0121 96.0246 58.537L89.3487 54.8207C88.7813 54.5035 88.0712 54.6024 87.6114 55.0622L82.5914 60.0852C82.1316 60.545 82.0326 61.2522 82.3469 61.8225L86.0661 68.4984C84.5412 71.0128 83.3829 73.7746 82.6641 76.7051L75.316 78.8004C74.6903 78.9779 74.2596 79.5483 74.2596 80.2002V87.301C74.2596 87.9499 74.6903 88.5203 75.316 88.7007L82.6641 90.7932C83.1568 92.8041 83.8587 94.7332 84.7423 96.5582H105.945C100.93 94.4684 97.404 89.5232 97.404 83.7506C97.404 76.0881 103.614 69.8779 111.277 69.8779C116.722 69.8779 121.43 73.0121 123.703 77.5752V57.0295C121.992 56.2321 120.191 55.5977 118.319 55.1379Z" fill="white"/>
<path d="M113.219 98.0132H83.8299L83.4324 97.1922C82.6184 95.5108 81.9581 93.7559 81.4654 91.9647L74.9176 90.1002C73.6714 89.7408 72.8045 88.5901 72.8045 87.3009V80.2001C72.8045 78.9048 73.6741 77.7536 74.9187 77.4006L81.4654 75.5337C82.1429 73.0694 83.1236 70.7031 84.3898 68.4792L81.0757 62.5308C80.4495 61.3944 80.6509 59.9681 81.562 59.0564L86.5821 54.0338C87.4985 53.1171 88.9279 52.9186 90.0585 53.5507L96.0051 56.861C98.2262 55.5971 100.593 54.6169 103.063 53.9392L104.927 47.3916C105.28 46.1461 106.432 45.2756 107.726 45.2756H114.827C116.122 45.2756 117.273 46.1464 117.626 47.3928L119.491 53.9395C121.153 54.3966 122.773 54.9909 124.317 55.7106L125.158 56.1023V83.7604L122.4 78.2238C120.283 73.9733 116.021 71.3329 111.276 71.3329C104.429 71.3329 98.8588 76.9035 98.8588 83.7505C98.8588 88.7793 101.86 93.2795 106.504 95.2151L113.219 98.0132ZM85.6706 95.103H100.97C97.824 92.2525 95.949 88.1667 95.949 83.7505C95.949 75.2988 102.825 68.4227 111.277 68.4227C115.5 68.4227 119.414 70.1176 122.248 73.0307V57.9738C120.873 57.3886 119.439 56.9113 117.972 56.5507L117.152 56.3491L114.828 48.1878L107.727 48.1852L105.402 56.3497L104.581 56.551C101.824 57.2265 99.1996 58.3131 96.7795 59.781L96.0564 60.2196L88.6416 56.0918L83.621 61.1136L87.7496 68.5292L87.3108 69.2527C85.84 71.6777 84.7522 74.3015 84.0776 77.0513L83.8762 77.872L75.7152 80.1993L75.715 87.3006L83.8762 89.625L84.0776 90.4465C84.4664 92.0352 85.0013 93.5973 85.6706 95.103Z" fill="#006BCD"/>
<path d="M123.703 41.467V31.8137C123.703 29.4029 121.749 27.4485 119.338 27.4485H11.6621C9.25134 27.4485 7.29688 29.4029 7.29688 31.8137V41.467H123.703Z" fill="white"/>
<path d="M123.703 42.9221H7.29688C6.49309 42.9221 5.8418 42.2705 5.8418 41.467C5.8418 40.6635 6.49309 40.012 7.29688 40.012H123.703C124.507 40.012 125.158 40.6635 125.158 41.467C125.158 42.2705 124.507 42.9221 123.703 42.9221Z" fill="#006BCD"/>
<path d="M7.29657 95.5049V105.804C7.29657 108.215 9.25103 110.169 11.6618 110.169H119.338C121.748 110.169 123.703 108.215 123.703 105.804V95.5049H7.29657Z" fill="white"/>
<path d="M123.542 96.96H16.5972C15.7934 96.96 15.1421 96.3084 15.1421 95.5049C15.1421 94.7014 15.7934 94.0498 16.5972 94.0498H123.542C124.346 94.0498 124.997 94.7014 124.997 95.5049C124.997 96.3084 124.346 96.96 123.542 96.96Z" fill="#006BCD"/>
<path d="M87.598 132.781H43.402C42.5982 132.781 41.9469 132.129 41.9469 131.326C41.9469 130.522 42.5982 129.871 43.402 129.871H87.5977C88.4015 129.871 89.0527 130.522 89.0527 131.326C89.0527 132.129 88.4015 132.781 87.598 132.781Z" fill="#006BCD"/>
<path d="M18.3793 35.9342C17.5755 35.9342 16.9243 35.2826 16.9243 34.4791V34.4366C16.9243 33.6332 17.5755 32.9816 18.3793 32.9816C19.1831 32.9816 19.8344 33.6332 19.8344 34.4366V34.4791C19.8344 35.2826 19.1831 35.9342 18.3793 35.9342Z" fill="#006BCD"/>
<path d="M24.0032 35.9342C23.1994 35.9342 22.5482 35.2826 22.5482 34.4791V34.4366C22.5482 33.6332 23.1994 32.9816 24.0032 32.9816C24.807 32.9816 25.4583 33.6332 25.4583 34.4366V34.4791C25.4583 35.2826 24.807 35.9342 24.0032 35.9342Z" fill="#006BCD"/>
<path d="M29.6268 35.9342C28.823 35.9342 28.1718 35.2826 28.1718 34.4791V34.4366C28.1718 33.6332 28.823 32.9816 29.6268 32.9816C30.4306 32.9816 31.0819 33.6332 31.0819 34.4366V34.4791C31.0819 35.2826 30.4306 35.9342 29.6268 35.9342Z" fill="#006BCD"/>
<path d="M119.338 111.624H11.6621C8.45279 111.624 5.8418 109.013 5.8418 105.804V31.8137C5.8418 28.6044 8.45279 25.9934 11.6621 25.9934H119.338C122.547 25.9934 125.158 28.6044 125.158 31.8137V41.467C125.158 42.2705 124.507 42.9221 123.703 42.9221C122.899 42.9221 122.248 42.2705 122.248 41.467V31.8137C122.248 30.2091 120.943 28.9036 119.338 28.9036H11.6621C10.0574 28.9036 8.75195 30.2091 8.75195 31.8137V105.804C8.75195 107.409 10.0574 108.714 11.6621 108.714H119.338C120.943 108.714 122.248 107.409 122.248 105.804V49.4819C122.248 48.6784 122.899 48.0268 123.703 48.0268C124.507 48.0268 125.158 48.6784 125.158 49.4819V105.804C125.158 109.013 122.547 111.624 119.338 111.624Z" fill="#006BCD"/>
<path d="M66.5794 79.8169H18.0549C17.2499 79.8169 16.5975 79.1645 16.5975 78.3595C16.5975 77.5546 17.2499 76.9021 18.0549 76.9021H66.5794C67.3844 76.9021 68.0368 77.5546 68.0368 78.3595C68.0368 79.1645 67.3844 79.8169 66.5794 79.8169Z" fill="#006BCD"/>
<path d="M49.1185 67.5967H18.0549C17.2499 67.5967 16.5975 66.9442 16.5975 66.1393C16.5975 65.3343 17.2499 64.6819 18.0549 64.6819H49.1185C49.9234 64.6819 50.5759 65.3343 50.5759 66.1393C50.5759 66.9442 49.9234 67.5967 49.1185 67.5967Z" fill="#006BCD"/>
<path d="M66.5794 85.5984H18.0549C17.2499 85.5984 16.5975 84.9459 16.5975 84.141C16.5975 83.336 17.2499 82.6836 18.0549 82.6836H66.5794C67.3844 82.6836 68.0368 83.336 68.0368 84.141C68.0368 84.9457 67.3844 85.5984 66.5794 85.5984Z" fill="#006BCD"/>
<path d="M21.8817 58.9195C21.5095 58.9195 21.1367 58.7775 20.853 58.4935L17.3506 54.9911C16.7822 54.4227 16.7822 53.5014 17.3506 52.9333L20.853 49.4309C21.4207 48.8629 22.3427 48.8629 22.9104 49.4309C23.4788 49.9993 23.4788 50.9206 22.9104 51.4887L20.4371 53.9623L22.9104 56.436C23.4788 57.0043 23.4788 57.9257 22.9104 58.4937C22.6267 58.7775 22.2539 58.9195 21.8817 58.9195Z" fill="#006BCD"/>
<path d="M35.4902 58.9195C35.118 58.9195 34.7452 58.7775 34.4614 58.4935C33.8931 57.9251 33.8931 57.0038 34.4614 56.4357L36.9348 53.9621L34.4614 51.4885C33.8931 50.9201 33.8931 49.9987 34.4614 49.4307C35.0292 48.8626 35.9511 48.8626 36.5189 49.4307L40.0213 52.9331C40.5896 53.5014 40.5896 54.4228 40.0213 54.9908L36.5189 58.4932C36.2349 58.7775 35.8624 58.9195 35.4902 58.9195Z" fill="#006BCD"/>
<path d="M26.7067 58.9198C26.4643 58.9198 26.2187 58.8592 25.9929 58.7315C25.293 58.3363 25.0459 57.4487 25.4411 56.7488L29.3966 49.744C29.7915 49.0444 30.6794 48.7974 31.379 49.1923C32.0789 49.5875 32.326 50.4751 31.9308 51.175L27.9753 58.1797C27.7075 58.6535 27.2143 58.9198 26.7067 58.9198Z" fill="#006BCD"/>
<path d="M101.309 85.5985H96.6532C96.171 85.5985 95.7802 85.2076 95.7802 84.7254V67.0125C95.7802 66.5302 96.171 66.1394 96.6532 66.1394H101.309C101.792 66.1394 102.182 66.5302 102.182 67.0125V84.7254C102.182 85.2076 101.792 85.5985 101.309 85.5985Z" fill="#006BCD"/>
<path d="M91.7895 85.5984H87.1332C86.651 85.5984 86.2602 85.2076 86.2602 84.7254V73.7666C86.2602 73.2844 86.651 72.8936 87.1332 72.8936H91.7895C92.2717 72.8936 92.6625 73.2844 92.6625 73.7666V84.7254C92.6625 85.2076 92.2717 85.5984 91.7895 85.5984Z" fill="#006BCD"/>
<path d="M110.829 85.5985H106.173C105.691 85.5985 105.3 85.2076 105.3 84.7254V61.9272C105.3 61.445 105.691 61.0542 106.173 61.0542H110.829C111.312 61.0542 111.703 61.445 111.703 61.9272V84.7254C111.703 85.2076 111.312 85.5985 110.829 85.5985Z" fill="#006BCD"/>
<path d="M80.8485 52.2579C81.7469 52.2579 82.4752 51.5296 82.4752 50.6312C82.4752 49.7327 81.7469 49.0044 80.8485 49.0044C79.95 49.0044 79.2217 49.7327 79.2217 50.6312C79.2217 51.5296 79.95 52.2579 80.8485 52.2579Z" fill="#006BCD"/>
<path d="M75.9271 52.2579C76.8255 52.2579 77.5538 51.5296 77.5538 50.6312C77.5538 49.7327 76.8255 49.0044 75.9271 49.0044C75.0286 49.0044 74.3003 49.7327 74.3003 50.6312C74.3003 51.5296 75.0286 52.2579 75.9271 52.2579Z" fill="#006BCD"/>
<path d="M71.006 52.2579C71.9044 52.2579 72.6328 51.5296 72.6328 50.6312C72.6328 49.7327 71.9044 49.0044 71.006 49.0044C70.1076 49.0044 69.3792 49.7327 69.3792 50.6312C69.3792 51.5296 70.1076 52.2579 71.006 52.2579Z" fill="#006BCD"/>
<defs>
<linearGradient id="paint0_linear" x1="148.082" y1="-12.5771" x2="-36.5663" y2="189.904" gradientUnits="userSpaceOnUse">
<stop stop-color="#006BCD"/>
<stop offset="1" stop-color="#B7C5FF"/>
</linearGradient>
</defs>
</svg>
