<svg width="134" height="152" viewBox="0 0 134 152" fill="none" xmlns="http://www.w3.org/2000/svg">
<path d="M118.184 51.0295C115.704 48.5491 112.833 46.5992 109.659 45.1618C101.34 41.3944 94.8 34.65 91.1238 26.2909C84.3203 10.8199 68.8656 0.0139131 50.8835 0.000256808C27.3381 -0.0175557 7.78857 18.7518 6.9024 42.2806C6.52329 52.3512 9.53182 61.7025 14.8794 69.287C21.671 78.92 23.4357 91.191 19.9325 102.445C14.9557 118.434 16.691 133.587 26.1589 143.055C42.7506 159.647 76.8016 152.496 102.214 127.084C127.626 101.672 134.776 67.6216 118.184 51.0295Z" fill="url(#paint0_linear)"/>
<path opacity="0.1" d="M131.964 96.5923V88.0512C131.964 87.2316 131.3 86.5668 130.48 86.5668H124.555C124.074 84.8067 123.376 83.1371 122.492 81.5859L126.681 77.3961C127.261 76.8163 127.261 75.8767 126.681 75.2972L120.641 69.2578C120.062 68.6783 119.122 68.6781 118.542 69.2576L114.352 73.4462C112.801 72.5627 111.132 71.865 109.371 71.3832V65.4587C109.371 64.6391 108.707 63.9744 107.887 63.9744H99.346C98.5263 63.9744 97.8616 64.6391 97.8616 65.4587V71.3832C96.1014 71.8647 94.4318 72.5624 92.8806 73.4462L88.6905 69.2576C88.1107 68.6781 87.1711 68.6781 86.5916 69.2578L80.5523 75.2972C79.9728 75.8767 79.9725 76.8166 80.552 77.3961L84.7406 81.5859C83.8571 83.1371 83.1594 84.807 82.6776 86.5668H76.7532C75.9332 86.5668 75.2688 87.2316 75.2688 88.0512V96.5923C75.2688 97.412 75.9332 98.0767 76.7532 98.0767H82.6776C83.1591 99.8369 83.8568 101.506 84.7406 103.058L80.552 107.247C79.9725 107.827 79.9725 108.767 80.5523 109.347L86.5916 115.386C87.1711 115.965 88.111 115.966 88.6905 115.386L92.8806 111.198C94.4318 112.081 96.1017 112.779 97.8616 113.261V119.185C97.8616 120.005 98.5263 120.669 99.346 120.669H107.887C108.707 120.669 109.371 120.005 109.371 119.185V113.261C111.132 112.779 112.801 112.081 114.352 111.198L118.542 115.386C119.122 115.966 120.062 115.966 120.641 115.386L126.681 109.347C127.26 108.767 127.261 107.827 126.681 107.247L122.492 103.058C123.376 101.506 124.074 99.8366 124.555 98.0767H130.48C131.3 98.0767 131.964 97.412 131.964 96.5923ZM103.617 103.455C97.4679 103.455 92.4837 98.4704 92.4837 92.3218C92.4837 86.1732 97.4679 81.189 103.617 81.189C109.765 81.189 114.749 86.1732 114.749 92.3218C114.749 98.4704 109.765 103.455 103.617 103.455Z" fill="#006BCD"/>
<path opacity="0.1" d="M77.9302 127.966V122.028C77.9302 121.208 77.2658 120.544 76.4458 120.544H72.197C71.8244 119.181 71.2844 117.889 70.6007 116.689L73.6048 113.684C74.1842 113.104 74.1843 112.165 73.6045 111.585L69.4055 107.386C68.826 106.807 67.8861 106.807 67.3066 107.386L64.3016 110.39C63.1013 109.706 61.809 109.166 60.447 108.794V104.545C60.447 103.725 59.7823 103.061 58.9626 103.061H53.0245C52.2048 103.061 51.5401 103.725 51.5401 104.545V108.794C50.1781 109.166 48.8861 109.706 47.6855 110.39L44.6805 107.386C44.1007 106.807 43.1611 106.807 42.5816 107.386L38.3829 111.585C37.8034 112.165 37.8031 113.104 38.3826 113.684L41.3867 116.689C40.703 117.889 40.163 119.181 39.7904 120.544H35.5415C34.7216 120.544 34.0572 121.208 34.0572 122.028V127.966C34.0572 128.786 34.7216 129.45 35.5415 129.45H39.7904C40.163 130.812 40.703 132.104 41.3867 133.305L38.3826 136.31C37.8031 136.89 37.8031 137.829 38.3829 138.409L42.5816 142.608C43.1611 143.187 44.101 143.187 44.6805 142.608L47.6855 139.604C48.8858 140.287 50.1781 140.827 51.5401 141.2V145.449C51.5401 146.269 52.2048 146.933 53.0245 146.933H58.9626C59.7823 146.933 60.447 146.269 60.447 145.449V141.2C61.809 140.827 63.101 140.287 64.3016 139.604L67.3066 142.608C67.8863 143.187 68.826 143.187 69.4055 142.608L73.6045 138.409C74.184 137.829 74.1842 136.889 73.6048 136.31L70.6007 133.305C71.2844 132.105 71.8244 130.812 72.197 129.45H76.4458C77.2655 129.45 77.9302 128.786 77.9302 127.966ZM55.9935 133.877C51.0889 133.877 47.1128 129.901 47.1128 124.997C47.1128 120.092 51.0889 116.116 55.9935 116.116C60.8982 116.116 64.8743 120.092 64.8743 124.997C64.8743 129.901 60.8982 133.877 55.9935 133.877Z" fill="#006BCD"/>
<path opacity="0.1" d="M77.8379 65.2098V52.79C77.8379 51.9704 77.1735 51.3057 76.3535 51.3057H67.9324C67.2885 48.9523 66.3557 46.7198 65.1741 44.6459L71.128 38.69C71.7075 38.1102 71.7075 37.1706 71.1277 36.5911L62.3455 27.8089C61.766 27.2294 60.8261 27.2291 60.2466 27.8086L54.2907 33.7624C52.2167 32.5812 49.9842 31.6484 47.6309 31.0042V22.583C47.6309 21.7633 46.9662 21.0986 46.1465 21.0986H33.7268C32.9071 21.0986 32.2424 21.7633 32.2424 22.583V31.0042C29.889 31.6481 27.6565 32.5809 25.5826 33.7624L19.627 27.8086C19.0472 27.2291 18.1076 27.2291 17.5278 27.8089L8.74561 36.5911C8.16611 37.1706 8.16582 38.1105 8.74532 38.69L14.6991 44.6459C13.5179 46.7198 12.5851 48.9523 11.9412 51.3057H3.52002C2.70035 51.3057 2.03564 51.9704 2.03564 52.79V65.2098C2.03564 66.0298 2.70035 66.6942 3.52002 66.6942H11.9415C12.5854 69.0475 13.5182 71.28 14.6994 73.354L8.74561 79.3099C8.16611 79.8897 8.16611 80.8293 8.74591 81.4088L17.5281 90.1909C18.1076 90.7705 19.0475 90.7708 19.6273 90.1912L25.5829 84.2374C27.6568 85.4187 29.8893 86.3515 32.2427 86.9954V95.4165C32.2427 96.2365 32.9074 96.9009 33.7271 96.9009H46.1468C46.9665 96.9009 47.6312 96.2365 47.6312 95.4165V86.9954C49.9845 86.3515 52.217 85.4187 54.291 84.2374L60.2469 90.1912C60.8267 90.7708 61.7663 90.7707 62.3458 90.1909L71.128 81.4088C71.7075 80.8293 71.7078 79.8894 71.1283 79.3099L65.1744 73.354C66.3557 71.28 67.2885 69.0475 67.9327 66.6942H76.3538C77.1732 66.6942 77.8379 66.0295 77.8379 65.2098ZM39.9368 75.7934C30.6618 75.7934 23.1432 68.2747 23.1432 58.9998C23.1432 49.7248 30.6618 42.2062 39.9368 42.2062C49.2118 42.2062 56.7304 49.7248 56.7304 58.9998C56.7304 68.2747 49.2118 75.7934 39.9368 75.7934Z" fill="#006BCD"/>
<path d="M131.964 88.5767V80.0356C131.964 79.216 131.3 78.5513 130.48 78.5513H124.555C124.074 76.7911 123.376 75.1215 122.492 73.5703L126.681 69.3802C127.261 68.8004 127.261 67.8608 126.681 67.2813L120.641 61.242C120.062 60.6625 119.122 60.6622 118.542 61.2417L114.352 65.4303C112.801 64.5468 111.132 63.8491 109.371 63.3673V57.4429C109.371 56.6232 108.707 55.9585 107.887 55.9585H99.346C98.5263 55.9585 97.8616 56.6232 97.8616 57.4429V63.3673C96.1014 63.8488 94.4318 64.5465 92.8806 65.4303L88.6905 61.2417C88.1107 60.6622 87.1711 60.6622 86.5916 61.242L80.5523 67.2813C79.9728 67.8608 79.9725 68.8007 80.552 69.3802L84.7406 73.5703C83.8571 75.1215 83.1594 76.7914 82.6776 78.5513H76.7532C75.9332 78.5513 75.2688 79.216 75.2688 80.0356V88.5767C75.2688 89.3964 75.9332 90.0611 76.7532 90.0611H82.6776C83.1591 91.8213 83.8568 93.4909 84.7406 95.0421L80.552 99.2319C79.9725 99.8117 79.9725 100.751 80.5523 101.331L86.5916 107.37C87.1711 107.95 88.111 107.95 88.6905 107.371L92.8806 103.182C94.4318 104.066 96.1017 104.763 97.8616 105.245V111.17C97.8616 111.989 98.5263 112.654 99.346 112.654H107.887C108.707 112.654 109.371 111.989 109.371 111.17V105.245C111.132 104.764 112.801 104.066 114.352 103.182L118.542 107.371C119.122 107.95 120.062 107.95 120.641 107.37L126.681 101.331C127.26 100.752 127.261 99.8117 126.681 99.2319L122.492 95.0421C123.376 93.4909 124.074 91.821 124.555 90.0611H130.48C131.3 90.0611 131.964 89.3964 131.964 88.5767ZM103.617 95.439C97.4679 95.439 92.4837 90.4548 92.4837 84.3062C92.4837 78.1576 97.4679 73.1734 103.617 73.1734C109.765 73.1734 114.749 78.1576 114.749 84.3062C114.749 90.4548 109.765 95.439 103.617 95.439Z" fill="white"/>
<path d="M107.887 114.138H99.346C97.709 114.138 96.3772 112.806 96.3772 111.169V106.349C95.2705 105.985 94.191 105.538 93.1499 105.012L89.74 108.42C89.1792 108.981 88.434 109.29 87.6411 109.29H87.6408C86.8478 109.29 86.1021 108.981 85.5416 108.42L79.5025 102.38C78.942 101.82 78.633 101.075 78.633 100.282C78.633 99.4886 78.9417 98.7432 79.5022 98.1827L82.911 94.7728C82.3843 93.7316 81.9372 92.6522 81.5741 91.5457H76.7532C75.1162 91.5457 73.7844 90.214 73.7844 88.577V80.0359C73.7844 78.3989 75.1162 77.0671 76.7532 77.0671H81.5741C81.9369 75.9604 82.3843 74.881 82.911 73.8398L79.5022 70.4299C78.3453 69.273 78.3453 67.3896 79.5022 66.2318L85.5419 60.1925C86.6994 59.0347 88.5828 59.0353 89.74 60.1919L93.1499 63.6009C94.191 63.0739 95.2705 62.6268 96.3772 62.2638V57.4431C96.3772 55.8061 97.709 54.4744 99.346 54.4744H107.887C109.524 54.4744 110.856 55.8061 110.856 57.4431V62.2638C111.963 62.6268 113.042 63.0739 114.083 63.6009L117.493 60.1919C118.651 59.035 120.534 59.0353 121.691 60.1925L127.73 66.2318C128.888 67.3893 128.888 69.2727 127.73 70.4299L124.322 73.8398C124.848 74.881 125.296 75.9604 125.659 77.0671H130.48C132.117 77.0671 133.448 78.3989 133.448 80.0359V88.577C133.448 90.214 132.117 91.5457 130.48 91.5457H125.659C125.296 92.6528 124.848 93.7316 124.322 94.7728L127.73 98.1827C128.291 98.7435 128.6 99.4886 128.6 100.282C128.6 101.075 128.291 101.82 127.73 102.381L121.691 108.42C121.13 108.981 120.385 109.29 119.592 109.29C118.799 109.29 118.054 108.981 117.493 108.42L114.083 105.012C113.042 105.538 111.963 105.985 110.856 106.349V111.169C110.856 112.806 109.524 114.138 107.887 114.138ZM92.8809 101.698C93.1324 101.698 93.3853 101.762 93.6154 101.892C95.0763 102.725 96.6367 103.371 98.2532 103.814C98.8983 103.99 99.346 104.576 99.346 105.245V111.169H107.887V105.245C107.887 104.576 108.334 103.99 108.98 103.813C110.597 103.371 112.157 102.725 113.618 101.892C114.199 101.562 114.929 101.66 115.402 102.133L119.592 106.321L125.631 100.282L121.443 96.0915C120.97 95.6186 120.872 94.888 121.203 94.307C122.035 92.8464 122.681 91.286 123.124 89.6692C123.301 89.0241 123.887 88.5767 124.556 88.5767H130.48V80.0356H124.556C123.887 80.0356 123.301 79.5882 123.124 78.9428C122.682 77.3266 122.035 75.7659 121.203 74.3044C120.872 73.7234 120.97 72.9931 121.443 72.5202L125.632 68.3304L119.592 62.2911L115.402 66.4797C114.93 66.9523 114.199 67.05 113.618 66.7199C112.157 65.8871 110.596 65.2411 108.98 64.7988C108.335 64.6221 107.888 64.0358 107.888 63.367V57.4428H99.3466V63.367C99.3466 64.0358 98.8992 64.6224 98.2538 64.7985C96.6379 65.2408 95.0772 65.8871 93.616 66.7199C93.035 67.0506 92.3044 66.9523 91.8318 66.4797L87.642 62.2911L81.6026 68.3304L85.7909 72.5202C86.2636 72.9931 86.3618 73.7234 86.0311 74.3044C85.1987 75.7659 84.5524 77.3266 84.11 78.9428C83.9334 79.5882 83.3474 80.0356 82.6782 80.0356H76.7538V88.5767H82.6782C83.3471 88.5767 83.9334 89.0241 84.11 89.6692C84.5524 91.2857 85.199 92.8463 86.0311 94.3073C86.3618 94.888 86.2639 95.6186 85.7909 96.0915L81.6026 100.282L87.642 106.321L91.8318 102.133C92.1171 101.847 92.4968 101.698 92.8809 101.698ZM103.617 96.9236C96.6592 96.9236 90.9993 91.2637 90.9993 84.3064C90.9993 77.3492 96.6592 71.6893 103.617 71.6893C110.574 71.6893 116.234 77.3492 116.234 84.3064C116.234 85.5833 116.043 86.8438 115.668 88.0533C115.424 88.8362 114.593 89.2746 113.81 89.0306C113.027 88.7875 112.589 87.9556 112.832 87.1725C113.119 86.2489 113.265 85.2843 113.265 84.3064C113.265 78.9861 108.937 74.658 103.617 74.658C98.2965 74.658 93.9681 78.9861 93.9681 84.3064C93.9681 89.6267 98.2965 93.9549 103.617 93.9549C104.676 93.9549 105.723 93.7812 106.728 93.4392C107.503 93.1741 108.347 93.5894 108.611 94.3655C108.876 95.1415 108.461 95.9849 107.685 96.2494C106.371 96.6965 105.002 96.9236 103.617 96.9236Z" fill="#006BCD"/>
<path d="M77.9302 119.95V114.012C77.9302 113.193 77.2658 112.528 76.4458 112.528H72.197C71.8244 111.166 71.2844 109.874 70.6007 108.673L73.6048 105.668C74.1842 105.088 74.1843 104.149 73.6045 103.569L69.4055 99.3707C68.826 98.7912 67.8861 98.7909 67.3066 99.3704L64.3016 102.374C63.1013 101.691 61.809 101.151 60.447 100.778V96.5293C60.447 95.7096 59.7823 95.0449 58.9626 95.0449H53.0245C52.2048 95.0449 51.5401 95.7096 51.5401 96.5293V100.778C50.1781 101.151 48.8861 101.691 47.6855 102.374L44.6805 99.3704C44.1007 98.7909 43.1611 98.7909 42.5816 99.3707L38.3829 103.569C37.8034 104.149 37.8031 105.089 38.3826 105.668L41.3867 108.673C40.703 109.874 40.163 111.166 39.7904 112.528H35.5415C34.7216 112.528 34.0572 113.193 34.0572 114.012V119.95C34.0572 120.77 34.7216 121.435 35.5415 121.435H39.7904C40.163 122.797 40.703 124.089 41.3867 125.289L38.3826 128.294C37.8031 128.874 37.8031 129.814 38.3829 130.393L42.5816 134.592C43.1611 135.171 44.101 135.172 44.6805 134.592L47.6855 131.588C48.8858 132.272 50.1781 132.812 51.5401 133.184V137.433C51.5401 138.253 52.2048 138.918 53.0245 138.918H58.9626C59.7823 138.918 60.447 138.253 60.447 137.433V133.184C61.809 132.812 63.101 132.272 64.3016 131.588L67.3066 134.592C67.8863 135.172 68.826 135.172 69.4055 134.592L73.6045 130.393C74.184 129.814 74.1842 128.874 73.6048 128.294L70.6007 125.289C71.2844 124.089 71.8244 122.797 72.197 121.435H76.4458C77.2655 121.434 77.9302 120.77 77.9302 119.95ZM55.9935 125.862C51.0889 125.862 47.1128 121.886 47.1128 116.981C47.1128 112.076 51.0889 108.1 55.9935 108.1C60.8982 108.1 64.8743 112.076 64.8743 116.981C64.8743 121.886 60.8982 125.862 55.9935 125.862Z" fill="white"/>
<path d="M58.9626 140.402H53.0245C51.3876 140.402 50.0558 139.07 50.0558 137.433V134.28C49.3406 134.035 48.6406 133.745 47.9607 133.412L45.73 135.642C44.5728 136.799 42.6894 136.799 41.5319 135.642L37.3329 131.443C36.176 130.285 36.1757 128.402 37.3323 127.244L39.5624 125.013C39.2296 124.334 38.9399 123.634 38.6947 122.918H35.5413C33.9043 122.918 32.5725 121.587 32.5725 119.95V114.012C32.5725 112.375 33.9043 111.043 35.5413 111.043H38.6947C38.9399 110.328 39.2296 109.628 39.5624 108.948L37.3323 106.717C36.1751 105.559 36.1754 103.676 37.3329 102.519L41.5316 98.3202C42.6888 97.163 44.5722 97.1627 45.7297 98.3199L47.9604 100.55C48.6409 100.217 49.3403 99.9269 50.0555 99.682V96.5286C50.0555 94.8916 51.3873 93.5598 53.0242 93.5598H58.9623C60.5993 93.5598 61.9311 94.8916 61.9311 96.5286V99.682C62.6459 99.9269 63.3457 100.217 64.0261 100.55L66.2568 98.3199C67.4141 97.1627 69.2974 97.1627 70.4549 98.3199L74.6539 102.519C75.8115 103.676 75.8115 105.559 74.6542 106.717L72.4241 108.948C72.7569 109.628 73.047 110.328 73.2919 111.043H76.4456C78.0826 111.043 79.4143 112.375 79.4143 114.012V119.95C79.4143 121.587 78.0826 122.919 76.4456 122.919H73.2919C73.0467 123.634 72.7569 124.334 72.4241 125.014L74.6539 127.244C75.8109 128.402 75.8106 130.285 74.6536 131.443L70.4549 135.642C69.2971 136.799 67.4141 136.799 66.2565 135.642L64.0258 133.412C63.346 133.745 62.6459 134.035 61.9308 134.28V137.434C61.9314 139.07 60.5996 140.402 58.9626 140.402ZM47.6861 130.104C47.9376 130.104 48.1905 130.167 48.4203 130.298C49.5264 130.928 50.708 131.418 51.932 131.753C52.5771 131.929 53.0245 132.515 53.0245 133.184V137.433H58.9626V133.184C58.9626 132.515 59.41 131.929 60.0551 131.753C61.2794 131.418 62.461 130.928 63.5669 130.298C64.1478 129.968 64.8782 130.065 65.3508 130.538L68.3557 133.542L72.5544 129.343L69.5507 126.338C69.078 125.865 68.9798 125.135 69.3108 124.554C69.9408 123.448 70.4303 122.266 70.7649 121.042C70.9415 120.397 71.5276 119.95 72.1967 119.95H76.4456V114.012H72.1967C71.5276 114.012 70.9415 113.565 70.7649 112.919C70.43 111.696 69.9408 110.514 69.3105 109.408C68.9798 108.827 69.078 108.096 69.5507 107.623L72.5547 104.618L68.3557 100.42L65.3505 103.424C64.8778 103.896 64.1475 103.995 63.5666 103.664C62.4595 103.033 61.2782 102.544 60.0551 102.21C59.41 102.033 58.9623 101.447 58.9623 100.778V96.5295H53.0242V100.778C53.0242 101.447 52.5768 102.034 51.9314 102.21C50.7083 102.544 49.527 103.033 48.42 103.664C47.8393 103.995 47.1087 103.897 46.6361 103.424L43.6311 100.42L39.4321 104.618L42.4359 107.623C42.9085 108.096 43.0068 108.827 42.6761 109.408C42.0458 110.514 41.5565 111.696 41.2217 112.919C41.045 113.565 40.459 114.012 39.7898 114.012H35.541V119.95H39.7898C40.4587 119.95 41.045 120.397 41.2217 121.043C41.5565 122.267 42.0458 123.448 42.6758 124.554C43.0068 125.135 42.9085 125.865 42.4359 126.338L39.4318 129.343L43.6308 133.543L46.6358 130.539C46.9223 130.253 47.302 130.104 47.6861 130.104ZM55.9936 127.346C50.2781 127.346 45.6285 122.696 45.6285 116.981C45.6285 111.266 50.2781 106.616 55.9936 106.616C61.7087 106.616 66.3584 111.266 66.3584 116.981C66.3587 122.696 61.709 127.346 55.9936 127.346ZM55.9936 109.585C51.9154 109.585 48.5972 112.903 48.5972 116.981C48.5972 121.059 51.9151 124.377 55.9936 124.377C60.0717 124.377 63.3896 121.059 63.3896 116.981C63.3896 112.903 60.072 109.585 55.9936 109.585Z" fill="#006BCD"/>
<path d="M77.8379 57.1941V44.7743C77.8379 43.9546 77.1735 43.2899 76.3535 43.2899H67.9324C67.2885 40.9366 66.3557 38.7041 65.1741 36.6301L71.128 30.6742C71.7075 30.0944 71.7075 29.1548 71.1277 28.5753L62.3455 19.7932C61.766 19.2137 60.8261 19.2134 60.2466 19.7929L54.2907 25.7467C52.2167 24.5654 49.9842 23.6326 47.6309 22.9884V14.5673C47.6309 13.7476 46.9662 13.0829 46.1465 13.0829H33.7268C32.9071 13.0829 32.2424 13.7476 32.2424 14.5673V22.9884C29.889 23.6323 27.6565 24.5651 25.5826 25.7467L19.627 19.7929C19.0472 19.2134 18.1076 19.2134 17.5278 19.7932L8.74591 28.575C8.16641 29.1545 8.16611 30.0944 8.74561 30.6742L14.6994 36.6301C13.5182 38.7041 12.5854 40.9366 11.9415 43.2899H3.52002C2.70035 43.2899 2.03564 43.9546 2.03564 44.7743V57.1941C2.03564 58.014 2.70035 58.6784 3.52002 58.6784H11.9415C12.5854 61.0318 13.5182 63.2643 14.6994 65.3382L8.74561 71.2939C8.16611 71.8737 8.16611 72.8133 8.74591 73.3931L17.5281 82.1752C18.1076 82.7547 19.0475 82.755 19.6273 82.1755L25.5829 76.2217C27.6568 77.403 29.8893 78.3357 32.2427 78.9797V87.4008C32.2427 88.2208 32.9074 88.8852 33.7271 88.8852H46.1468C46.9665 88.8852 47.6312 88.2208 47.6312 87.4008V78.9797C49.9845 78.3357 52.217 77.403 54.291 76.2217L60.2469 82.1755C60.8267 82.755 61.7663 82.755 62.3458 82.1752L71.128 73.3931C71.7075 72.8136 71.7078 71.8737 71.1283 71.2939L65.1744 65.3382C66.3557 63.2643 67.2885 61.0318 67.9327 58.6784H76.3538C77.1732 58.6784 77.8379 58.0137 77.8379 57.1941ZM39.9368 67.7777C30.6618 67.7777 23.1432 60.259 23.1432 50.984C23.1432 41.7091 30.6618 34.1904 39.9368 34.1904C49.2118 34.1904 56.7304 41.7091 56.7304 50.984C56.7304 60.259 49.2118 67.7777 39.9368 67.7777Z" fill="white"/>
<path d="M46.1468 90.3692H33.7271C32.0901 90.3692 30.7583 89.0375 30.7583 87.4005V80.0896C29.0673 79.5576 27.4229 78.8763 25.8477 78.0555L20.6767 83.2246C19.5192 84.3819 17.6355 84.3819 16.4783 83.2241L7.69616 74.4422C6.53894 73.2856 6.53864 71.4022 7.69586 70.2444L12.8651 65.0737C12.0442 63.4979 11.3629 61.8532 10.8309 60.1625H3.52002C1.88305 60.1625 0.55127 58.8307 0.55127 57.1938V44.774C0.55127 43.137 1.88305 41.8052 3.52002 41.8052H10.8306C11.3626 40.1142 12.0439 38.4699 12.8648 36.8943L7.69557 31.7234C6.53864 30.5664 6.53864 28.6831 7.69557 27.5253L16.4777 18.7434C17.6352 17.5865 19.5186 17.5862 20.6761 18.7428L25.8471 23.912C27.4223 23.0911 29.0667 22.4098 30.7577 21.8778V14.5673C30.7577 12.9303 32.0895 11.5985 33.7265 11.5985H46.1462C47.7832 11.5985 49.115 12.9303 49.115 14.5673V21.8781C50.806 22.4101 52.4504 23.0914 54.0259 23.912L59.1965 18.7431C60.3544 17.5862 62.2377 17.5865 63.3947 18.7437L72.1768 27.5256C73.334 28.6834 73.334 30.5664 72.1768 31.7237L67.0079 36.8946C67.8288 38.4701 68.5101 40.1145 69.0421 41.8055H76.3527C77.9896 41.8055 79.3214 43.1373 79.3214 44.7743V57.194C79.3214 58.831 77.9896 60.1628 76.3527 60.1628H69.0421C68.5101 61.8535 67.8288 63.4982 67.0079 65.074L72.1771 70.2444C73.334 71.4019 73.334 73.2853 72.1768 74.4425L63.3947 83.2246C62.8342 83.7854 62.0887 84.0945 61.2957 84.0945C60.5028 84.0945 59.7573 83.786 59.1965 83.2252L54.0259 78.0561C52.4507 78.8769 50.8063 79.5582 49.115 80.0902V87.4011C49.1156 89.0375 47.7838 90.3692 46.1468 90.3692ZM25.5832 74.737C25.8346 74.737 26.0876 74.8008 26.3176 74.9314C28.3073 76.0649 30.4323 76.9449 32.6343 77.5478C33.2794 77.7242 33.7268 78.3105 33.7268 78.9793V87.4005H46.1465V78.9793C46.1465 78.3105 46.5939 77.7239 47.239 77.5478C49.4409 76.9452 51.5663 76.0652 53.5556 74.9314C54.1369 74.6013 54.8669 74.699 55.3398 75.1716L61.2955 81.1254L70.0776 72.3433L64.1238 66.3877C63.6512 65.9148 63.5529 65.1844 63.8836 64.6035C65.0171 62.6135 65.8973 60.4882 66.4997 58.2865C66.6763 57.6411 67.2623 57.1938 67.9315 57.1938H76.3527V44.774H67.9315C67.2626 44.774 66.6763 44.3266 66.4997 43.6812C65.8973 41.4796 65.0171 39.3542 63.8836 37.3646C63.5526 36.7839 63.6509 36.0533 64.1235 35.5804L70.0773 29.6245L61.2952 20.8426L55.3396 26.7964C54.8663 27.2688 54.1363 27.3667 53.5553 27.0366C51.5657 25.9031 49.4406 25.0232 47.2387 24.4205C46.5936 24.2442 46.1462 23.6579 46.1462 22.989V14.5673H33.7265V22.9884C33.7265 23.6573 33.2791 24.2436 32.634 24.4199C30.432 25.0226 28.3067 25.9025 26.3173 27.036C25.7367 27.3667 25.0061 27.2691 24.5331 26.7958L18.5775 20.8426L9.79566 29.6245L15.7495 35.5804C16.2221 36.0533 16.3204 36.7839 15.9894 37.3646C14.8559 39.3542 13.9757 41.4796 13.3733 43.6812C13.1967 44.3266 12.6106 44.774 11.9415 44.774H3.52002V57.1938H11.9415C12.6103 57.1938 13.1967 57.6411 13.3733 58.2865C13.9757 60.4882 14.8559 62.6135 15.9894 64.6035C16.3201 65.1844 16.2221 65.9148 15.7492 66.3877L9.79536 72.3433L18.5775 81.1254L24.5334 75.1716C24.8193 74.886 25.199 74.737 25.5832 74.737ZM39.9368 69.262C36.8707 69.262 33.8357 68.4863 31.16 67.0185C30.4412 66.6243 30.1779 65.7221 30.5725 65.0033C30.967 64.2846 31.8692 64.021 32.5876 64.4158C34.8273 65.6443 37.3685 66.2933 39.9371 66.2933C48.3787 66.2933 55.2463 59.4254 55.2463 50.984C55.2463 42.5424 48.3787 35.6751 39.9371 35.6751C31.4957 35.6751 24.6281 42.5427 24.6281 50.984C24.6281 53.3644 25.1619 55.6482 26.2149 57.7721C26.5789 58.5065 26.2788 59.3972 25.5443 59.7611C24.8092 60.1248 23.9192 59.825 23.5549 59.0905C22.2971 56.5531 21.6594 53.8257 21.6594 50.9837C21.6594 40.9054 29.8588 32.706 39.9371 32.706C50.0157 32.706 58.2151 40.9054 58.2151 50.9837C58.2148 61.0626 50.0154 69.262 39.9368 69.262Z" fill="#006BCD"/>
<path d="M103.617 31.2625C101.452 31.2625 99.6904 29.5011 99.6904 27.3363C99.6904 25.1715 101.452 23.4102 103.617 23.4102C105.782 23.4102 107.543 25.1715 107.543 27.3363C107.543 29.5011 105.781 31.2625 103.617 31.2625ZM103.617 26.3792C103.089 26.3792 102.659 26.8085 102.659 27.3366C102.659 27.8645 103.089 28.294 103.617 28.294C104.144 28.294 104.574 27.8648 104.574 27.3366C104.574 26.8085 104.144 26.3792 103.617 26.3792Z" fill="#006BCD"/>
<path d="M103.617 141.703C101.452 141.703 99.6904 139.942 99.6904 137.777C99.6904 135.612 101.452 133.85 103.617 133.85C105.782 133.85 107.543 135.612 107.543 137.777C107.543 139.942 105.781 141.703 103.617 141.703ZM103.617 136.819C103.089 136.819 102.659 137.249 102.659 137.777C102.659 138.305 103.089 138.734 103.617 138.734C104.144 138.734 104.574 138.305 104.574 137.777C104.574 137.249 104.144 136.819 103.617 136.819Z" fill="#006BCD"/>
<path d="M55.9935 14.5674C53.8287 14.5674 52.0673 12.806 52.0673 10.6412C52.0673 8.47608 53.8287 6.71472 55.9935 6.71472C58.1583 6.71472 59.9197 8.47608 59.9197 10.6412C59.9197 12.8063 58.1583 14.5674 55.9935 14.5674ZM55.9935 9.68377C55.4656 9.68377 55.0361 10.1133 55.0361 10.6415C55.0361 11.1693 55.4656 11.5989 55.9935 11.5989C56.5213 11.5989 56.9509 11.1696 56.9509 10.6415C56.9509 10.1133 56.5213 9.68377 55.9935 9.68377Z" fill="#006BCD"/>
<path d="M88.697 42.4522C88.317 42.4522 87.9373 42.3074 87.6473 42.0173L84.295 38.665C83.7152 38.0855 83.7152 37.1456 84.295 36.5661L87.6473 33.2138C88.2271 32.634 89.1667 32.634 89.7465 33.2138L93.0988 36.5661C93.3773 36.8446 93.5334 37.2219 93.5334 37.6155C93.5334 38.0092 93.377 38.3868 93.0988 38.665L89.7465 42.0173C89.4567 42.3074 89.0767 42.4522 88.697 42.4522ZM87.4439 37.6155L88.697 38.8687L89.9501 37.6155L88.697 36.3624L87.4439 37.6155Z" fill="#006BCD"/>
<path d="M8.42886 103.975C8.0352 103.975 7.65758 103.819 7.37911 103.54L4.0268 100.188C3.447 99.6086 3.447 98.6687 4.0268 98.0892L7.37911 94.7368C7.95891 94.1571 8.89851 94.1571 9.47831 94.7368L12.8306 98.0892C13.1091 98.3676 13.2652 98.745 13.2652 99.1386C13.2652 99.5323 13.1088 99.9099 12.8306 100.188L9.47831 103.541C9.20014 103.819 8.82251 103.975 8.42886 103.975ZM7.17545 99.1386L8.42856 100.392L9.68167 99.1386L8.42856 97.8855L7.17545 99.1386Z" fill="#006BCD"/>
<defs>
<linearGradient id="paint0_linear" x1="143.826" y1="-12.8301" x2="-45.3417" y2="176.338" gradientUnits="userSpaceOnUse">
<stop stop-color="#006BCD"/>
<stop offset="1" stop-color="#B7C5FF"/>
</linearGradient>
</defs>
</svg>
