<svg width="208" height="208" viewBox="0 0 208 208" fill="none" xmlns="http://www.w3.org/2000/svg">
<g clip-path="url(#clip0)">
<path d="M8.41826 72.9476C19.0844 107.482 52.2019 109.106 82.409 110.953C181.886 117.038 56.8144 199.592 142.005 207.765C173.341 210.771 206.106 184.626 201.15 150.771C196.638 119.945 151.932 101.585 151.91 72.7798C151.892 50.0521 194.103 33.6137 166.645 9.18015C142.17 -12.5997 -13.2706 2.72565 8.41826 72.9476Z" fill="url(#paint0_linear)"/>
<path d="M33.3125 80.3973C32.7929 80.3973 32.2725 80.1991 31.8764 79.8026L27.4077 75.3338C26.6143 74.5404 26.6143 73.2542 27.4077 72.4612L31.8764 67.9925C32.669 67.1995 33.956 67.1995 34.7486 67.9925L39.2174 72.4612C40.0108 73.2546 40.0108 74.5408 39.2174 75.3338L34.7486 79.8026C34.3525 80.1991 33.8321 80.3973 33.3125 80.3973ZM31.7164 73.8973L33.3125 75.4935L34.9087 73.8973L33.3125 72.3016L31.7164 73.8973Z" fill="#006BCD"/>
<path d="M178.344 86.9565C177.805 86.9565 177.288 86.7424 176.908 86.3618L172.439 81.8926C172.058 81.5116 171.844 80.9952 171.844 80.4561C171.844 79.9175 172.057 79.4007 172.439 79.0196L176.908 74.5513C177.7 73.7583 178.987 73.7583 179.78 74.5513L184.249 79.02C185.042 79.8134 185.042 81.0996 184.249 81.8926L179.78 86.3614C179.399 86.7425 178.882 86.9565 178.344 86.9565ZM176.748 80.4561L178.344 82.0523L179.94 80.4561L178.344 78.8604L176.748 80.4561Z" fill="#006BCD"/>
<path d="M28.8437 131.773C27.7217 131.773 26.8125 130.863 26.8125 129.741C26.8125 128.397 25.7193 127.304 24.375 127.304C23.2529 127.304 22.3438 126.394 22.3438 125.273C22.3438 124.151 23.2529 123.241 24.375 123.241C25.7193 123.241 26.8125 122.148 26.8125 120.804C26.8125 119.682 27.7217 118.773 28.8437 118.773C29.9658 118.773 30.875 119.682 30.875 120.804C30.875 122.148 31.9682 123.241 33.3125 123.241C34.4346 123.241 35.3437 124.151 35.3437 125.273C35.3437 126.394 34.4346 127.304 33.3125 127.304C31.9682 127.304 30.875 128.397 30.875 129.741C30.875 130.864 29.9658 131.773 28.8437 131.773Z" fill="#006BCD"/>
<path d="M184.844 180.289C183.722 180.289 182.812 179.379 182.812 178.257C182.812 176.913 181.719 175.82 180.375 175.82C179.253 175.82 178.344 174.91 178.344 173.789C178.344 172.667 179.253 171.757 180.375 171.757C181.719 171.757 182.812 170.664 182.812 169.32C182.812 168.198 183.722 167.289 184.844 167.289C185.966 167.289 186.875 168.198 186.875 169.32C186.875 170.664 187.968 171.757 189.312 171.757C190.435 171.757 191.344 172.667 191.344 173.789C191.344 174.91 190.435 175.82 189.312 175.82C187.968 175.82 186.875 176.913 186.875 178.257C186.875 179.379 185.966 180.289 184.844 180.289Z" fill="#006BCD"/>
<path d="M171.982 66.2437C170.86 66.2437 169.951 65.3341 169.951 64.2124C169.951 62.8681 168.857 61.7749 167.513 61.7749C166.391 61.7749 165.482 60.8653 165.482 59.7437C165.482 58.622 166.391 57.7124 167.513 57.7124C168.857 57.7124 169.951 56.6192 169.951 55.2749C169.951 54.1532 170.86 53.2437 171.982 53.2437C173.104 53.2437 174.013 54.1532 174.013 55.2749C174.013 56.6192 175.106 57.7124 176.451 57.7124C177.573 57.7124 178.482 58.622 178.482 59.7437C178.482 60.8653 177.573 61.7749 176.451 61.7749C175.106 61.7749 174.013 62.8681 174.013 64.2124C174.013 65.3345 173.104 66.2437 171.982 66.2437Z" fill="#006BCD"/>
<path opacity="0.1" d="M157.028 35.9187V189.449C157.028 196.18 151.572 201.636 144.84 201.636H63.1597C56.4281 201.636 50.9722 196.18 50.9722 189.449V35.9187C50.9722 29.1871 56.4281 23.7312 63.1597 23.7312H144.84C151.572 23.7312 157.028 29.1871 157.028 35.9187Z" fill="#006BCD"/>
<path d="M157.028 26.1687V179.699C157.028 186.43 151.572 191.886 144.84 191.886H63.1597C56.4281 191.886 50.9722 186.43 50.9722 179.699V26.1687C50.9722 19.4371 56.4281 13.9812 63.1597 13.9812H144.84C151.572 13.9812 157.028 19.4371 157.028 26.1687Z" fill="white"/>
<path d="M126.585 23.3004L129.492 13.9814H78.5078L81.4153 23.3004C81.9447 24.9973 83.5161 26.1531 85.2934 26.1531H122.706C124.484 26.1527 126.055 24.9973 126.585 23.3004Z" fill="#006BCD"/>
<path d="M87.4246 75.8666C93.542 69.7492 93.542 59.8309 87.4246 53.7134C81.3072 47.596 71.3888 47.596 65.2714 53.7134C59.154 59.8309 59.154 69.7492 65.2714 75.8666C71.3888 81.9841 81.3071 81.9841 87.4246 75.8666Z" fill="#006BCD"/>
<path d="M83.1122 62.4304C83.1122 58.7088 80.0844 55.6814 76.3632 55.6814C72.6415 55.6814 69.6141 58.7092 69.6141 62.4304C69.6141 64.2659 70.3527 65.9303 71.5459 67.1482C70.3531 68.3661 69.6141 70.0305 69.6141 71.866C69.6141 72.9876 70.5237 73.8972 71.6454 73.8972C72.767 73.8972 73.6766 72.9876 73.6766 71.866C73.6766 70.3848 74.882 69.1795 76.3632 69.1795C77.8444 69.1795 79.0497 70.3848 79.0497 71.866C79.0497 72.9876 79.9593 73.8972 81.0809 73.8972C82.2026 73.8972 83.1122 72.9876 83.1122 71.866C83.1122 70.0305 82.3736 68.3661 81.1805 67.1482C82.3736 65.9303 83.1122 64.2659 83.1122 62.4304ZM76.3632 59.7435C77.8444 59.7435 79.0497 60.9488 79.0497 62.43C79.0497 63.9112 77.8444 65.1166 76.3632 65.1166C74.882 65.1166 73.6766 63.9112 73.6766 62.43C73.6766 60.9488 74.8816 59.7435 76.3632 59.7435Z" fill="#006BCD"/>
<path d="M125.637 177.851H82.3631C81.241 177.851 80.3318 176.941 80.3318 175.82C80.3318 174.698 81.241 173.789 82.3631 173.789H125.637C126.759 173.789 127.668 174.698 127.668 175.82C127.668 176.941 126.758 177.851 125.637 177.851Z" fill="#006BCD"/>
<path d="M145.273 42.7051H114.187C113.065 42.7051 112.155 41.7955 112.155 40.6738C112.155 39.5522 113.065 38.6426 114.187 38.6426H145.273C146.395 38.6426 147.304 39.5522 147.304 40.6738C147.304 41.7955 146.395 42.7051 145.273 42.7051Z" fill="#006BCD"/>
<path d="M73.0571 25.4906H65.3383C64.2167 25.4906 63.3071 24.581 63.3071 23.4593V21.4358C63.3071 20.3141 64.2167 19.4045 65.3383 19.4045H73.0571C74.1791 19.4045 75.0883 20.3141 75.0883 21.4358V23.4593C75.0883 24.581 74.1791 25.4906 73.0571 25.4906Z" fill="#006BCD"/>
<path d="M136.466 25.1897C135.345 25.1897 134.435 24.2801 134.435 23.1585V21.7366C134.435 20.6149 135.345 19.7053 136.466 19.7053C137.588 19.7053 138.497 20.6149 138.497 21.7366V23.1585C138.497 24.2805 137.588 25.1897 136.466 25.1897Z" fill="#006BCD"/>
<path d="M142.661 25.1897C141.54 25.1897 140.63 24.2801 140.63 23.1585V21.7366C140.63 20.6149 141.54 19.7053 142.661 19.7053C143.783 19.7053 144.693 20.6149 144.693 21.7366V23.1585C144.693 24.2805 143.783 25.1897 142.661 25.1897Z" fill="#006BCD"/>
<path d="M145.273 73.052H101.999C100.877 73.052 99.968 72.1424 99.968 71.0208C99.968 69.8991 100.877 68.9895 101.999 68.9895H145.273C146.395 68.9895 147.304 69.8991 147.304 71.0208C147.304 72.1424 146.395 73.052 145.273 73.052Z" fill="#006BCD"/>
<path d="M101.999 65.228C100.878 65.228 99.968 64.3184 99.968 63.1968V61.7749C99.968 60.6532 100.878 59.7437 101.999 59.7437C103.121 59.7437 104.03 60.6532 104.03 61.7749V63.1968C104.03 64.3188 103.121 65.228 101.999 65.228Z" fill="#006BCD"/>
<path d="M108.195 65.228C107.073 65.228 106.163 64.3184 106.163 63.1968V61.7749C106.163 60.6532 107.073 59.7437 108.195 59.7437C109.316 59.7437 110.226 60.6532 110.226 61.7749V63.1968C110.226 64.3188 109.317 65.228 108.195 65.228Z" fill="#006BCD"/>
<path d="M120.585 65.228C119.463 65.228 118.554 64.3184 118.554 63.1968V61.7749C118.554 60.6532 119.463 59.7437 120.585 59.7437C121.707 59.7437 122.616 60.6532 122.616 61.7749V63.1968C122.616 64.3188 121.707 65.228 120.585 65.228Z" fill="#006BCD"/>
<path d="M126.78 65.228C125.659 65.228 124.749 64.3184 124.749 63.1968V61.7749C124.749 60.6532 125.659 59.7437 126.78 59.7437C127.902 59.7437 128.812 60.6532 128.812 61.7749V63.1968C128.812 64.3188 127.903 65.228 126.78 65.228Z" fill="#006BCD"/>
<path d="M132.976 65.228C131.854 65.228 130.945 64.3184 130.945 63.1968V61.7749C130.945 60.6532 131.854 59.7437 132.976 59.7437C134.097 59.7437 135.007 60.6532 135.007 61.7749V63.1968C135.007 64.3188 134.098 65.228 132.976 65.228Z" fill="#006BCD"/>
<path d="M139.171 65.228C138.049 65.228 137.14 64.3184 137.14 63.1968V61.7749C137.14 60.6532 138.049 59.7437 139.171 59.7437C140.293 59.7437 141.202 60.6532 141.202 61.7749V63.1968C141.202 64.3188 140.293 65.228 139.171 65.228Z" fill="#006BCD"/>
<path d="M145.366 65.228C144.245 65.228 143.335 64.3184 143.335 63.1968V61.7749C143.335 60.6532 144.245 59.7437 145.366 59.7437C146.488 59.7437 147.398 60.6532 147.398 61.7749V63.1968C147.398 64.3188 146.488 65.228 145.366 65.228Z" fill="#006BCD"/>
<path d="M87.4205 113.938C93.5379 107.82 93.5379 97.9022 87.4205 91.7847C81.3031 85.6673 71.3847 85.6673 65.2673 91.7847C59.1499 97.9022 59.1499 107.82 65.2673 113.938C71.3848 120.055 81.3031 120.055 87.4205 113.938Z" fill="#006BCD"/>
<path d="M83.1123 100.506C83.1123 96.784 80.0845 93.7566 76.3632 93.7566C72.6416 93.7566 69.6142 96.7844 69.6142 100.506C69.6142 102.341 70.3528 104.005 71.5459 105.223C70.3532 106.441 69.6142 108.106 69.6142 109.941C69.6142 111.063 70.5238 111.972 71.6454 111.972C72.7671 111.972 73.6767 111.063 73.6767 109.941C73.6767 108.46 74.882 107.255 76.3632 107.255C77.8444 107.255 79.0498 108.46 79.0498 109.941C79.0498 111.063 79.9594 111.972 81.081 111.972C82.2027 111.972 83.1123 111.063 83.1123 109.941C83.1123 108.106 82.3737 106.441 81.1805 105.223C82.3737 104.006 83.1123 102.341 83.1123 100.506ZM76.3632 97.8191C77.8444 97.8191 79.0498 99.0244 79.0498 100.506C79.0498 101.987 77.8444 103.192 76.3632 103.192C74.882 103.192 73.6767 101.987 73.6767 100.506C73.6767 99.0244 74.8816 97.8191 76.3632 97.8191Z" fill="#006BCD"/>
<path d="M145.273 111.127H101.999C100.877 111.127 99.968 110.218 99.968 109.096C99.968 107.975 100.877 107.065 101.999 107.065H145.273C146.395 107.065 147.304 107.975 147.304 109.096C147.304 110.218 146.395 111.127 145.273 111.127Z" fill="#006BCD"/>
<path d="M101.999 103.303C100.878 103.303 99.968 102.394 99.968 101.272V99.8503C99.968 98.7287 100.878 97.8191 101.999 97.8191C103.121 97.8191 104.03 98.7287 104.03 99.8503V101.272C104.03 102.394 103.121 103.303 101.999 103.303Z" fill="#006BCD"/>
<path d="M108.195 103.303C107.073 103.303 106.163 102.394 106.163 101.272V99.8503C106.163 98.7287 107.073 97.8191 108.195 97.8191C109.316 97.8191 110.226 98.7287 110.226 99.8503V101.272C110.226 102.394 109.317 103.303 108.195 103.303Z" fill="#006BCD"/>
<path d="M120.585 103.303C119.463 103.303 118.554 102.394 118.554 101.272V99.8503C118.554 98.7287 119.463 97.8191 120.585 97.8191C121.707 97.8191 122.616 98.7287 122.616 99.8503V101.272C122.616 102.394 121.707 103.303 120.585 103.303Z" fill="#006BCD"/>
<path d="M126.78 103.303C125.659 103.303 124.749 102.394 124.749 101.272V99.8503C124.749 98.7287 125.659 97.8191 126.78 97.8191C127.902 97.8191 128.812 98.7287 128.812 99.8503V101.272C128.812 102.394 127.903 103.303 126.78 103.303Z" fill="#006BCD"/>
<path d="M132.976 103.303C131.854 103.303 130.945 102.394 130.945 101.272V99.8503C130.945 98.7287 131.854 97.8191 132.976 97.8191C134.097 97.8191 135.007 98.7287 135.007 99.8503V101.272C135.007 102.394 134.098 103.303 132.976 103.303Z" fill="#006BCD"/>
<path d="M139.171 103.303C138.049 103.303 137.14 102.394 137.14 101.272V99.8503C137.14 98.7287 138.049 97.8191 139.171 97.8191C140.293 97.8191 141.202 98.7287 141.202 99.8503V101.272C141.202 102.394 140.293 103.303 139.171 103.303Z" fill="#006BCD"/>
<path d="M145.366 103.303C144.245 103.303 143.335 102.394 143.335 101.272V99.8503C143.335 98.7287 144.245 97.8191 145.366 97.8191C146.488 97.8191 147.398 98.7287 147.398 99.8503V101.272C147.398 102.394 146.488 103.303 145.366 103.303Z" fill="#006BCD"/>
<path d="M91.591 144.597C93.5811 136.178 88.3695 127.74 79.9504 125.75C71.5314 123.76 63.0931 128.971 61.103 137.39C59.1129 145.809 64.3245 154.248 72.7436 156.238C81.1626 158.228 89.6009 153.016 91.591 144.597Z" fill="#006BCD"/>
<path d="M83.1122 138.581C83.1122 134.859 80.0844 131.832 76.3632 131.832C72.6415 131.832 69.6141 134.86 69.6141 138.581C69.6141 140.416 70.3527 142.081 71.5459 143.299C70.3531 144.517 69.6141 146.181 69.6141 148.016C69.6141 149.138 70.5237 150.048 71.6454 150.048C72.767 150.048 73.6766 149.138 73.6766 148.016C73.6766 146.535 74.882 145.33 76.3632 145.33C77.8444 145.33 79.0497 146.535 79.0497 148.016C79.0497 149.138 79.9593 150.048 81.081 150.048C82.2026 150.048 83.1122 149.138 83.1122 148.016C83.1122 146.181 82.3736 144.517 81.1805 143.299C82.3736 142.081 83.1122 140.416 83.1122 138.581ZM76.3632 135.894C77.8444 135.894 79.0497 137.1 79.0497 138.581C79.0497 140.062 77.8444 141.267 76.3632 141.267C74.882 141.267 73.6766 140.062 73.6766 138.581C73.6762 137.1 74.8816 135.894 76.3632 135.894Z" fill="#006BCD"/>
<path d="M145.273 149.202H101.999C100.877 149.202 99.968 148.293 99.968 147.171C99.968 146.049 100.877 145.14 101.999 145.14H145.273C146.395 145.14 147.304 146.049 147.304 147.171C147.304 148.293 146.395 149.202 145.273 149.202Z" fill="#006BCD"/>
<path d="M101.999 141.379C100.878 141.379 99.968 140.469 99.968 139.347V137.926C99.968 136.804 100.878 135.894 101.999 135.894C103.121 135.894 104.03 136.804 104.03 137.926V139.347C104.03 140.469 103.121 141.379 101.999 141.379Z" fill="#006BCD"/>
<path d="M108.195 141.379C107.073 141.379 106.163 140.469 106.163 139.347V137.926C106.163 136.804 107.073 135.894 108.195 135.894C109.316 135.894 110.226 136.804 110.226 137.926V139.347C110.226 140.469 109.317 141.379 108.195 141.379Z" fill="#006BCD"/>
<path d="M120.585 141.379C119.463 141.379 118.554 140.469 118.554 139.347V137.926C118.554 136.804 119.463 135.894 120.585 135.894C121.707 135.894 122.616 136.804 122.616 137.926V139.347C122.616 140.469 121.707 141.379 120.585 141.379Z" fill="#006BCD"/>
<path d="M126.78 141.379C125.659 141.379 124.749 140.469 124.749 139.347V137.926C124.749 136.804 125.659 135.894 126.78 135.894C127.902 135.894 128.812 136.804 128.812 137.926V139.347C128.812 140.469 127.903 141.379 126.78 141.379Z" fill="#006BCD"/>
<path d="M132.976 141.379C131.854 141.379 130.945 140.469 130.945 139.347V137.926C130.945 136.804 131.854 135.894 132.976 135.894C134.097 135.894 135.007 136.804 135.007 137.926V139.347C135.007 140.469 134.098 141.379 132.976 141.379Z" fill="#006BCD"/>
<path d="M139.171 141.379C138.049 141.379 137.14 140.469 137.14 139.347V137.926C137.14 136.804 138.049 135.894 139.171 135.894C140.293 135.894 141.202 136.804 141.202 137.926V139.347C141.202 140.469 140.293 141.379 139.171 141.379Z" fill="#006BCD"/>
<path d="M145.366 141.379C144.245 141.379 143.335 140.469 143.335 139.347V137.926C143.335 136.804 144.245 135.894 145.366 135.894C146.488 135.894 147.398 136.804 147.398 137.926V139.347C147.398 140.469 146.488 141.379 145.366 141.379Z" fill="#006BCD"/>
<path d="M104 167.759C103.48 167.759 102.96 167.56 102.564 167.164L100.194 164.794C99.4004 164.001 99.4004 162.715 100.193 161.922C100.987 161.128 102.273 161.128 103.066 161.922L104 162.855L104.934 161.922C105.727 161.129 107.013 161.128 107.807 161.922C108.6 162.715 108.6 164.001 107.806 164.794L105.436 167.164C105.04 167.56 104.52 167.759 104 167.759Z" fill="#006BCD"/>
<path d="M63.1593 193.917H144.841C152.681 193.917 159.06 187.539 159.06 179.699V89.0354C159.06 87.9137 158.151 87.0041 157.029 87.0041C155.907 87.0041 154.997 87.9137 154.997 89.0354V179.699C154.997 185.299 150.441 189.855 144.841 189.855H63.1593C57.5591 189.855 53.003 185.299 53.003 179.699V26.1682C53.003 20.5681 57.5591 16.012 63.1593 16.012H93.2356C94.3577 16.012 95.2669 15.1024 95.2669 13.9807C95.2669 12.8591 94.3577 11.9495 93.2356 11.9495H63.1593C55.3191 11.9495 48.9406 18.328 48.9406 26.1682V179.699C48.9406 187.539 55.3191 193.917 63.1593 193.917Z" fill="#006BCD"/>
<path d="M106.91 16.012H144.841C150.441 16.012 154.997 20.5681 154.997 26.1682V75.3606C154.997 76.4823 155.906 77.3919 157.028 77.3919C158.15 77.3919 159.059 76.4823 159.059 75.3606V26.1682C159.059 18.328 152.681 11.9495 144.841 11.9495H106.91C105.788 11.9495 104.879 12.8591 104.879 13.9807C104.879 15.1024 105.788 16.012 106.91 16.012Z" fill="#006BCD"/>
</g>
<defs>
<linearGradient id="paint0_linear" x1="6.34964" y1="104" x2="201.65" y2="104" gradientUnits="userSpaceOnUse">
<stop stop-color="#006BCD" stop-opacity="0.4"/>
<stop offset="1" stop-color="#006BCD"/>
</linearGradient>
<clipPath id="clip0">
<rect width="208" height="208" fill="white"/>
</clipPath>
</defs>
</svg>
