<svg width="141" height="151" viewBox="0 0 141 151" fill="none" xmlns="http://www.w3.org/2000/svg">
<path d="M91.2125 148.44C117.053 148.44 138.001 115.309 138.001 74.4397C138.001 33.5706 117.053 0.439696 91.2125 0.439695C87.0357 0.439695 82.987 1.3063 79.1341 2.93141C72.2761 5.82406 64.4655 6.54527 57.0161 5.11008C53.9614 4.52155 50.7943 4.19115 47.5465 4.14663C21.504 3.78964 0.000827286 22.0572 0.00116099 44.5524C0.00116025 61.446 12.0046 75.9165 29.0468 81.9527C38.4059 85.2677 45.4193 92.2332 47.4802 100.787C54.193 128.646 71.2402 148.44 91.2125 148.44V148.44Z" fill="url(#paint0_linear)"/>
<g opacity="0.1">
<path opacity="0.1" d="M110.684 133.278C113.309 132.636 115.709 131.284 117.624 129.368C119.539 127.454 120.891 125.053 121.534 122.428C121.759 121.509 121.197 120.582 120.278 120.357C119.358 120.131 118.432 120.695 118.207 121.613C117.713 123.63 116.674 125.475 115.203 126.947C113.73 128.419 111.886 129.458 109.869 129.951C108.95 130.176 108.388 131.103 108.613 132.022C108.805 132.804 109.504 133.327 110.275 133.327C110.41 133.328 110.547 133.312 110.684 133.278V133.278Z" fill="#006BCD"/>
<path opacity="0.1" d="M109.844 127.384C109.979 127.384 110.116 127.368 110.253 127.334C111.544 127.018 112.725 126.353 113.667 125.411C114.609 124.469 115.274 123.288 115.591 121.997C115.816 121.078 115.253 120.151 114.335 119.926C113.416 119.701 112.489 120.263 112.264 121.182C112.096 121.865 111.744 122.49 111.245 122.989C110.746 123.488 110.121 123.84 109.438 124.008C108.519 124.233 107.957 125.16 108.182 126.078C108.373 126.861 109.073 127.384 109.844 127.384V127.384Z" fill="#006BCD"/>
<path opacity="0.1" d="M126.182 121.161C125.263 120.935 124.337 121.498 124.112 122.417C123.315 125.668 121.641 128.641 119.269 131.013C116.897 133.385 113.924 135.06 110.673 135.856C109.754 136.081 109.192 137.008 109.417 137.927C109.608 138.709 110.308 139.232 111.079 139.232C111.214 139.232 111.351 139.216 111.488 139.182C115.347 138.237 118.875 136.249 121.69 133.434C124.505 130.619 126.493 127.091 127.438 123.232C127.663 122.313 127.101 121.386 126.182 121.161V121.161Z" fill="#006BCD"/>
</g>
<path opacity="0.1" d="M138.343 31.5775L122.998 16.2327C121.914 15.1487 120.156 15.1487 119.072 16.2327L82.0344 53.2696C80.9504 54.3539 80.9504 56.1117 82.0344 57.1957L88.5766 63.7378C88.3947 63.8204 88.2221 63.9313 88.0724 64.081L83.5582 68.5952C83.2329 68.9206 83.0688 69.3446 83.0599 69.771L73.9562 60.6673C70.6907 57.4019 66.094 56.2788 61.9127 57.2984L55.1877 50.5734C54.1037 49.489 52.3456 49.489 51.2616 50.5734L45.0452 56.7898L41.9698 53.7145C40.8858 52.6305 39.1277 52.6305 38.0437 53.7145L34.7067 57.0515C33.6227 58.1355 33.6227 59.8936 34.7067 60.9776L45.986 72.2569C44.3112 76.7817 45.288 82.0655 48.9233 85.7008L58.027 94.8045C57.6006 94.8131 57.1766 94.9772 56.8509 95.3025L52.3367 99.8167C52.187 99.9664 52.0761 100.139 51.9932 100.321L45.4514 93.7791C44.3673 92.6951 42.6093 92.6951 41.5253 93.7791L4.48837 130.816C3.40435 131.9 3.40435 133.658 4.48837 134.742L19.8332 150.087C20.9172 151.171 22.6753 151.171 23.7593 150.087L60.7965 113.049C61.8805 111.965 61.8805 110.207 60.7965 109.123L54.2547 102.581C54.4366 102.499 54.6092 102.388 54.7589 102.238L59.2731 97.724C59.5984 97.3987 59.7625 96.9746 59.7714 96.5482L75.0782 111.855C76.6297 113.407 79.1447 113.407 80.6963 111.855L84.8752 107.676C81.6892 114.677 82.3136 122.982 86.7435 129.471L86.4483 129.767C85.0752 131.14 85.0752 133.366 86.4483 134.74C87.8217 136.113 90.048 136.113 91.4214 134.74L122.996 103.165C124.369 101.792 124.369 99.5653 122.996 98.1919C121.623 96.8185 119.396 96.8185 118.023 98.1919L117.728 98.4871C111.238 94.0572 102.933 93.4332 95.9325 96.6188L100.111 92.4399C101.663 90.8884 101.663 88.373 100.111 86.8218L84.8046 71.515C85.231 71.5065 85.655 71.3421 85.9804 71.017L90.4946 66.5029C90.6443 66.3532 90.7552 66.1806 90.8381 65.9987L97.3799 72.5405C98.464 73.6245 100.222 73.6245 101.306 72.5405L138.343 35.5033C139.427 34.4196 139.427 32.6619 138.343 31.5775V31.5775Z" fill="#006BCD"/>
<path d="M66.966 53.1038L55.1551 64.9147L41.4139 51.1734L51.2619 41.3255C52.3459 40.2414 54.104 40.2414 55.188 41.3255L66.966 53.1038Z" fill="white"/>
<path d="M56.6925 59.1894L49.4294 66.4525L34.7066 51.7297C33.6225 50.6457 33.6225 48.888 34.7066 47.8036L38.0436 44.4666C39.1276 43.3826 40.8857 43.3826 41.9697 44.4666L56.6925 59.1894Z" fill="white"/>
<path d="M89.4043 123.44C80.6948 114.731 80.6948 100.611 89.4043 91.901C98.1138 83.1915 112.234 83.1915 120.944 91.901L89.4043 123.44Z" fill="white"/>
<path d="M100.111 83.1926L80.6959 102.607C79.1444 104.159 76.629 104.159 75.0778 102.607L48.9233 76.4528C43.9461 71.4756 43.9461 63.4058 48.9233 58.4286L55.9319 51.42C60.9092 46.4427 68.9789 46.4427 73.9562 51.42L100.111 77.5745C101.662 79.1257 101.662 81.641 100.111 83.1926Z" fill="#006BCD"/>
<path d="M66.0912 93.6208L75.0778 102.607C76.6293 104.159 79.1443 104.159 80.6958 102.607L100.111 83.1926C101.662 81.641 101.662 79.1257 100.111 77.5745L91.124 68.5879L66.0912 93.6208Z" fill="white"/>
<path d="M138.343 26.2561L101.305 63.2933C100.221 64.3773 98.4633 64.3773 97.3793 63.2933L82.0345 47.9485C80.9505 46.8644 80.9505 45.1064 82.0345 44.0224L119.072 6.98514C120.156 5.90111 121.913 5.90111 122.998 6.98514L138.343 22.3299C139.427 23.4143 139.427 25.172 138.343 26.2561Z" fill="white"/>
<path d="M96.4146 46.8848L93.4046 49.8947C92.8625 50.4369 91.9836 50.4369 91.4418 49.8947L88.4318 46.8848C87.8897 46.3426 87.8897 45.4638 88.4318 44.9219L91.4418 41.912C91.9839 41.3698 92.8628 41.3698 93.4046 41.912L96.4146 44.9219C96.9567 45.4638 96.9567 46.3426 96.4146 46.8848Z" fill="#006BCD"/>
<path d="M103.416 53.8863L100.406 56.8962C99.864 57.4384 98.9851 57.4384 98.4433 56.8962L95.4334 53.8863C94.8912 53.3441 94.8912 52.4652 95.4334 51.9234L98.4433 48.9135C98.9855 48.3713 99.8643 48.3713 100.406 48.9135L103.416 51.9234C103.958 52.4652 103.958 53.3441 103.416 53.8863Z" fill="#006BCD"/>
<path d="M103.547 39.7521L100.537 42.762C99.9948 43.3042 99.116 43.3042 98.5741 42.762L95.5642 39.7521C95.022 39.2099 95.022 38.3311 95.5642 37.7889L98.5741 34.779C99.1163 34.2368 99.9952 34.2368 100.537 34.779L103.547 37.7889C104.089 38.3311 104.089 39.2099 103.547 39.7521Z" fill="#006BCD"/>
<path d="M110.549 46.7532L107.539 49.7631C106.997 50.3053 106.118 50.3053 105.576 49.7631L102.566 46.7532C102.023 46.211 102.023 45.3322 102.566 44.7903L105.576 41.7804C106.118 41.2382 106.997 41.2382 107.539 41.7804L110.549 44.7903C111.091 45.3322 111.091 46.211 110.549 46.7532Z" fill="#006BCD"/>
<path d="M110.68 32.6199L107.67 35.6298C107.127 36.172 106.249 36.172 105.706 35.6298L102.696 32.6199C102.154 32.0777 102.154 31.1989 102.696 30.657L105.706 27.6471C106.249 27.1049 107.127 27.1049 107.67 27.6471L110.68 30.657C111.221 31.1992 111.221 32.0781 110.68 32.6199V32.6199Z" fill="#006BCD"/>
<path d="M117.681 39.6216L114.671 42.6315C114.129 43.1737 113.25 43.1737 112.708 42.6315L109.698 39.6216C109.156 39.0794 109.156 38.2006 109.698 37.6587L112.708 34.6488C113.25 34.1066 114.129 34.1066 114.671 34.6488L117.681 37.6587C118.223 38.2006 118.223 39.0794 117.681 39.6216Z" fill="#006BCD"/>
<path d="M117.812 25.4878L114.802 28.4978C114.259 29.0399 113.381 29.0399 112.839 28.4978L109.829 25.4878C109.287 24.9457 109.287 24.0668 109.829 23.525L112.839 20.515C113.381 19.9729 114.26 19.9729 114.802 20.515L117.812 23.525C118.354 24.0671 118.354 24.946 117.812 25.4878Z" fill="#006BCD"/>
<path d="M124.813 32.4893L121.803 35.4992C121.261 36.0414 120.382 36.0414 119.84 35.4992L116.83 32.4893C116.288 31.9471 116.288 31.0683 116.83 30.5264L119.84 27.5165C120.382 26.9743 121.261 26.9743 121.803 27.5165L124.813 30.5264C125.355 31.0686 125.355 31.9475 124.813 32.4893V32.4893Z" fill="#006BCD"/>
<path d="M124.944 18.3551L121.934 21.365C121.392 21.9072 120.513 21.9072 119.971 21.365L116.961 18.3551C116.419 17.8129 116.419 16.9341 116.961 16.3919L119.971 13.382C120.513 12.8398 121.392 12.8398 121.934 13.382L124.944 16.3919C125.486 16.9341 125.486 17.8129 124.944 18.3551Z" fill="#006BCD"/>
<path d="M131.945 25.3563L128.935 28.3662C128.393 28.9084 127.514 28.9084 126.972 28.3662L123.962 25.3563C123.42 24.8141 123.42 23.9352 123.962 23.3934L126.972 20.3834C127.514 19.8413 128.393 19.8413 128.935 20.3834L131.945 23.3934C132.488 23.9352 132.488 24.8141 131.945 25.3563Z" fill="#006BCD"/>
<path d="M60.7966 103.802L23.7594 140.839C22.6753 141.923 20.9173 141.923 19.8332 140.839L4.48843 125.494C3.40441 124.41 3.40441 122.652 4.48843 121.568L41.5257 84.5308C42.6097 83.4468 44.3677 83.4468 45.4518 84.5308L60.7966 99.8756C61.8806 100.96 61.8806 102.718 60.7966 103.802Z" fill="white"/>
<path d="M18.8684 124.43L15.8584 127.44C15.3163 127.982 14.4374 127.982 13.8956 127.44L10.8856 124.43C10.3435 123.888 10.3435 123.009 10.8856 122.467L13.8956 119.457C14.4377 118.915 15.3166 118.915 15.8584 119.457L18.8684 122.467C19.4105 123.009 19.4105 123.888 18.8684 124.43Z" fill="#006BCD"/>
<path d="M25.8701 131.432L22.8601 134.442C22.318 134.984 21.4391 134.984 20.8973 134.442L17.8873 131.432C17.3452 130.89 17.3452 130.011 17.8873 129.469L20.8973 126.459C21.4394 125.916 22.3183 125.916 22.8601 126.459L25.8701 129.469C26.4119 130.011 26.4119 130.89 25.8701 131.432Z" fill="#006BCD"/>
<path d="M26.0011 117.298L22.9912 120.308C22.449 120.85 21.5701 120.85 21.0283 120.308L18.0184 117.298C17.4762 116.756 17.4762 115.877 18.0184 115.335L21.0283 112.325C21.5705 111.783 22.4494 111.783 22.9912 112.325L26.0011 115.335C26.5429 115.877 26.5429 116.756 26.0011 117.298Z" fill="#006BCD"/>
<path d="M33.0027 124.3L29.9928 127.31C29.4506 127.852 28.5717 127.852 28.0299 127.31L25.02 124.3C24.4778 123.757 24.4778 122.879 25.02 122.337L28.0299 119.327C28.5721 118.785 29.4509 118.785 29.9928 119.327L33.0027 122.337C33.5449 122.879 33.5449 123.757 33.0027 124.3Z" fill="#006BCD"/>
<path d="M33.1332 110.166L30.1233 113.176C29.5812 113.718 28.7023 113.718 28.1605 113.176L25.1505 110.166C24.6084 109.623 24.6084 108.745 25.1505 108.202L28.1605 105.193C28.7026 104.65 29.5815 104.65 30.1233 105.193L33.1332 108.202C33.6754 108.745 33.6754 109.624 33.1332 110.166Z" fill="#006BCD"/>
<path d="M40.1347 117.167L37.1248 120.177C36.5826 120.719 35.7038 120.719 35.1616 120.177L32.1517 117.167C31.6095 116.625 31.6095 115.746 32.1517 115.204L35.1616 112.194C35.7038 111.652 36.5826 111.652 37.1248 112.194L40.1347 115.204C40.6769 115.746 40.6769 116.625 40.1347 117.167Z" fill="#006BCD"/>
<path d="M40.2655 103.033L37.2556 106.043C36.7134 106.585 35.8345 106.585 35.2923 106.043L32.2824 103.033C31.7402 102.491 31.7402 101.612 32.2824 101.07L35.2923 98.0604C35.8345 97.5183 36.7134 97.5183 37.2556 98.0604L40.2655 101.07C40.8077 101.612 40.8077 102.491 40.2655 103.033Z" fill="#006BCD"/>
<path d="M47.2668 110.035L44.2569 113.045C43.7148 113.587 42.8359 113.587 42.2941 113.045L39.2841 110.035C38.742 109.493 38.742 108.614 39.2841 108.072L42.2941 105.062C42.8362 104.519 43.7151 104.519 44.2569 105.062L47.2668 108.072C47.809 108.614 47.809 109.493 47.2668 110.035Z" fill="#006BCD"/>
<path d="M47.3978 95.9009L44.3879 98.9108C43.8457 99.453 42.9668 99.453 42.425 98.9108L39.4151 95.9009C38.8729 95.3587 38.8729 94.4799 39.4151 93.938L42.425 90.9281C42.9672 90.3859 43.846 90.3859 44.3879 90.9281L47.3978 93.938C47.94 94.4799 47.94 95.3587 47.3978 95.9009Z" fill="#006BCD"/>
<path d="M54.3993 102.902L51.3894 105.912C50.8472 106.454 49.9683 106.454 49.4265 105.912L46.4166 102.902C45.8744 102.36 45.8744 101.481 46.4166 100.939L49.4265 97.9296C49.9687 97.3874 50.8475 97.3874 51.3894 97.9296L54.3993 100.939C54.9415 101.481 54.9415 102.36 54.3993 102.902Z" fill="#006BCD"/>
<path d="M122.995 93.9173L91.4207 125.492C90.0472 126.865 87.821 126.865 86.4475 125.492C85.0745 124.119 85.0745 121.892 86.4475 120.519L118.022 88.9441C119.396 87.5707 121.622 87.5707 122.995 88.9441C124.369 90.3176 124.369 92.5442 122.995 93.9173Z" fill="white"/>
<path d="M62.8556 82.5123L61.5644 81.2211C59.9882 79.6449 59.9882 77.0802 61.5644 75.504L65.5497 71.5183C67.1259 69.9421 69.6906 69.9421 71.2668 71.5183L72.558 72.8096C74.1342 74.3858 74.1342 76.9504 72.558 78.5266L68.5723 82.5123C66.9965 84.0882 64.4318 84.0882 62.8556 82.5123ZM68.8449 73.9405C68.6042 73.6997 68.2127 73.6997 67.9719 73.9405L63.9862 77.9262C63.7454 78.167 63.7454 78.5585 63.9862 78.7993L65.2774 80.0905C65.5182 80.3313 65.9097 80.3313 66.1505 80.0905L70.1362 76.1048C70.377 75.864 70.377 75.4725 70.1362 75.2318L68.8449 73.9405Z" fill="#006BCD"/>
<path d="M69.8345 89.491C69.1659 88.8221 69.1659 87.7377 69.8345 87.0692L75.9043 80.9993L75.7968 80.8918C75.1279 80.2232 75.1279 79.1389 75.7968 78.4699C76.4654 77.801 77.5497 77.801 78.2186 78.4699L79.5373 79.7886C80.2058 80.4571 80.2058 81.5419 79.5373 82.2104L72.2567 89.491C71.5878 90.1599 70.5034 90.1599 69.8345 89.491V89.491Z" fill="#006BCD"/>
<path d="M57.4588 71.3559L52.7662 66.6633C52.0973 65.9944 52.0976 64.9103 52.7662 64.2414C53.4348 63.5725 54.5191 63.5725 55.188 64.2414L59.8807 68.9341C60.5496 69.603 60.5492 70.6873 59.8807 71.3559C59.2121 72.0245 58.1277 72.0245 57.4588 71.3559Z" fill="#006BCD"/>
<path d="M110.683 124.031C113.309 123.388 115.709 122.036 117.624 120.121C119.539 118.206 120.891 115.805 121.534 113.18C121.759 112.261 121.197 111.334 120.278 111.109C119.358 110.883 118.432 111.447 118.207 112.365C117.713 114.382 116.674 116.227 115.202 117.699C113.73 119.171 111.886 120.21 109.869 120.704C108.95 120.929 108.388 121.855 108.613 122.774C108.805 123.556 109.504 124.08 110.275 124.08C110.41 124.08 110.547 124.064 110.683 124.031V124.031Z" fill="#006BCD"/>
<path d="M109.844 118.136C109.979 118.136 110.116 118.12 110.253 118.087C111.544 117.771 112.725 117.105 113.667 116.163C114.609 115.221 115.274 114.04 115.591 112.749C115.816 111.83 115.253 110.903 114.335 110.678C113.416 110.453 112.489 111.015 112.264 111.934C112.096 112.617 111.744 113.242 111.245 113.741C110.746 114.24 110.121 114.593 109.438 114.76C108.519 114.985 107.957 115.912 108.182 116.831C108.373 117.613 109.073 118.136 109.844 118.136V118.136Z" fill="#006BCD"/>
<path d="M126.182 111.913C125.262 111.687 124.336 112.251 124.111 113.169C123.315 116.42 121.64 119.393 119.268 121.765C116.896 124.137 113.924 125.812 110.672 126.608C109.754 126.833 109.191 127.76 109.416 128.679C109.608 129.461 110.308 129.984 111.079 129.984C111.214 129.984 111.351 129.968 111.487 129.934C115.347 128.989 118.875 127.001 121.69 124.186C124.505 121.371 126.493 117.843 127.438 113.984C127.663 113.065 127.101 112.138 126.182 111.913V111.913Z" fill="#006BCD"/>
<path d="M139.553 21.1191L124.209 5.7743C122.458 4.02445 119.611 4.02445 117.861 5.7743L80.8237 42.8112C79.9757 43.6589 79.5088 44.7861 79.5088 45.9852C79.5088 47.1843 79.9757 48.3115 80.8234 49.1592L87.2847 55.6205L83.9319 58.9732L75.1673 50.2086C71.7203 46.762 66.9527 45.4269 62.4789 46.1951L56.3985 40.1147C54.6486 38.3648 51.801 38.3648 50.0505 40.1147L45.0452 45.12L43.1806 43.2554C41.4304 41.5056 38.5828 41.5056 36.8326 43.2554L33.4956 46.5928C32.6476 47.4405 32.1808 48.5677 32.1808 49.7668C32.1808 50.9659 32.6476 52.093 33.4953 52.9407L44.0358 63.4813C42.6549 68.3612 43.8779 73.83 47.7116 77.664L56.4762 86.4286L53.1231 89.7814L46.6618 83.3197C45.8138 82.472 44.6866 82.0052 43.4878 82.0052C42.2887 82.0052 41.1615 82.472 40.3138 83.3197L3.27764 120.357C2.4296 121.205 1.96277 122.332 1.96277 123.531C1.96277 124.73 2.4296 125.858 3.27729 126.705L18.6225 142.05C19.4975 142.926 20.647 143.363 21.7964 143.363C22.9459 143.363 24.0953 142.926 24.9704 142.05L46.2635 120.757C46.9324 120.088 46.9324 119.004 46.2635 118.336C45.5946 117.667 44.5105 117.667 43.8416 118.336L22.5489 139.629C22.1341 140.043 21.4591 140.043 21.0446 139.629L5.69947 124.283C5.49842 124.083 5.3878 123.816 5.3878 123.531C5.3878 123.247 5.49842 122.98 5.69947 122.779L42.7367 85.7419C43.1385 85.3401 43.8392 85.3401 44.241 85.7422L59.5861 101.087C59.7872 101.288 59.8975 101.555 59.8975 101.839C59.8975 102.123 59.7868 102.391 59.5858 102.591L52.0761 110.101C51.4072 110.77 51.4072 111.854 52.0761 112.523C52.745 113.191 53.829 113.191 54.4979 112.523L62.0076 105.013C62.8557 104.165 63.3222 103.038 63.3222 101.839C63.3222 100.64 62.8553 99.5129 62.0076 98.6652L55.546 92.2036L58.8991 88.8505L73.8671 103.818C74.9409 104.892 76.3688 105.483 77.8871 105.483C79.179 105.483 80.4031 105.052 81.4015 104.263C81.2429 105.382 81.1604 106.52 81.1604 107.671C81.1604 112.112 82.3646 116.366 84.608 120.07C84.0224 120.929 83.7055 121.942 83.7055 123.005C83.7055 124.402 84.2494 125.715 85.2372 126.703C86.2565 127.722 87.5957 128.231 88.9345 128.231C90.2737 128.231 91.6126 127.722 92.6318 126.703L124.207 95.1279C126.245 93.0893 126.245 89.7718 124.207 87.7332C123.219 86.7454 121.906 86.2015 120.509 86.2015C119.446 86.2015 118.433 86.5184 117.573 87.1044C113.869 84.8613 109.616 83.6564 105.174 83.6564C104.023 83.6564 102.886 83.7383 101.766 83.8975C102.556 82.8991 102.987 81.675 102.987 80.3831C102.987 78.8644 102.396 77.4369 101.322 76.3631L86.3541 61.3954L89.7069 58.0427L96.1682 64.504C97.0162 65.3517 98.1434 65.8185 99.3422 65.8185C100.541 65.8185 101.668 65.3517 102.516 64.504L139.553 27.4667C141.304 25.7169 141.304 22.869 139.553 21.1191V21.1191ZM52.4724 42.5365C52.8871 42.1217 53.5622 42.1217 53.9766 42.5365L58.7902 47.3501C57.3167 48.0412 55.9364 48.9934 54.7209 50.2086L52.4275 52.502L47.4674 47.5419L52.4724 42.5365ZM35.9178 50.5189C35.7168 50.3182 35.6061 50.051 35.6061 49.7668C35.6061 49.4825 35.7168 49.2157 35.9178 49.0146L39.2548 45.6773C39.462 45.4701 39.7343 45.3663 40.007 45.3663C40.2796 45.3663 40.5515 45.4701 40.7591 45.6773L50.0057 54.9238L47.7123 57.2172C46.833 58.0964 46.0908 59.0619 45.486 60.0867L35.9178 50.5189ZM114.981 89.5642L112.077 92.468C111.408 93.1369 111.408 94.2212 112.077 94.8898C112.746 95.5584 113.83 95.5584 114.499 94.8898L119.233 90.155C119.574 89.8143 120.027 89.6266 120.509 89.6266C120.991 89.6266 121.444 89.8143 121.784 90.155C122.487 90.8585 122.488 92.0032 121.784 92.7064L90.2097 124.281C89.5065 124.985 88.3622 124.985 87.6587 124.281C86.9552 123.578 86.9552 122.433 87.6587 121.73L106.264 103.124C106.933 102.455 106.933 101.371 106.264 100.702C105.596 100.034 104.512 100.034 103.843 100.702L87.0679 117.477C85.4496 114.5 84.5851 111.153 84.5851 107.671C84.5851 104.783 85.181 101.989 86.3045 99.4204L96.9238 88.8011C99.4918 87.6774 102.286 87.0814 105.174 87.0814C108.657 87.0818 112.004 87.9463 114.981 89.5642V89.5642ZM98.9 81.9816L79.4852 101.396C78.6043 102.278 77.1699 102.278 76.289 101.396L50.1344 75.2418C45.8329 70.9403 45.8329 63.9409 50.1344 59.6394L57.1431 52.6308C59.294 50.4798 62.1186 49.4047 64.9443 49.4047C67.7689 49.4047 70.5949 50.4805 72.7454 52.6308L98.9 78.7853C99.7813 79.6666 99.7813 81.1006 98.9 81.9816ZM137.132 25.0449L100.094 62.0825C99.6925 62.4842 98.9918 62.4842 98.59 62.0821L83.2452 46.7373C83.0442 46.5366 82.9335 46.2695 82.9335 45.9852C82.9335 45.7009 83.0442 45.4341 83.2452 45.233L120.282 8.19614C120.49 7.98892 120.762 7.88515 121.035 7.88515C121.307 7.88515 121.579 7.98892 121.787 8.19614L137.132 23.541C137.546 23.9557 137.546 24.6305 137.132 25.0449V25.0449Z" fill="#006BCD"/>
<path d="M89.5791 81.702C88.8923 81.0153 88.8927 79.9021 89.5791 79.2158L90.4494 78.3455C91.1357 77.6591 92.2489 77.6588 92.9356 78.3455C93.6223 79.0322 93.622 80.1453 92.9356 80.8317L92.0653 81.702C91.3789 82.3884 90.2658 82.3887 89.5791 81.702Z" fill="#006BCD"/>
<path d="M8.0525 75.8167C7.6141 75.8167 7.17604 75.6496 6.84141 75.3153L3.07389 71.5477C2.40498 70.8788 2.40498 69.7945 3.07389 69.1259L6.84141 65.3584C7.51032 64.6898 8.59434 64.6898 9.26325 65.3584L13.0308 69.1259C13.6997 69.7948 13.6997 70.8792 13.0308 71.5477L9.26325 75.3153C8.92897 75.6496 8.49091 75.8167 8.0525 75.8167ZM6.70681 70.3366L8.0525 71.682L9.3982 70.3363L8.0525 68.9909L6.70681 70.3366Z" fill="#006BCD"/>
<path d="M70.3929 34.2835C69.9544 34.2835 69.5164 34.1163 69.1818 33.782L65.4142 30.0145C64.7453 29.3456 64.7453 28.2612 65.4142 27.5927L69.1818 23.8252C69.8507 23.1566 70.9347 23.1566 71.6036 23.8252L75.3711 27.5927C76.0401 28.2616 76.0401 29.346 75.3711 30.0145L71.6036 33.782C71.2693 34.1163 70.8313 34.2835 70.3929 34.2835V34.2835ZM69.0472 28.8034L70.3929 30.1491L71.7385 28.8034L70.3929 27.4577L69.0472 28.8034Z" fill="#006BCD"/>
<path d="M93.4505 143.899C93.0121 143.899 92.574 143.732 92.2394 143.398L88.4718 139.63C87.8029 138.961 87.8029 137.877 88.4718 137.208L92.2394 133.441C92.9083 132.772 93.9923 132.772 94.6612 133.441L98.4288 137.208C99.0977 137.877 99.0977 138.961 98.4288 139.63L94.6612 143.398C94.3273 143.731 93.8889 143.899 93.4505 143.899ZM92.1051 138.419L93.4508 139.765L94.7965 138.419L93.4508 137.073L92.1051 138.419Z" fill="#006BCD"/>
<path d="M50.408 28.8315C47.9505 28.8315 45.9514 26.8323 45.9514 24.3749C45.9514 21.9174 47.9505 19.9182 50.408 19.9182C52.8654 19.9182 54.8646 21.9174 54.8646 24.3749C54.8643 26.8323 52.8651 28.8315 50.408 28.8315ZM50.408 23.3436C49.8391 23.3436 49.3764 23.8063 49.3764 24.3752C49.3764 24.9441 49.8391 25.4068 50.408 25.4068C50.9769 25.4068 51.4396 24.9441 51.4396 24.3752C51.4393 23.8063 50.9765 23.3436 50.408 23.3436Z" fill="#006BCD"/>
<path d="M123.508 76.1992C121.051 76.1992 119.052 74.2 119.052 71.7425C119.052 69.2851 121.051 67.2859 123.508 67.2859C125.966 67.2859 127.965 69.2851 127.965 71.7425C127.965 74.2 125.966 76.1992 123.508 76.1992ZM123.508 70.7113C122.94 70.7113 122.477 71.174 122.477 71.7429C122.477 72.3118 122.94 72.7745 123.508 72.7745C124.077 72.7745 124.54 72.3118 124.54 71.7429C124.54 71.174 124.077 70.7113 123.508 70.7113Z" fill="#006BCD"/>
<defs>
<linearGradient id="paint0_linear" x1="-18.7931" y1="125.553" x2="132.519" y2="7.82293" gradientUnits="userSpaceOnUse">
<stop stop-color="#006BCD"/>
<stop offset="1" stop-color="#B7C5FF"/>
</linearGradient>
</defs>
</svg>
