<svg width="155" height="155" viewBox="0 0 155 155" fill="none" xmlns="http://www.w3.org/2000/svg">
<path d="M124.47 46.9698C115.391 46.9698 108.03 39.6098 108.03 30.5305C108.03 13.6688 94.3614 0 77.5 0C60.6386 0 46.9698 13.6688 46.9698 30.5302C46.9698 39.6095 39.6098 46.9695 30.5305 46.9695C13.6688 46.9698 0 60.6386 0 77.5C0 94.3614 13.6688 108.03 30.5302 108.03C39.6095 108.03 46.9695 115.39 46.9695 124.47C46.9698 141.331 60.6386 155 77.5 155C94.3614 155 108.03 141.331 108.03 124.47C108.03 115.391 115.39 108.03 124.47 108.03C141.331 108.03 155 94.3614 155 77.5C155 60.6386 141.331 46.9698 124.47 46.9698Z" fill="url(#paint0_linear)"/>
<path d="M109.515 22.2004H108.607V21.2922C108.607 20.4561 107.93 19.7786 107.094 19.7786C106.257 19.7786 105.58 20.4561 105.58 21.2922V22.2004H104.672C103.835 22.2004 103.158 22.878 103.158 23.7141C103.158 24.5503 103.835 25.2278 104.672 25.2278H105.58V26.136C105.58 26.9721 106.257 27.6497 107.094 27.6497C107.93 27.6497 108.607 26.9721 108.607 26.136V25.2278H109.515C110.352 25.2278 111.029 24.5503 111.029 23.7141C111.029 22.878 110.352 22.2004 109.515 22.2004Z" fill="#006BCD"/>
<path d="M117.706 134.613H116.798V133.705C116.798 132.868 116.12 132.191 115.284 132.191C114.448 132.191 113.771 132.868 113.771 133.705V134.613H112.862C112.026 134.613 111.349 135.29 111.349 136.126C111.349 136.963 112.026 137.64 112.862 137.64H113.771V138.548C113.771 139.384 114.448 140.062 115.284 140.062C116.12 140.062 116.798 139.384 116.798 138.548V137.64H117.706C118.542 137.64 119.22 136.963 119.22 136.126C119.22 135.29 118.542 134.613 117.706 134.613Z" fill="#006BCD"/>
<path d="M117.706 19.0723C117.319 19.0723 116.931 18.9246 116.636 18.6288L115.284 17.2774L113.933 18.6288C113.342 19.22 112.383 19.22 111.792 18.6288C111.201 18.0379 111.201 17.0794 111.792 16.4885L114.214 14.0666C114.805 13.4754 115.764 13.4754 116.355 14.0666L118.776 16.4885C119.368 17.0794 119.368 18.0379 118.776 18.6288C118.481 18.9246 118.093 19.0723 117.706 19.0723Z" fill="#006BCD"/>
<path d="M42.6099 140.062C42.2227 140.062 41.8349 139.914 41.5397 139.618L40.188 138.267L38.8363 139.618C38.2457 140.21 37.2866 140.21 36.696 139.618C36.1048 139.027 36.1048 138.069 36.696 137.478L39.1179 135.056C39.7085 134.465 40.6676 134.465 41.2582 135.056L43.6801 137.478C44.2713 138.069 44.2713 139.027 43.6801 139.618C43.3849 139.914 42.9971 140.062 42.6099 140.062Z" fill="#006BCD"/>
<path d="M57.7212 137.64C57.3341 137.64 56.9462 137.492 56.6511 137.197L55.2994 135.845L53.9477 137.197C53.357 137.788 52.398 137.788 51.8073 137.197C51.2161 136.606 51.2161 135.647 51.8073 135.056L54.2292 132.634C54.8198 132.043 55.7789 132.043 56.3695 132.634L58.7914 135.056C59.3827 135.647 59.3827 136.606 58.7914 137.197C58.4963 137.492 58.1084 137.64 57.7212 137.64Z" fill="#006BCD"/>
<path opacity="0.1" d="M145.915 118.657V126.289C145.915 127.96 144.562 129.316 142.888 129.316H12.1124C10.4383 129.316 9.08508 127.96 9.08508 126.289V118.657C9.08508 116.986 10.4383 115.629 12.1124 115.629H53.2858C53.7251 115.629 54.1429 115.82 54.4302 116.153L58.3279 120.655H96.6722L100.57 116.153C100.857 115.82 101.275 115.629 101.714 115.629H142.888C144.562 115.629 145.915 116.986 145.915 118.657Z" fill="#006BCD"/>
<path d="M136.848 39.0226V114.624H18.152V39.0226C18.152 36.1436 20.483 33.8125 23.362 33.8125H131.638C134.517 33.8125 136.848 36.1436 136.848 39.0226Z" fill="#006BCD"/>
<path d="M145.915 110.483V118.115C145.915 119.786 144.562 121.142 142.888 121.142H12.1124C10.4383 121.142 9.08508 119.786 9.08508 118.115V110.483C9.08508 108.812 10.4383 107.456 12.1124 107.456H53.2858C53.7251 107.456 54.1429 107.646 54.4302 107.979L58.3279 112.481H96.6722L100.57 107.979C100.857 107.647 101.275 107.456 101.714 107.456H142.888C144.562 107.456 145.915 108.812 145.915 110.483Z" fill="white"/>
<path d="M128.307 100.198H26.6927C25.8569 100.198 25.1791 99.5201 25.1791 98.6843V42.8503C25.1791 42.0145 25.8569 41.3367 26.6927 41.3367H128.307C129.143 41.3367 129.821 42.0145 129.821 42.8503V98.6843C129.821 99.5201 129.144 100.198 128.307 100.198Z" fill="white"/>
<path d="M129.822 77.8027V98.6854C129.822 99.5209 129.144 100.199 128.308 100.199H26.6921C25.8566 100.199 25.1785 99.5209 25.1785 98.6854V77.8027H129.822Z" fill="white"/>
<path d="M46.0094 74.3538H33.7426C32.9064 74.3538 32.2289 73.6759 32.2289 72.8401C32.2289 72.0042 32.9064 71.3264 33.7426 71.3264H46.0094C46.8455 71.3264 47.523 72.0042 47.523 72.8401C47.523 73.6759 46.8452 74.3538 46.0094 74.3538Z" fill="#006BCD"/>
<path d="M54.1832 84.7236H33.7426C32.9064 84.7236 32.2289 84.0458 32.2289 83.21C32.2289 82.3741 32.9064 81.6963 33.7426 81.6963H54.1832C55.0193 81.6963 55.6969 82.3741 55.6969 83.21C55.6969 84.0458 55.019 84.7236 54.1832 84.7236Z" fill="#006BCD"/>
<path d="M54.1832 90.0222H33.7426C32.9064 90.0222 32.2289 89.3444 32.2289 88.5085C32.2289 87.6727 32.9064 86.9949 33.7426 86.9949H54.1832C55.0193 86.9949 55.6969 87.6727 55.6969 88.5085C55.6969 89.3444 55.019 90.0222 54.1832 90.0222Z" fill="#006BCD"/>
<path d="M34.2109 68.8892C35.0469 68.8892 35.7246 68.2115 35.7246 67.3755C35.7246 66.5395 35.0469 65.8618 34.2109 65.8618C33.375 65.8618 32.6973 66.5395 32.6973 67.3755C32.6973 68.2115 33.375 68.8892 34.2109 68.8892Z" fill="#006BCD"/>
<path d="M39.1304 68.8892C39.9664 68.8892 40.6441 68.2115 40.6441 67.3755C40.6441 66.5395 39.9664 65.8618 39.1304 65.8618C38.2944 65.8618 37.6167 66.5395 37.6167 67.3755C37.6167 68.2115 38.2944 68.8892 39.1304 68.8892Z" fill="#006BCD"/>
<path d="M77.191 15.8894C65.1942 16.0565 55.5427 26.0921 55.824 38.0868C55.939 42.9944 57.6846 47.4982 60.5403 51.078C64.8185 56.4415 67.3464 62.9736 67.6657 69.797H87.3341C87.6538 62.9718 90.1853 56.4394 94.4635 51.0731C97.417 47.3686 99.1819 42.675 99.1819 37.5691C99.1822 25.4918 89.3073 15.7207 77.191 15.8894Z" fill="white"/>
<path d="M73.6023 71.3117C72.7662 71.3117 72.0887 70.6342 72.0887 69.7981V55.2717L70.3374 53.52C69.7461 52.9291 69.7461 51.9706 70.3374 51.3797C70.928 50.7885 71.8871 50.7885 72.4777 51.3797L74.6725 53.5745C74.9565 53.8585 75.116 54.2433 75.116 54.6447V69.7984C75.116 70.6339 74.4385 71.3117 73.6023 71.3117Z" fill="#006BCD"/>
<path d="M81.3977 71.3111C80.5616 71.3111 79.884 70.6335 79.884 69.7974V54.6437C79.884 54.2423 80.0433 53.8572 80.3275 53.5736L82.5224 51.3787C83.113 50.7875 84.0721 50.7875 84.6627 51.3787C85.2539 51.9697 85.2539 52.9281 84.6627 53.5191L82.9114 55.2707V69.7971C82.9114 70.6332 82.2339 71.3111 81.3977 71.3111Z" fill="#006BCD"/>
<path d="M88.4069 87.6753H66.5934C65.7575 87.6753 65.0797 86.9975 65.0797 86.1617V71.311C65.0797 70.4752 65.7575 69.7974 66.5934 69.7974H88.4069C89.2428 69.7974 89.9206 70.4752 89.9206 71.311V86.1617C89.9206 86.9978 89.2428 87.6753 88.4069 87.6753Z" fill="white"/>
<path d="M86.5485 87.6753C86.5485 92.6725 82.4973 96.7237 77.5001 96.7237C72.5029 96.7237 68.4517 92.6725 68.4517 87.6753H86.5485Z" fill="white"/>
<path d="M140.417 85.5096H108.607C107.771 85.5096 107.094 84.8318 107.094 83.9959V55.5979C107.094 54.7621 107.771 54.0842 108.607 54.0842H140.417C141.253 54.0842 141.93 54.7621 141.93 55.5979V83.9959C141.93 84.8321 141.253 85.5096 140.417 85.5096Z" fill="#006BCD"/>
<path d="M141.93 62.7687V55.5984C141.93 54.7625 141.253 54.0847 140.417 54.0847H108.607C107.771 54.0847 107.094 54.7625 107.094 55.5984V62.7687H141.93Z" fill="white"/>
<path d="M142.888 105.942H138.363V87.0234H140.417C142.086 87.0234 143.444 85.6653 143.444 83.9961V55.5981C143.444 53.9288 142.086 52.5707 140.417 52.5707H138.363V39.0221C138.363 35.3146 135.347 32.2984 131.639 32.2984H100.092C99.1134 28.0638 96.9616 24.1836 93.7868 21.053C89.3324 16.6598 83.4445 14.2806 77.17 14.3759C70.9661 14.4622 65.16 16.9903 60.8212 21.4944C57.865 24.5632 55.8524 28.2796 54.9124 32.2984H23.3608C19.6532 32.2984 16.6371 35.3146 16.6371 39.0221V90.124C16.6371 90.9602 17.3146 91.6377 18.1508 91.6377C18.9869 91.6377 19.6644 90.9602 19.6644 90.124V39.0221C19.6644 36.9841 21.3228 35.3258 23.3608 35.3258H54.4189C54.3296 36.2488 54.2885 37.1812 54.3106 38.1221C54.4305 43.2265 56.1751 48.0327 59.3565 52.0219C63.1722 56.8048 65.4624 62.4168 66.0388 68.3365C64.6338 68.5981 63.5658 69.8311 63.5658 71.3106V73.8106C62.9291 73.9895 62.4599 74.5677 62.4599 75.2616C62.4599 75.9554 62.9294 76.5337 63.5658 76.7126V80.1861C62.9291 80.3651 62.4599 80.9433 62.4599 81.6371C62.4599 82.331 62.9294 82.9092 63.5658 83.0882V86.1612C63.5658 87.8305 64.9238 89.1886 66.5931 89.1886H67.0478C67.7847 94.2981 72.1904 98.2373 77.5 98.2373C82.8097 98.2373 87.2154 94.2981 87.9519 89.1889H88.4066C90.0759 89.1889 91.434 87.8308 91.434 86.1615V83.0885C92.0706 82.9095 92.5399 82.3313 92.5399 81.6375C92.5399 80.9436 92.0703 80.3654 91.434 80.1864V76.7129C92.0706 76.534 92.5399 75.9557 92.5399 75.2619C92.5399 74.568 92.0703 73.9898 91.434 73.8109V71.3109C91.434 69.8314 90.3659 68.5984 88.9612 68.3368C89.538 62.4199 91.8297 56.8057 95.6468 52.0173C98.95 47.8741 100.696 42.8784 100.696 37.5693C100.696 36.8152 100.658 36.0668 100.588 35.3261H131.639C133.677 35.3261 135.336 36.9844 135.336 39.0224V52.571H108.607C106.938 52.571 105.58 53.9291 105.58 55.5984V83.9964C105.58 85.6656 106.938 87.0237 108.607 87.0237H121.81C122.646 87.0237 123.324 86.3462 123.324 85.51C123.324 84.6739 122.646 83.9964 121.81 83.9964H108.607V55.5984H140.417V83.9964H131.074C130.238 83.9964 129.56 84.6739 129.56 85.51C129.56 86.3462 130.238 87.0237 131.074 87.0237H135.336V105.942H101.714C100.835 105.942 100 106.324 99.425 106.988L95.9801 110.968H59.0193L55.5745 106.988C54.9993 106.324 54.1647 105.942 53.2852 105.942H19.6644V99.3877C19.6644 98.5515 18.9869 97.874 18.1508 97.874C17.3146 97.874 16.6371 98.5515 16.6371 99.3877V105.942H12.1124C9.60851 105.942 7.57141 107.979 7.57141 110.483V118.115C7.57141 120.619 9.60851 122.656 12.1124 122.656H142.888C145.392 122.656 147.429 120.619 147.429 118.115V110.483C147.429 107.979 145.392 105.942 142.888 105.942ZM88.4066 71.3109L88.4069 73.7482H66.5931V71.3109H67.6657H87.334H88.4066ZM88.4075 76.7752L88.4078 80.1238H66.5931V76.7752H88.4075ZM77.5 95.2099C73.8636 95.2099 70.8208 92.6207 70.1181 89.1889H84.8819C84.1793 92.6207 81.1365 95.2099 77.5 95.2099ZM86.5485 86.1615H68.4519H66.5934V83.1511H88.4084L88.4088 86.1615H86.5485ZM93.2797 50.1298C89.043 55.4449 86.5145 61.6939 85.9209 68.2835H69.0792C68.4858 61.6912 65.9586 55.444 61.7233 50.1343C58.9578 46.6671 57.4408 42.4891 57.3373 38.0516C57.2105 32.652 59.2224 27.5179 63.0015 23.5948C66.7754 19.6771 71.8222 17.478 77.2118 17.403C82.6571 17.3358 87.7875 19.3892 91.6607 23.2088C95.5348 27.029 97.6685 32.1292 97.6685 37.5696C97.6685 42.1851 96.1509 46.5284 93.2797 50.1298ZM144.401 118.115C144.401 118.949 143.722 119.629 142.888 119.629H12.1124C11.2778 119.629 10.5988 118.949 10.5988 118.115V110.483C10.5988 109.648 11.2778 108.969 12.1124 108.969H53.2861L57.1835 113.471C57.4708 113.804 57.8886 113.995 58.3279 113.995H96.6722C97.1115 113.995 97.5292 113.804 97.8165 113.471L101.714 108.969H142.888C143.722 108.969 144.401 109.648 144.401 110.483V118.115Z" fill="#006BCD"/>
<path d="M120.451 69.2949V76.6565C120.451 77.3576 121.212 77.7942 121.818 77.4409L128.122 73.7599C128.722 73.4094 128.722 72.5417 128.122 72.1912L121.818 68.5102C121.212 68.1572 120.451 68.5941 120.451 69.2949Z" fill="white"/>
<path d="M112.963 60.397C113.548 60.397 114.023 59.9226 114.023 59.3374C114.023 58.7522 113.548 58.2778 112.963 58.2778C112.378 58.2778 111.904 58.7522 111.904 59.3374C111.904 59.9226 112.378 60.397 112.963 60.397Z" fill="#006BCD"/>
<path d="M116.344 60.397C116.929 60.397 117.403 59.9226 117.403 59.3374C117.403 58.7522 116.929 58.2778 116.344 58.2778C115.759 58.2778 115.284 58.7522 115.284 59.3374C115.284 59.9226 115.759 60.397 116.344 60.397Z" fill="#006BCD"/>
<path d="M119.724 60.397C120.309 60.397 120.784 59.9226 120.784 59.3374C120.784 58.7522 120.309 58.2778 119.724 58.2778C119.139 58.2778 118.665 58.7522 118.665 59.3374C118.665 59.9226 119.139 60.397 119.724 60.397Z" fill="#006BCD"/>
<defs>
<linearGradient id="paint0_linear" x1="176.52" y1="-13.0836" x2="-11.2082" y2="224.193" gradientUnits="userSpaceOnUse">
<stop stop-color="#006BCD"/>
<stop offset="1" stop-color="#B7C5FF"/>
</linearGradient>
</defs>
</svg>
