<svg width="234" height="198" viewBox="0 0 234 198" fill="none" xmlns="http://www.w3.org/2000/svg">
<path d="M167.961 7.76491C136.544 -4.94127 92.7905 -0.748216 68.3902 21.024C51.1615 36.3967 64.3082 40.984 75.6094 69.6007C83.7885 90.3124 0.427279 86.5255 0.0032677 123.778C-0.486996 166.845 60.0055 159.368 82.3629 164.553C116.546 172.481 146.121 201.017 182.778 197.717C214.691 194.844 227.127 169.969 231.886 141.344C240.753 88.0146 221.136 29.2716 167.961 7.76491Z" fill="url(#paint0_linear)"/>
<path opacity="0.1" d="M217.265 163.782V49.1663C217.265 46.6427 215.219 44.5972 212.696 44.5972H111.07C107.818 44.5972 104.811 46.3252 103.174 49.1352L97.1955 59.396H60.0059C49.3736 59.396 40.1486 66.734 37.7544 77.0966L17.7281 163.782H16.6722C14.1487 163.782 12.1031 165.828 12.1031 168.351V177.097C12.1031 179.621 14.1487 181.666 16.6722 181.666H31.4705C33.7277 189.169 40.6864 194.636 48.9249 194.636C57.1634 194.636 64.1222 189.17 66.3793 181.666H174.181C176.439 189.169 183.397 194.636 191.636 194.636C199.874 194.636 206.833 189.17 209.09 181.666H217.265C219.789 181.666 221.834 179.621 221.834 177.097V168.351C221.834 165.828 219.788 163.782 217.265 163.782Z" fill="#006BCD"/>
<path d="M103.174 37.7128L97.1955 47.9736H60.0059C49.3736 47.9736 40.1486 55.3116 37.7544 65.6743L16.6727 156.928H217.265V37.7439C217.265 35.2204 215.219 33.1748 212.696 33.1748H111.07C107.818 33.1748 104.811 34.9028 103.174 37.7128Z" fill="white"/>
<path d="M32.3291 118.349H25.5851L22.6778 130.934H32.3291C35.8043 130.934 38.6216 128.117 38.6216 124.642C38.6212 121.166 35.8043 118.349 32.3291 118.349Z" fill="#006BCD"/>
<path d="M97.1954 47.9738H110.699C112.188 47.9738 113.395 46.7671 113.395 45.278C113.395 43.7894 112.188 42.5823 110.699 42.5823H100.337L97.1954 47.9738Z" fill="#006BCD"/>
<path d="M217.265 90.1739H212.535C210.011 90.1739 207.966 88.1283 207.966 85.6048V53.0574C207.966 50.5339 210.011 48.4883 212.535 48.4883H217.265V90.1739Z" fill="#006BCD"/>
<path d="M207.966 78.939V85.6053C207.966 88.1288 210.011 90.1743 212.535 90.1743H217.265V78.939H207.966Z" fill="#006BCD"/>
<path d="M139.814 115.81H217.265V97.0288H153.094L139.814 115.81Z" fill="#006BCD"/>
<path d="M145.974 97.0276L132.696 115.811H119.281L132.559 97.0276H145.974Z" fill="#006BCD"/>
<path d="M125.661 97.0276L112.384 115.811H103.538L116.816 97.0276H125.661Z" fill="#006BCD"/>
<path d="M82.9179 95.7253H88.1422V152.36H82.9179V95.7253Z" fill="#006BCD"/>
<path d="M38.9633 61.9475C38.4607 63.1378 38.0518 64.3815 37.7543 65.6745L29.7584 100.295H83.5731C86.0967 100.295 88.1422 98.2489 88.1422 95.7254V66.5166C88.1422 63.9931 86.0967 61.9475 83.5731 61.9475H38.9633Z" fill="#006BCD"/>
<path d="M217.265 133.813V156.928H16.6727L22.0139 133.813H217.265Z" fill="white"/>
<path d="M82.9199 133.813H88.1423V152.359H82.9199V133.813Z" fill="#006BCD"/>
<path d="M217.265 170.243H16.6722C14.1487 170.243 12.1031 168.198 12.1031 165.674V156.929C12.1031 154.405 14.1487 152.36 16.6722 152.36H217.265C219.788 152.36 221.834 154.405 221.834 156.929V165.674C221.834 168.198 219.788 170.243 217.265 170.243Z" fill="white"/>
<path d="M48.925 183.214C58.9917 183.214 67.1524 175.053 67.1524 164.986C67.1524 154.92 58.9917 146.759 48.925 146.759C38.8582 146.759 30.6975 154.92 30.6975 164.986C30.6975 175.053 38.8582 183.214 48.925 183.214Z" fill="#006BCD"/>
<path d="M48.925 173.241C53.4838 173.241 57.1795 169.545 57.1795 164.986C57.1795 160.427 53.4838 156.732 48.925 156.732C44.3661 156.732 40.6705 160.427 40.6705 164.986C40.6705 169.545 44.3661 173.241 48.925 173.241Z" fill="white"/>
<path d="M191.636 183.214C201.703 183.214 209.863 175.053 209.863 164.986C209.863 154.92 201.703 146.759 191.636 146.759C181.569 146.759 173.409 154.92 173.409 164.986C173.409 175.053 181.569 183.214 191.636 183.214Z" fill="#006BCD"/>
<path d="M219.549 150.475V109.908C219.549 108.646 218.527 107.624 217.265 107.624C216.003 107.624 214.98 108.646 214.98 109.908V150.075H205.699C202.024 146.607 197.076 144.474 191.636 144.474C186.196 144.474 181.248 146.607 177.572 150.075H62.9886C59.3132 146.607 54.3649 144.474 48.9249 144.474C43.485 144.474 38.5366 146.607 34.8613 150.075H20.6002L39.98 66.1884C42.1471 56.8085 50.382 50.2578 60.0059 50.2578H97.1955C98.0084 50.2578 98.76 49.8261 99.1694 49.1233L105.148 38.863C106.371 36.7635 108.64 35.4595 111.07 35.4595H212.696C213.955 35.4595 214.98 36.4843 214.98 37.744V96.5427C214.98 97.8047 216.003 98.8273 217.265 98.8273C218.527 98.8273 219.549 97.8047 219.549 96.5427V37.744C219.549 33.9649 216.475 30.8904 212.696 30.8904H111.07C107.02 30.8904 103.238 33.0639 101.199 36.5629L95.8824 45.6892H60.0059C48.2428 45.6892 38.1775 53.6956 35.5284 65.1604L15.9005 150.122C12.4837 150.507 9.81854 153.411 9.81854 156.929V165.674C9.81854 169.454 12.8931 172.528 16.6722 172.528H29.8558C32.8678 180.116 40.2775 185.498 48.9254 185.498C60.2357 185.498 69.4374 176.297 69.4374 164.986C69.4374 161.216 68.4103 157.683 66.6283 154.644H173.933C172.151 157.683 171.124 161.216 171.124 164.986C171.124 165.996 171.201 166.988 171.342 167.959H79.5853C78.3238 167.959 77.3008 168.982 77.3008 170.243C77.3008 171.505 78.3238 172.528 79.5853 172.528H172.567C175.579 180.116 182.988 185.498 191.636 185.498C200.284 185.498 207.693 180.116 210.705 172.528H217.265C221.044 172.528 224.119 169.454 224.119 165.674V156.929C224.119 153.951 222.207 151.419 219.549 150.475ZM16.6722 167.959C15.4125 167.959 14.3876 166.934 14.3876 165.674V156.929C14.3876 155.669 15.4125 154.644 16.6722 154.644H31.222C29.44 157.683 28.4129 161.216 28.4129 164.986C28.4129 165.996 28.4892 166.988 28.6309 167.959H16.6722ZM48.9254 180.929C40.1345 180.929 32.9825 173.778 32.9825 164.986C32.9825 156.195 40.1345 149.043 48.9254 149.043C57.7163 149.043 64.8683 156.195 64.8683 164.986C64.8683 173.777 57.7163 180.929 48.9254 180.929ZM191.636 180.929C182.845 180.929 175.693 173.778 175.693 164.986C175.693 156.195 182.844 149.043 191.636 149.043C200.427 149.043 207.579 156.195 207.579 164.986C207.579 173.777 200.427 180.929 191.636 180.929ZM219.55 165.674C219.55 166.934 218.525 167.959 217.265 167.959H211.93C212.072 166.988 212.148 165.996 212.148 164.986C212.148 161.216 211.121 157.683 209.339 154.644H217.265C218.524 154.644 219.549 155.669 219.549 156.929V165.674H219.55Z" fill="#006BCD"/>
<path d="M191.636 173.241C196.195 173.241 199.89 169.545 199.89 164.986C199.89 160.427 196.195 156.732 191.636 156.732C187.077 156.732 183.381 160.427 183.381 164.986C183.381 169.545 187.077 173.241 191.636 173.241Z" fill="white"/>
<path d="M68.6446 107.696C68.6446 106.213 69.8472 105.01 71.3308 105.01H75.8999C77.3834 105.01 78.586 106.213 78.586 107.696C78.586 109.18 77.3834 110.382 75.8999 110.382H71.3308C69.8472 110.382 68.6446 109.179 68.6446 107.696Z" fill="#006BCD"/>
<path d="M185.316 51.9544C185.316 52.3392 185.383 52.7234 185.511 53.0912H149.439C147.525 53.0912 145.973 54.6429 145.973 56.5573C145.973 58.4718 147.525 60.0234 149.439 60.0234H185.511C185.09 61.2384 185.361 62.6406 186.331 63.6102C187.684 64.964 189.879 64.964 191.232 63.6102L195.832 59.0105C197.174 57.7197 197.174 55.3959 195.832 54.1047L191.232 49.5045C189.879 48.1507 187.684 48.1507 186.331 49.5036C185.654 50.1798 185.316 51.0676 185.316 51.9544Z" fill="#006BCD"/>
<path d="M157.302 70.1248H193.373C195.287 70.1248 196.839 71.6765 196.839 73.5909C196.839 75.5054 195.287 77.057 193.373 77.057H157.302C157.429 77.4244 157.497 77.8082 157.497 78.1929C157.497 79.0798 157.158 79.9671 156.482 80.6433C155.128 81.9971 152.933 81.9971 151.58 80.6433L146.981 76.044C145.638 74.7533 145.638 72.429 146.98 71.1378L151.58 66.5381C152.933 65.1843 155.128 65.1843 156.482 66.5381C157.452 67.5081 157.723 68.9099 157.302 70.1248Z" fill="#006BCD"/>
<path d="M132.367 87.5849H109.869C108.607 87.5849 107.584 86.5619 107.584 85.3004V55.08C107.584 53.8184 108.607 52.7954 109.869 52.7954H132.367C133.629 52.7954 134.652 53.8184 134.652 55.08V85.3004C134.652 86.5619 133.629 87.5849 132.367 87.5849Z" fill="#006BCD"/>
<path d="M138.633 63.9976H116.435C115.174 63.9976 114.151 62.9745 114.151 61.713C114.151 60.4515 115.174 59.4285 116.435 59.4285H138.633C139.895 59.4285 140.918 60.4515 140.918 61.713C140.918 62.9745 139.895 63.9976 138.633 63.9976Z" fill="#006BCD"/>
<path d="M124.926 73.283H116.435C115.174 73.283 114.151 72.2599 114.151 70.9984C114.151 69.7369 115.174 68.7139 116.435 68.7139H124.926C126.188 68.7139 127.211 69.7369 127.211 70.9984C127.211 72.2599 126.188 73.283 124.926 73.283Z" fill="#006BCD"/>
<path d="M124.926 81.197H116.435C115.174 81.197 114.151 80.174 114.151 78.9125C114.151 77.6509 115.174 76.6279 116.435 76.6279H124.926C126.188 76.6279 127.211 77.6509 127.211 78.9125C127.211 80.1744 126.188 81.197 124.926 81.197Z" fill="#006BCD"/>
<path d="M85.2043 39.4038C83.5078 39.4038 81.8113 38.7582 80.5196 37.4665C77.9367 34.8836 77.9367 30.6805 80.5196 28.0976C83.1025 25.5138 87.3061 25.5142 89.889 28.0976C92.4719 30.6805 92.4719 34.8836 89.889 37.4665C88.5978 38.7582 86.9008 39.4038 85.2043 39.4038ZM85.2043 30.7271C84.6775 30.7271 84.1512 30.9272 83.7504 31.328C82.949 32.1298 82.949 33.4338 83.7504 34.2357C84.5514 35.0371 85.8563 35.0371 86.6582 34.2357C87.4596 33.4338 87.4596 32.1298 86.6582 31.328C86.2575 30.9272 85.7311 30.7271 85.2043 30.7271Z" fill="#006BCD"/>
<path d="M123.85 192.12C122.153 192.12 120.457 191.475 119.165 190.183C116.582 187.6 116.582 183.396 119.165 180.813C121.748 178.23 125.952 178.231 128.534 180.813C131.118 183.396 131.118 187.599 128.534 190.183C127.243 191.475 125.547 192.12 123.85 192.12ZM123.85 183.443C123.324 183.443 122.797 183.644 122.396 184.044C121.594 184.846 121.594 186.15 122.396 186.952C123.198 187.754 124.501 187.753 125.303 186.952C126.105 186.15 126.105 184.846 125.303 184.044C124.903 183.643 124.376 183.443 123.85 183.443Z" fill="#006BCD"/>
<path d="M156.556 196.921C155.971 196.921 155.386 196.698 154.94 196.252L152.215 193.526L149.49 196.252C148.598 197.144 147.151 197.144 146.259 196.252C145.367 195.36 145.367 193.913 146.259 193.021L150.6 188.68C151.491 187.788 152.939 187.788 153.83 188.68L158.171 193.021C159.063 193.913 159.063 195.36 158.171 196.252C157.725 196.698 157.14 196.921 156.556 196.921Z" fill="#006BCD"/>
<path d="M205.52 22.8027C204.936 22.8027 204.351 22.5797 203.905 22.1333L201.18 19.4083L198.454 22.1333C197.563 23.0257 196.115 23.0257 195.224 22.1333C194.332 21.2414 194.332 19.7948 195.224 18.903L199.565 14.5623C200.456 13.67 201.904 13.67 202.795 14.5623L207.136 18.903C208.028 19.7948 208.028 21.2414 207.136 22.1333C206.69 22.5797 206.105 22.8027 205.52 22.8027Z" fill="#006BCD"/>
<path d="M73.8393 12.7199C73.3328 13.0123 72.7152 13.1114 72.1054 12.948L68.383 11.9506L67.3856 15.6731C67.0589 16.892 65.8066 17.6151 64.5876 17.2885C63.3689 16.9622 62.6456 15.7095 62.9724 14.4909L64.5612 8.56146C64.8878 7.3425 66.1402 6.61944 67.3592 6.94606L73.2886 8.53485C74.5073 8.86107 75.2306 10.1138 74.9038 11.3324C74.7405 11.9416 74.3458 12.4275 73.8393 12.7199Z" fill="#006BCD"/>
<path d="M22.0139 131.529H216.267V136.098H22.0139V131.529Z" fill="#006BCD"/>
<defs>
<linearGradient id="paint0_linear" x1="98.5622" y1="29.9108" x2="138.465" y2="213.893" gradientUnits="userSpaceOnUse">
<stop stop-color="#006BCD"/>
<stop offset="1" stop-color="#B7C5FF"/>
</linearGradient>
</defs>
</svg>
