<svg width="22" height="22" viewBox="0 0 22 22" fill="none" xmlns="http://www.w3.org/2000/svg">
<rect x="1" y="1" width="20" height="20" rx="4" fill="white"/>
<path fill-rule="evenodd" clip-rule="evenodd" d="M4 0C1.79086 0 0 1.79086 0 4V18C0 20.2091 1.79086 22 4 22H18C20.2091 22 22 20.2091 22 18V4C22 1.79086 20.2091 0 18 0H4ZM11 20C15.9706 20 20 15.9706 20 11C20 6.02944 15.9706 2 11 2C6.02944 2 2 6.02944 2 11C2 15.9706 6.02944 20 11 20Z" fill="#006BCD"/>
<path d="M6.27656 5.60019C8.97536 3.23472 13.0246 3.23472 15.7235 5.60019L16.4011 4.92252C13.3267 2.18525 8.67326 2.18525 5.59888 4.92252L6.27656 5.60019Z" fill="#006BCD"/>
<path d="M5.60019 6.27656L4.92252 5.59888C2.18525 8.67326 2.18525 13.3267 4.92252 16.4011L5.60019 15.7235C3.23472 13.0246 3.23472 8.97536 5.60019 6.27656Z" fill="#006BCD"/>
<path d="M6.27656 16.3998L5.59888 17.0775C8.67326 19.8148 13.3267 19.8148 16.4011 17.0775L15.7235 16.3998C13.0246 18.7653 8.97536 18.7653 6.27656 16.3998Z" fill="#006BCD"/>
<path d="M16.3998 15.7235L17.0775 16.4011C19.8148 13.3267 19.8148 8.67326 17.0775 5.59888L16.3998 6.27656C18.7653 8.97536 18.7653 13.0246 16.3998 15.7235Z" fill="#006BCD"/>
<path fill-rule="evenodd" clip-rule="evenodd" d="M10.5 4.80242C10.6649 4.7893 10.8317 4.78261 11 4.78261C11.1683 4.78261 11.3351 4.7893 11.5 4.80242V3.82608H10.5V4.80242ZM17.1976 10.5C17.2107 10.6649 17.2174 10.8317 17.2174 11C17.2174 11.1683 17.2107 11.3351 17.1976 11.5H18.1739V10.5H17.1976ZM11.5 17.1976C11.3351 17.2107 11.1683 17.2174 11 17.2174C10.8317 17.2174 10.6649 17.2107 10.5 17.1976V18.1739H11.5V17.1976ZM4.80242 11.5C4.7893 11.3351 4.78261 11.1683 4.78261 11C4.78261 10.8317 4.7893 10.6649 4.80242 10.5H3.82608V11.5H4.80242Z" fill="#006BCD"/>
<path d="M17.8397 4.42349C17.8932 4.29292 17.8631 4.14297 17.7634 4.04318C17.6636 3.94339 17.5136 3.91329 17.3831 3.96685L1.62246 10.4315C1.48468 10.488 1.39775 10.6255 1.40579 10.7742C1.41383 10.9229 1.51508 11.0502 1.65814 11.0915L8.68506 13.1215L10.715 20.1484C10.7563 20.2914 10.8837 20.3927 11.0324 20.4007C11.1811 20.4088 11.3186 20.3218 11.3751 20.1841L17.8397 4.42349ZM6.05627 10.5317L14.2818 7.02972L9.72109 11.5904L6.05627 10.5317Z" fill="#006BCD" stroke="white" stroke-width="0.7" stroke-linejoin="round"/>
</svg>
