<svg width="119" height="130" viewBox="0 0 119 130" fill="none" xmlns="http://www.w3.org/2000/svg">
<path d="M104.441 19.4564C89.9521 10.7982 71.2039 11.2789 56.9747 20.1495C48.9801 25.1334 42.8003 32.3214 35.7924 38.5094C29.6517 43.9315 22.5109 47.7992 16.1689 52.9152C-6.83092 71.469 -4.63638 121.512 27.7499 128.159C41.7886 131.041 60.9759 131.965 69.227 118.212C77.0944 105.099 79.7332 91.6854 95.1051 84.7202C100.462 82.2928 109.416 82.4152 113.045 77.0961C117.625 70.3834 111.942 63.4105 108.911 57.5612C105.005 50.0228 104.185 42.5906 106.934 34.5043C109.274 27.6184 110.922 24.5252 104.441 19.4564Z" fill="url(#paint0_linear)"/>
<path opacity="0.1" d="M113.426 9.56978C112.23 8.3742 110.292 8.3742 109.096 9.56978C108.238 10.4275 108 11.6668 108.373 12.7407L104.78 16.3336C103.68 15.4412 102.489 14.7818 101.333 14.4405C99.5398 13.9105 97.9957 14.1753 96.986 15.1856C96.0369 16.1344 95.7459 17.5544 96.153 19.2092C94.5538 18.8192 93.0992 19.0724 92.1224 20.0489C90.4011 21.7702 90.9255 24.9779 93.2682 27.8451L91.1188 29.9945C90.9338 30.1793 90.818 30.4058 90.7645 30.6433L88.7705 28.6493C87.2099 27.0887 84.6819 27.0906 83.1232 28.6493L82.3437 29.4288C69.9292 18.9622 57.4908 14.2991 52.8424 18.9475C41.0231 30.7668 39.0858 48.7231 47.0252 62.5574L44.104 65.4786L30.8092 78.7708C29.0867 80.4932 28.1204 82.8306 28.1204 85.2665V87.7389H25.4678C21.708 87.7389 18.6494 90.7977 18.6494 94.5575C18.6494 98.3173 21.708 101.376 25.4678 101.376H28.1204V109.274H25.3048C22.3642 109.274 19.9805 111.657 19.9805 114.598V123.383C19.9805 124.854 21.1724 126.045 22.6427 126.045H59.2851H96.4495H105.205C106.675 126.045 107.867 124.854 107.867 123.383V114.598C107.867 111.657 105.483 109.274 102.542 109.274H93.7671V105.614C93.7671 104.144 92.5753 102.952 91.1049 102.952H90.506V96.8946C90.506 96.6116 90.4163 96.3505 90.2656 96.1346C91.8288 95.6657 92.9685 94.2175 92.9685 92.502C92.9685 90.4069 91.27 88.7084 89.1749 88.7084C87.0797 88.7084 85.3813 90.4069 85.3813 92.502C85.3813 94.2178 86.521 95.6657 88.0842 96.1346C87.9335 96.3502 87.8438 96.6116 87.8438 96.8946V102.952H87.2448C85.7745 102.952 84.5826 104.144 84.5826 105.614V109.274H76.9289V103.216C76.9289 102.933 76.8392 102.672 76.6885 102.456C78.2517 101.987 79.3914 100.539 79.3914 98.8236C79.3914 96.7285 77.6929 95.03 75.5978 95.03C73.5027 95.03 71.8042 96.7285 71.8042 98.8236C71.8042 100.539 72.9439 101.987 74.5071 102.456C74.3564 102.672 74.2667 102.933 74.2667 103.216V109.274H46.4896V96.0957C50.37 96.0957 53.5154 92.9501 53.5154 89.07C53.5154 87.13 52.7292 85.3738 51.458 84.1023L56.9945 78.5658L59.9027 75.6577C73.8062 83.9591 92.0761 82.1254 104.048 70.1531C108.697 65.5047 104.034 53.0662 93.5672 40.6517L94.3467 39.8722C95.9054 38.3135 95.9072 35.7855 94.3467 34.225L92.3527 32.231C92.5902 32.1775 92.8167 32.0617 93.0012 31.8769L95.1515 29.7267C96.8757 31.1355 98.7225 31.8886 100.296 31.8886C101.339 31.8886 102.261 31.5588 102.947 30.8727C103.924 29.8957 104.177 28.4398 103.785 26.8396C104.272 26.9594 104.739 27.0219 105.179 27.0219C106.235 27.0219 107.14 26.6798 107.81 26.01C108.82 24.9997 109.085 23.4559 108.555 21.6627C108.214 20.507 107.554 19.3157 106.662 18.2162L110.255 14.6231C111.329 14.9961 112.568 14.7573 113.426 13.8995C114.622 12.7037 114.622 10.7654 113.426 9.56978ZM25.468 98.7137C23.1764 98.7137 21.3119 96.8491 21.3119 94.5572C21.3119 92.2654 23.1764 90.4008 25.468 90.4008H28.1206V98.7139H25.468V98.7137ZM98.8686 17.0681C99.0207 16.916 99.2877 16.8391 99.6274 16.8391C99.9042 16.8391 100.229 16.8902 100.579 16.9938C101.32 17.2129 102.121 17.6489 102.883 18.2309L100.031 21.0826C99.4493 20.321 99.0132 19.5202 98.7941 18.7788C98.5636 17.9995 98.5923 17.3441 98.8686 17.0681ZM94.0051 21.931C94.1558 21.7806 94.4167 21.701 94.7569 21.701C95.5468 21.701 96.7645 22.1315 98.0215 23.0918L95.1672 25.9461C93.7943 24.1481 93.5052 22.4313 94.0051 21.931ZM101.065 28.9903C100.564 29.4908 98.8476 29.2017 97.0496 27.8286L99.9026 24.9755C101.276 26.7733 101.565 28.4901 101.065 28.9903ZM106.002 22.4169C106.232 23.1958 106.203 23.8513 105.927 24.1273C105.651 24.4034 104.996 24.4319 104.217 24.2019C103.476 23.9828 102.675 23.5467 101.913 22.9648L104.765 20.1133C105.347 20.8747 105.783 21.6755 106.002 22.4169Z" fill="#006BCD"/>
<path d="M93.767 105.225H84.5825V99.225C84.5825 97.7547 85.7744 96.5629 87.2447 96.5629H91.1048C92.5752 96.5629 93.767 97.7547 93.767 99.225V105.225Z" fill="white"/>
<path d="M64.3448 64.826L56.9945 72.1763L46.4896 82.6812V105.224H28.1206V78.877C28.1206 76.4411 29.087 74.1037 30.8094 72.3813L44.1043 59.089L51.356 51.8373L64.3448 64.826Z" fill="white"/>
<path d="M104.048 63.7636C89.908 77.9038 66.9825 77.9038 52.8426 63.7636C38.7025 49.6235 38.7025 26.698 52.8426 12.5581L104.048 63.7636Z" fill="white"/>
<path d="M104.031 63.7635C109.413 58.3819 102.314 42.5583 88.1763 28.4204C74.0384 14.2824 58.2147 7.18394 52.8332 12.5655C47.4517 17.947 54.5502 33.7706 68.6881 47.9086C82.8261 62.0465 98.6497 69.145 104.031 63.7635Z" fill="#006BCD"/>
<path d="M88.7709 22.2595L94.3468 27.8351C95.9073 29.3957 95.9055 31.9237 94.3468 33.4824L74.5474 53.2818C72.5878 51.6309 70.6282 49.8332 68.7005 47.9055C66.7728 45.9778 64.975 44.0182 63.3242 42.0586L83.1236 22.2592C84.6823 20.7008 87.2106 20.6989 88.7709 22.2595Z" fill="white"/>
<path d="M83.1368 29.7688C83.6565 30.2884 83.6565 31.1315 83.1368 31.6512L68.7324 46.0557C68.2127 46.5753 67.3696 46.5753 66.8499 46.0557C66.3303 45.536 66.3303 44.6929 66.8499 44.1733L81.2544 29.7688C81.7738 29.2491 82.6172 29.2491 83.1368 29.7688Z" fill="#006BCD"/>
<path d="M111.261 8.40669C112.952 8.40669 114.322 7.03601 114.322 5.34519C114.322 3.65437 112.952 2.28369 111.261 2.28369C109.57 2.28369 108.199 3.65437 108.199 5.34519C108.199 7.03601 109.57 8.40669 111.261 8.40669Z" fill="white"/>
<path d="M86.4345 35.4861C85.9146 36.006 85.072 36.0057 84.5521 35.4861L84.5302 35.4645C84.0106 34.9449 84.0103 34.102 84.5302 33.5821C85.0501 33.0622 85.893 33.0624 86.4126 33.5821L86.4342 33.6037C86.9541 34.1236 86.9544 34.9662 86.4345 35.4861Z" fill="#006BCD"/>
<path d="M83.2978 38.6225C82.7779 39.1425 81.9353 39.1425 81.4154 38.6225L81.3938 38.601C80.8739 38.0813 80.8739 37.2385 81.3938 36.7186C81.9138 36.1986 82.7566 36.1986 83.2763 36.7186L83.2978 36.7401C83.8178 37.2598 83.8178 38.1026 83.2978 38.6225Z" fill="#006BCD"/>
<path d="M80.1614 41.7593C79.6414 42.2792 78.7989 42.2789 78.2789 41.7593L78.2574 41.7377C77.7375 41.2181 77.7375 40.3752 78.2574 39.8553C78.7773 39.3354 79.6201 39.3356 80.1398 39.8553L80.1614 39.8769C80.6813 40.3965 80.6813 41.2394 80.1614 41.7593Z" fill="#006BCD"/>
<path d="M46.4894 89.7063C50.3696 89.7063 53.5151 86.5607 53.5151 82.6805C53.5151 78.8003 50.3696 75.6548 46.4894 75.6548C42.6092 75.6548 39.4636 78.8003 39.4636 82.6805C39.4636 86.5607 42.6092 89.7063 46.4894 89.7063Z" fill="#006BCD"/>
<path d="M48.3837 82.6804C48.3837 83.7266 47.5356 84.5748 46.4896 84.5748C45.4434 84.5748 44.5952 83.7266 44.5952 82.6804C44.5952 81.6342 45.4434 80.786 46.4896 80.786C47.5356 80.786 48.3837 81.6342 48.3837 82.6804Z" fill="#006BCD"/>
<path d="M105.205 119.656H22.6426C21.1723 119.656 19.9805 118.464 19.9805 116.994V108.209C19.9805 105.268 22.3642 102.884 25.3048 102.884H102.542C105.483 102.884 107.867 105.268 107.867 108.209V116.994C107.867 118.464 106.675 119.656 105.205 119.656Z" fill="white"/>
<path d="M96.4496 119.656H59.2852V113.932C59.2852 112.462 60.477 111.27 61.9473 111.27H93.7875C95.2578 111.27 96.4496 112.462 96.4496 113.932V119.656Z" fill="#006BCD"/>
<path d="M53.5154 113.963C52.7801 113.963 52.1843 113.367 52.1843 112.632V112.601C52.1843 111.866 52.7801 111.27 53.5154 111.27C54.2507 111.27 54.8465 111.866 54.8465 112.601V112.632C54.8465 113.367 54.2504 113.963 53.5154 113.963Z" fill="#006BCD"/>
<path d="M47.5638 113.963C46.8285 113.963 46.2327 113.367 46.2327 112.632V112.601C46.2327 111.866 46.8285 111.27 47.5638 111.27C48.299 111.27 48.8948 111.866 48.8948 112.601V112.632C48.8948 113.367 48.2988 113.963 47.5638 113.963Z" fill="#006BCD"/>
<path d="M89.1749 89.9063C91.2701 89.9063 92.9685 88.2078 92.9685 86.1127C92.9685 84.0175 91.2701 82.3191 89.1749 82.3191C87.0798 82.3191 85.3813 84.0175 85.3813 86.1127C85.3813 88.2078 87.0798 89.9063 89.1749 89.9063Z" fill="#006BCD"/>
<path d="M75.5978 96.2278C77.6929 96.2278 79.3914 94.5294 79.3914 92.4342C79.3914 90.3391 77.6929 88.6406 75.5978 88.6406C73.5026 88.6406 71.8042 90.3391 71.8042 92.4342C71.8042 94.5294 73.5026 96.2278 75.5978 96.2278Z" fill="#006BCD"/>
<path d="M28.8969 56.0958C28.1616 56.0958 27.5658 55.4998 27.5658 54.7648C27.5658 53.8839 26.8494 53.1675 25.9685 53.1675C25.2332 53.1675 24.6375 52.5714 24.6375 51.8364C24.6375 51.1014 25.2332 50.5053 25.9685 50.5053C26.8494 50.5053 27.5658 49.7889 27.5658 48.908C27.5658 48.173 28.1616 47.5769 28.8969 47.5769C29.6322 47.5769 30.228 48.173 30.228 48.908C30.228 49.7889 30.9444 50.5053 31.8253 50.5053C32.5606 50.5053 33.1564 51.1014 33.1564 51.8364C33.1564 52.5714 32.5606 53.1675 31.8253 53.1675C30.9444 53.1675 30.228 53.8839 30.228 54.7648C30.228 55.4998 29.632 56.0958 28.8969 56.0958Z" fill="#006BCD"/>
<path d="M108.02 83.4484C107.285 83.4484 106.689 82.8524 106.689 82.1173C106.689 81.2364 105.973 80.52 105.092 80.52C104.357 80.52 103.761 79.924 103.761 79.189C103.761 78.4539 104.357 77.8579 105.092 77.8579C105.973 77.8579 106.689 77.1412 106.689 76.2603C106.689 75.5253 107.285 74.9292 108.02 74.9292C108.756 74.9292 109.351 75.5253 109.351 76.2603C109.351 77.1412 110.068 77.8579 110.949 77.8579C111.684 77.8579 112.28 78.4539 112.28 79.189C112.28 79.924 111.684 80.52 110.949 80.52C110.068 80.52 109.351 81.2364 109.351 82.1173C109.351 82.8524 108.755 83.4484 108.02 83.4484Z" fill="#006BCD"/>
<path d="M114.323 41.0363C113.587 41.0363 112.992 40.4402 112.992 39.7052C112.992 38.8246 112.275 38.1079 111.394 38.1079C110.659 38.1079 110.063 37.5118 110.063 36.7768C110.063 36.0418 110.659 35.4457 111.394 35.4457C112.275 35.4457 112.992 34.7293 112.992 33.8484C112.992 33.1134 113.587 32.5173 114.323 32.5173C115.058 32.5173 115.654 33.1134 115.654 33.8484C115.654 34.7293 116.37 35.4457 117.251 35.4457C117.986 35.4457 118.582 36.0418 118.582 36.7768C118.582 37.5118 117.986 38.1079 117.251 38.1079C116.37 38.1079 115.654 38.8246 115.654 39.7052C115.654 40.4402 115.058 41.0363 114.323 41.0363Z" fill="#006BCD"/>
<path d="M18.6495 68.4652C18.3091 68.4652 17.968 68.3353 17.7085 68.0755L14.7801 65.1471C14.2602 64.6272 14.2602 63.7843 14.7801 63.2647L17.7085 60.3363C18.2279 59.8166 19.0712 59.8166 19.5906 60.3363L22.519 63.2647C23.0389 63.7846 23.0389 64.6274 22.519 65.1471L19.5906 68.0755C19.3311 68.3353 18.9903 68.4652 18.6495 68.4652ZM17.6038 64.2057L18.6498 65.2517L19.6958 64.2057L18.6498 63.1598L17.6038 64.2057Z" fill="#006BCD"/>
<path d="M29.7221 27.0264C29.3816 27.0264 29.0405 26.8965 28.781 26.6366L25.8526 23.7082C25.3327 23.1883 25.3327 22.3455 25.8526 21.8258L28.781 18.8974C29.3004 18.3778 30.1437 18.3778 30.6631 18.8974L33.5915 21.8258C34.1115 22.3457 34.1115 23.1886 33.5915 23.7082L30.6631 26.6366C30.4036 26.8962 30.0628 27.0264 29.7221 27.0264ZM28.6764 22.7669L29.7223 23.8129L30.7683 22.7669L29.7223 21.7209L28.6764 22.7669Z" fill="#006BCD"/>
<path d="M111.261 9.73778C112.435 9.73778 113.538 9.28095 114.367 8.45142C116.08 6.73858 116.08 3.95208 114.367 2.23951C113.538 1.40971 112.435 0.952881 111.261 0.952881C110.088 0.952881 108.985 1.40971 108.155 2.23951C106.771 3.6241 106.507 5.71018 107.361 7.36366L104.78 9.94463C103.68 9.05227 102.489 8.39312 101.333 8.05156C99.54 7.52152 97.9959 7.78641 96.9862 8.7967C96.0371 9.7455 95.7461 11.1652 96.1532 12.8203C94.554 12.4303 93.0994 12.6835 92.1227 13.6597C90.4013 15.3811 90.9258 18.5887 93.2685 21.4559L91.5588 23.1655L89.7123 21.319C87.6633 19.2697 84.3465 19.2471 82.2644 21.245C76.3373 16.3866 70.2423 12.7021 65.0247 10.8389C57.5056 8.15379 53.7381 9.77984 51.9018 11.6167C39.9233 23.5952 37.7505 41.7203 45.3784 55.9315L29.8699 71.4403C27.8837 73.4262 26.79 76.0671 26.79 78.876V81.3494H25.4685C21.7088 81.3494 18.6502 84.4082 18.6502 88.168C18.6502 91.9278 21.7088 94.9866 25.4685 94.9866H26.79V101.553H25.3051C21.6353 101.553 18.6497 104.539 18.6497 108.209V116.994C18.6497 119.196 20.441 120.987 22.6429 120.987H105.205C107.407 120.987 109.198 119.196 109.198 116.994V108.209C109.198 104.539 106.212 101.553 102.543 101.553H95.0982V99.2251C95.0982 97.0232 93.3068 95.2318 91.1049 95.2318H90.5059V91.0559C92.6873 90.4676 94.2995 88.4774 94.2995 86.1128C94.2995 83.2872 92.0005 80.9881 89.1749 80.9881C86.3492 80.9881 84.0502 83.2872 84.0502 86.1128C84.0502 88.4776 85.6624 90.4676 87.8438 91.0559V95.2318H87.2448C85.0426 95.2318 83.2515 97.0232 83.2515 99.2251V101.553H76.9289V97.3775C79.1102 96.7892 80.7225 94.799 80.7225 92.4344C80.7225 89.6088 78.4234 87.3097 75.5978 87.3097C72.7721 87.3097 70.4731 89.6088 70.4731 92.4344C70.4731 94.7992 72.0853 96.7892 74.2667 97.3775V101.553H67.3727C66.6374 101.553 66.0416 102.149 66.0416 102.885C66.0416 103.62 66.6374 104.216 67.3727 104.216H102.543C104.745 104.216 106.536 106.007 106.536 108.209V116.994C106.536 117.728 105.939 118.325 105.205 118.325H22.6429C21.909 118.325 21.3118 117.728 21.3118 116.994V108.209C21.3118 106.007 23.1032 104.216 25.3051 104.216H58.4119C59.1471 104.216 59.7429 103.62 59.7429 102.885C59.7429 102.149 59.1471 101.553 58.4119 101.553H47.8209V90.9303C51.7982 90.2908 54.8467 86.8356 54.8467 82.6805C54.8467 80.8558 54.2573 79.1672 53.2611 77.7914L60.1239 70.9286C65.7954 74.0971 72.1207 75.6819 78.446 75.6819C88.0589 75.6819 97.672 72.0228 104.99 64.7047C106.826 62.8691 108.451 59.104 105.772 51.5927C103.91 46.373 100.224 40.2732 95.3625 34.3421C97.3602 32.2603 97.3381 28.9438 95.2885 26.8939L93.4418 25.0471L95.152 23.337C96.8762 24.7458 98.7233 25.4989 100.297 25.4989C101.339 25.4989 102.262 25.1691 102.948 24.483C103.924 23.506 104.177 22.0501 103.786 20.4498C104.273 20.5696 104.74 20.6322 105.18 20.6322C106.236 20.6322 107.14 20.2901 107.81 19.6203C108.821 18.61 109.085 17.0662 108.555 15.273C108.214 14.1173 107.555 12.926 106.662 11.8263L109.243 9.24581C109.859 9.56634 110.547 9.73778 111.261 9.73778ZM86.7126 86.1128C86.7126 84.7549 87.8171 83.6503 89.1751 83.6503C90.5328 83.6503 91.6376 84.7549 91.6376 86.1128C91.6376 87.4708 90.5328 88.5753 89.1751 88.5753C87.8171 88.5753 86.7126 87.4705 86.7126 86.1128ZM73.1355 92.4344C73.1355 91.0764 74.2401 89.9719 75.598 89.9719C76.9557 89.9719 78.0605 91.0764 78.0605 92.4344C78.0605 93.7924 76.9557 94.8969 75.598 94.8969C74.2401 94.8969 73.1355 93.7924 73.1355 92.4344ZM85.9139 99.2251C85.9139 98.4911 86.5111 97.894 87.245 97.894H91.1052C91.8391 97.894 92.4363 98.4911 92.4363 99.2251V101.553H85.9139V99.2251ZM25.4683 92.3245C23.1767 92.3245 21.3121 90.4599 21.3121 88.168C21.3121 85.8762 23.1767 84.0116 25.4683 84.0116H26.7898V92.3247H25.4683V92.3245ZM29.452 101.553V84.0116H38.24C38.8098 87.5555 41.6149 90.3606 45.1588 90.9303V101.553H29.452ZM46.4899 88.3751C43.3498 88.3751 40.7949 85.8205 40.7949 82.6802C40.7949 79.5399 43.3498 76.9853 46.4899 76.9853C49.6299 76.9853 52.1845 79.5399 52.1845 82.6802C52.1842 85.8205 49.6299 88.3751 46.4899 88.3751ZM51.3787 75.909C50.0029 74.9128 48.3142 74.3234 46.4899 74.3234C42.3347 74.3234 38.8795 77.3718 38.24 81.3494H29.452V78.876C29.452 76.7782 30.2687 74.8061 31.7521 73.323L46.7686 58.3062C48.2128 60.5762 49.9222 62.7251 51.902 64.7047C53.7307 66.5333 55.7028 68.1336 57.7825 69.5054L51.3787 75.909ZM53.7839 62.8226C41.7054 50.7437 40.357 31.9366 49.7361 18.3539C49.8583 20.966 50.691 24.0491 52.2359 27.4929C55.2955 34.3134 60.8083 41.8973 67.759 48.8477C74.7091 55.7981 82.2931 61.3107 89.1136 64.3703C92.5577 65.9155 95.6405 66.7482 98.2526 66.8701C84.6697 76.2497 65.863 74.9016 53.7839 62.8226ZM103.107 62.8226C100.954 64.9757 96.2509 64.6547 90.203 61.9414C85.8514 59.9892 81.1585 56.9727 76.521 53.1905L93.474 36.2378C102.788 47.6783 106.928 59.0018 103.107 62.8226ZM93.4058 32.5414L74.4767 51.4705C72.8448 50.0542 71.227 48.5504 69.6414 46.9651C62.9141 40.238 57.5956 32.9357 54.6651 26.4032C51.9524 20.3556 51.6313 15.6523 53.7839 13.4992C57.6063 9.67735 68.9266 13.817 80.3686 23.1322L68.3934 35.1075C67.8735 35.6274 67.8735 36.4702 68.3934 36.9899C68.9128 37.5096 69.7562 37.5096 70.2756 36.9899L84.0648 23.2006C85.1031 22.1627 86.7919 22.1629 87.8299 23.2006L93.4056 28.7763C94.4438 29.8146 94.4438 31.5037 93.4058 32.5414ZM110.038 4.12166C110.365 3.79502 110.799 3.61505 111.262 3.61505C111.723 3.61505 112.158 3.79502 112.485 4.12166H112.485C113.16 4.79626 113.16 5.89414 112.485 6.569C112.158 6.89591 111.724 7.07561 111.262 7.07561C110.799 7.07561 110.365 6.89565 110.038 6.56873C109.363 5.89414 109.363 4.79626 110.038 4.12166ZM98.8689 10.6789C99.0209 10.5268 99.2879 10.4499 99.6276 10.4499C99.9045 10.4499 100.23 10.501 100.579 10.6046C101.32 10.8237 102.121 11.2597 102.883 11.8417L100.031 14.6931C99.4498 13.9315 99.0134 13.1307 98.7943 12.3893C98.5638 11.6104 98.5926 10.9549 98.8689 10.6789ZM94.0054 15.5418C94.156 15.3914 94.4169 15.3118 94.7572 15.3118C95.547 15.3118 96.7644 15.7423 98.0215 16.7026L95.1674 19.5569C93.7945 17.7589 93.5054 16.0421 94.0054 15.5418ZM101.065 22.6011C100.565 23.1016 98.8478 22.8125 97.0498 21.4394L99.9029 18.5863C101.276 20.3838 101.565 22.1009 101.065 22.6011ZM106.002 16.0277C106.232 16.8066 106.204 17.4621 105.927 17.7381C105.651 18.0145 104.996 18.0427 104.217 17.8127C103.476 17.5936 102.675 17.1575 101.913 16.5756L104.765 13.7239C105.347 14.4855 105.783 15.2863 106.002 16.0277Z" fill="#006BCD"/>
<defs>
<linearGradient id="paint0_linear" x1="130.577" y1="3.37181" x2="-11.5131" y2="178.655" gradientUnits="userSpaceOnUse">
<stop stop-color="#006BCD"/>
<stop offset="1" stop-color="#B7C5FF"/>
</linearGradient>
</defs>
</svg>
