<svg width="109" height="131" viewBox="0 0 109 131" fill="none" xmlns="http://www.w3.org/2000/svg">
<path d="M13.8557 9.78198C-20.7692 40.3669 23.791 70.0136 19.5468 103.434C17.6598 118.292 23.6543 132.496 43.2662 130.873C67.1668 128.895 58.4909 106.001 63.496 90.7599C72.1082 64.5341 125.089 70.6596 103.127 30.2625C89.1119 4.48262 37.6869 -11.2689 13.8557 9.78198Z" fill="url(#paint0_linear)"/>
<path opacity="0.1" d="M93.6014 107.613C89.7794 106.011 85.5592 106.771 82.5583 109.224V101.277C82.5583 101.266 82.5552 101.255 82.5549 101.244H85.3848C86.0912 101.244 86.664 100.671 86.664 99.9647V80.8041C86.6638 79.4471 86.1247 78.1455 85.165 77.1858L81.2365 73.2573L82.099 72.3945C82.5987 71.8951 82.5987 71.0851 82.099 70.5856C81.5998 70.0859 80.7893 70.0859 80.2901 70.5856L79.4273 71.4481L77.8077 69.8285L78.6705 68.9658C79.1702 68.4663 79.1702 67.6563 78.6705 67.1568C78.1713 66.6572 77.3607 66.6572 76.8616 67.1568L75.9988 68.0196L72.8505 64.8715C73.5907 62.9776 73.1984 60.7435 71.6686 59.2134L68.418 55.9627L68.5088 55.8719C69.5079 54.8728 69.5079 53.2527 68.5088 52.2536L50.8775 34.6223C49.8784 33.6232 48.2583 33.6232 47.2591 34.6223L44.3191 37.5624L21.8863 15.1296L14.3441 22.6721L19.3482 27.6762L9.50454 37.5204C9.0248 38.0001 8.75513 38.651 8.75513 39.3296V48.8816C8.75538 49.5601 9.0248 50.211 9.50454 50.6908L20.3481 61.5343L18.8649 63.0176C17.8658 64.0167 17.8658 65.6368 18.8649 66.6359L22.8942 70.6652C23.3739 71.1449 24.0248 71.4146 24.7034 71.4146H51.9073C52.5859 71.4146 53.2368 71.1452 53.7165 70.6652L56.6512 67.7305L59.9017 70.9809C61.4527 72.5319 63.7283 72.9155 65.6385 72.1333L68.7621 75.2568L67.8451 76.1736C67.3454 76.673 67.3454 77.4831 67.8451 77.9825C68.0948 78.2325 68.4223 78.3573 68.7495 78.3573C69.0768 78.3573 69.4045 78.2325 69.654 77.9825L70.5708 77.0658L72.1903 78.6854L71.2736 79.6021C70.7739 80.1015 70.7739 80.9116 71.2736 81.411C71.5233 81.661 71.8508 81.7859 72.1781 81.7859C72.5053 81.7859 72.8331 81.661 73.0825 81.411L73.9993 80.494L76.4289 82.9237L76.4286 99.9644C76.4286 100.671 77.0013 101.244 77.7079 101.244H80.0022C80.002 101.255 79.9989 101.266 79.9989 101.277V109.223C76.9982 106.77 72.7781 106.011 68.956 107.613C64.5627 109.454 62.0243 113.853 62.3387 118.355C65.3279 121.735 70.2433 123.007 74.6366 121.166C77.808 119.836 80.0127 117.174 80.8747 114.101C81.0024 114.143 81.1365 114.172 81.2785 114.172C81.4205 114.172 81.5545 114.143 81.6822 114.1C82.5442 117.173 84.7492 119.836 87.9206 121.165C92.3139 123.007 97.2293 121.735 100.218 118.355C100.533 113.854 97.9948 109.455 93.6014 107.613ZM27.1151 54.7653L26.7768 46.6582C26.7497 46.016 26.4818 45.408 26.0297 44.9557L23.1966 42.1225C22.198 41.1239 20.5769 41.1239 19.5782 42.1225C19.0791 42.622 18.8293 43.277 18.8293 43.9317C18.8293 44.5867 19.0791 45.2415 19.5782 45.7409L21.706 47.8686L22.0429 55.9919L13.8726 47.8216V40.3891L22.9671 31.2946L36.7774 45.1048L27.1151 54.7653Z" fill="#006BCD"/>
<path d="M22.196 53.5441L21.7057 41.7282L19.578 39.6005C19.0786 39.101 18.8291 38.4463 18.8291 37.7913C18.8291 37.1366 19.0788 36.4816 19.578 35.9821C20.5766 34.9835 22.1977 34.9835 23.1964 35.9821L26.0295 38.8152C26.4819 39.2676 26.7495 39.8755 26.7766 40.5177L27.1149 48.6249L22.196 53.5441Z" fill="white"/>
<path d="M44.324 31.4189L36.7827 38.9602L14.3533 16.5308L21.8946 8.98953L44.324 31.4189Z" fill="white"/>
<path d="M44.3259 31.4192L40.5552 35.1899L27.4553 22.09L31.226 18.3193L44.3259 31.4192Z" fill="#006BCD"/>
<path d="M16.3643 24.5137L19.3419 21.536L22.9605 25.1546L19.9828 28.1322L16.3643 24.5137Z" fill="#4369FD"/>
<path d="M9.50454 31.3793L19.3485 21.5354L22.9668 25.1538L13.8723 34.2483V41.6807L23.9662 51.7747L20.3479 55.393L9.50454 44.55C9.02455 44.07 8.75513 43.4193 8.75513 42.7408V33.1888C8.75513 32.51 9.02455 31.8593 9.50454 31.3793Z" fill="white"/>
<path d="M66.1803 52.0605L85.1651 71.0453C86.1248 72.005 86.6639 73.3066 86.6641 74.6637V93.8242C86.6641 94.5306 86.0913 95.1035 85.3848 95.1035H77.7088C77.0021 95.1035 76.4295 94.5306 76.4295 93.8242L76.4298 76.7835L58.9438 59.2975L66.1803 52.0605Z" fill="white"/>
<path d="M76.4294 87.938V93.824C76.4294 94.5307 77.0021 95.1033 77.7087 95.1033H85.3848C86.0912 95.1033 86.6641 94.5305 86.6641 93.824V87.9377H76.4294V87.938Z" fill="#006BCD"/>
<path d="M53.7165 64.5242L68.5092 49.7314C69.5084 48.7323 69.5084 47.1122 68.5092 46.113L50.878 28.4818C49.8788 27.4826 48.2587 27.4826 47.2596 28.4818L18.8646 56.8765C17.8655 57.8757 17.8655 59.4958 18.8646 60.4949L22.8939 64.5242C23.3736 65.0039 24.0245 65.2736 24.703 65.2736H51.907C52.5858 65.2736 53.2365 65.0042 53.7165 64.5242Z" fill="white"/>
<path d="M58.8996 52.1043L61.2722 49.7317C62.2713 48.7326 62.2713 47.1125 61.2722 46.1134L50.8777 35.7188C49.8785 34.7197 48.2584 34.7197 47.2593 35.7188L44.8867 38.0914C44.387 38.5911 44.387 39.4009 44.8867 39.9006L57.0904 52.1043C57.5901 52.6038 58.4002 52.6038 58.8996 52.1043Z" fill="#006BCD"/>
<path d="M56.6511 61.5895L68.4181 49.8225L71.6688 53.0729C73.731 55.1352 73.731 58.4785 71.6688 60.5405L67.3693 64.8399C65.3071 66.9021 61.9638 66.9021 59.9018 64.8399L56.6511 61.5895Z" fill="white"/>
<path d="M87.9212 115.025C92.3146 116.867 97.2299 115.595 100.219 112.215C100.534 107.713 97.9949 103.314 93.6015 101.473C89.211 99.6325 84.2944 100.907 81.3055 104.287C80.991 108.789 83.5307 113.185 87.9212 115.025Z" fill="white"/>
<path d="M95.5708 108.879L93.8589 108.162L94.3737 107.775C94.9381 107.35 95.0512 106.548 94.6265 105.983C94.202 105.419 93.4001 105.305 92.8349 105.73L91.1258 107.017L81.7997 103.108C81.1493 102.835 80.3989 103.142 80.1254 103.793C79.8524 104.445 80.1591 105.195 80.8108 105.468L86.9645 108.047L87.425 110.543C87.5386 111.16 88.0764 111.591 88.6816 111.591C88.7586 111.591 88.8366 111.584 88.9152 111.569C89.6101 111.441 90.0693 110.774 89.9412 110.079L89.7843 109.229L94.5819 111.24C94.7434 111.307 94.911 111.339 95.076 111.339C95.576 111.339 96.0511 111.044 96.2563 110.554C96.5295 109.902 96.2225 109.152 95.5708 108.879Z" fill="#006BCD"/>
<path d="M74.637 115.025C70.2437 116.867 65.3284 115.595 62.3392 112.215C62.0247 107.713 64.5633 103.314 68.9567 101.473C73.3472 99.6325 78.2638 100.907 81.2528 104.287C81.5672 108.789 79.0276 113.185 74.637 115.025Z" fill="white"/>
<path d="M82.4328 103.793C82.1598 103.141 81.4096 102.835 80.7585 103.108L71.4324 107.016L69.723 105.73C69.1578 105.305 68.3559 105.418 67.9314 105.983C67.5067 106.548 67.6198 107.35 68.1842 107.774L68.699 108.162L66.9871 108.879C66.3354 109.152 66.0286 109.902 66.3016 110.554C66.5071 111.044 66.982 111.339 67.4819 111.339C67.6469 111.339 67.8145 111.307 67.976 111.239L72.7736 109.228L72.6168 110.078C72.4886 110.773 72.9481 111.44 73.6427 111.569C73.7213 111.583 73.7993 111.59 73.8763 111.59C74.4812 111.59 75.0193 111.159 75.1329 110.543L75.5932 108.046L81.7471 105.467C82.399 105.194 82.7058 104.445 82.4328 103.793Z" fill="#006BCD"/>
<path d="M94.096 100.293C90.2361 98.6756 85.897 99.186 82.5583 101.483V96.3828H85.3848C86.7956 96.3828 87.9434 95.2351 87.9434 93.8242V74.6632C87.9431 72.9546 87.2776 71.3485 86.0697 70.1406L82.1371 66.2078C82.5946 65.7058 82.5849 64.93 82.0995 64.4449C81.6147 63.9596 80.8384 63.9498 80.3367 64.4073L78.7086 62.7793C79.1661 62.2773 79.1564 61.5015 78.671 61.0164C78.1862 60.531 77.4099 60.5213 76.9081 60.9788L74.3035 58.3742C74.8298 56.2196 74.2536 53.848 72.5741 52.168L70.1036 49.6977C70.8566 48.2513 70.6271 46.4214 69.4145 45.2086L51.7833 27.5774C50.287 26.0806 47.852 26.0806 46.3557 27.5774L44.3201 29.613L22.7918 8.08473C22.2927 7.58504 21.4821 7.58504 20.9829 8.08473C20.4832 8.58417 20.4832 9.39422 20.9829 9.89366L42.5112 31.4222L36.7779 37.1552L15.2486 15.627C14.7494 15.1273 13.9388 15.1273 13.4397 15.627C12.94 16.1264 12.94 16.9364 13.4397 17.4359L17.5393 21.5355L8.60009 30.4747C7.8755 31.1991 7.4761 32.1626 7.47559 33.1884V42.7409C7.4761 43.7661 7.87524 44.7297 8.60009 45.4543L18.5392 55.3931L17.9604 55.9719C16.4639 57.4684 16.4639 59.9029 17.9604 61.3994L21.9897 65.4287C22.7146 66.1536 23.6784 66.5527 24.7036 66.5527H51.9076C52.9326 66.5527 53.8962 66.1536 54.621 65.4287L56.6515 63.3985L58.9975 65.7444C60.2763 67.0232 61.9562 67.6629 63.6357 67.6629C64.1917 67.6629 64.7474 67.5912 65.2888 67.451L67.8579 70.0201L67.8456 70.0324C67.3459 70.5318 67.3459 71.3419 67.8456 71.8413C68.0953 72.0913 68.4228 72.2161 68.7501 72.2161C69.0773 72.2161 69.4051 72.0913 69.6545 71.8413L69.6668 71.829L71.2864 73.4486L71.2741 73.4609C70.7744 73.9604 70.7744 74.7704 71.2741 75.2698C71.5238 75.5198 71.8513 75.6447 72.1786 75.6447C72.5058 75.6447 72.8336 75.5198 73.0831 75.2698L73.0953 75.2575L75.1504 77.3126L75.1501 80.43C75.1501 81.1364 75.7228 81.7093 76.4294 81.7093C77.1359 81.7093 77.7087 81.1367 77.7087 80.43L77.709 76.7827C77.709 76.4435 77.5744 76.118 77.3342 75.8783L74.9043 73.4484L80.3321 68.0206L84.2605 71.949C84.9851 72.6739 85.3845 73.6377 85.3848 74.6629V93.8237H77.7087V88.8711C77.7087 88.1644 77.1361 87.5918 76.4294 87.5918C75.7228 87.5918 75.1501 88.1644 75.1501 88.8711V93.8237C75.1501 95.2345 76.2979 96.3823 77.7087 96.3823H79.9997V101.482C76.6607 99.1858 72.3211 98.6751 68.4622 100.293C63.6748 102.299 60.7012 107.126 61.063 112.304C61.0827 112.585 61.1945 112.851 61.3808 113.062C63.7293 115.718 67.0522 117.148 70.4492 117.148C72.0238 117.148 73.615 116.841 75.1315 116.205C77.8697 115.058 80.0125 112.987 81.279 110.456C82.5455 112.987 84.6883 115.058 87.4265 116.205C88.9433 116.841 90.5339 117.148 92.1087 117.148C95.5055 117.148 98.8292 115.717 101.177 113.062C101.363 112.851 101.475 112.585 101.495 112.304C101.857 107.126 98.8831 102.299 94.096 100.293ZM28.2706 45.6618L28.0541 40.464C28.0139 39.4994 27.6158 38.5926 26.9332 37.9103L24.1011 35.0784C22.6051 33.5821 20.1703 33.5816 18.6738 35.0784C17.1773 36.5749 17.1773 39.0094 18.6738 40.506L20.4471 42.2793L20.6283 46.6282L15.1516 41.1512V34.7785L22.9666 26.9633L34.9679 38.9647L28.2706 45.6618ZM10.0342 42.7409V33.1894C10.0344 32.8471 10.1675 32.5257 10.4088 32.2844C10.409 32.2844 10.409 32.2844 10.409 32.2842L19.3482 23.345L21.1574 25.1539L12.9676 33.3439C12.7276 33.5839 12.5928 33.9091 12.5928 34.2484V41.6811C12.5928 42.0204 12.7274 42.3458 12.9676 42.5856L22.1568 51.775L20.3479 53.584L10.4088 43.6453C10.1672 43.4041 10.0344 43.0825 10.0342 42.7409ZM23.3005 49.3004L22.9827 41.6742C22.9691 41.3536 22.8358 41.0499 22.6089 40.823L20.4827 38.6968C19.984 38.1978 19.984 37.3863 20.4827 36.8873C20.7242 36.6458 21.0456 36.5128 21.3874 36.5128C21.729 36.5128 22.0504 36.6458 22.2919 36.8873L25.1237 39.7192C25.3512 39.9469 25.4837 40.2491 25.497 40.5704L25.8117 48.1203L23.966 49.9661L23.3005 49.3004ZM60.8064 63.9358L57.5562 60.6848C57.3162 60.4448 56.9908 60.31 56.6515 60.31C56.3122 60.31 55.9868 60.4446 55.747 60.6848L52.8118 63.62C52.5736 63.858 52.2438 63.9946 51.9074 63.9946H24.7034C24.3615 63.9946 24.0402 63.8616 23.7986 63.62L19.7694 59.5908C19.2707 59.0918 19.2707 58.2803 19.7694 57.7813C19.7694 57.7813 45.2248 32.3259 45.2253 32.3254L48.1641 29.3866C48.6633 28.8879 49.4744 28.8879 49.9736 29.3866L67.6046 47.0178C68.1033 47.5165 68.1033 48.3283 67.6048 48.8273L67.5291 48.9027C67.5237 48.9079 67.5189 48.9127 67.5135 48.9181C67.5084 48.9232 67.5035 48.9283 67.4984 48.9335L61.7155 54.7164C61.2158 55.2158 61.2158 56.0259 61.7155 56.5253C62.2147 57.025 63.0252 57.025 63.5244 56.5253L68.4182 51.632L70.7639 53.9777C72.3239 55.538 72.3239 58.0763 70.7642 59.6363L66.4645 63.936C65.7087 64.6916 64.7039 65.1079 63.6352 65.1079C62.5667 65.1076 61.5622 64.6913 60.8064 63.9358ZM67.7049 66.2495C67.9016 66.0937 68.0923 65.9264 68.2739 65.7447L72.5739 61.445C72.7742 61.2446 72.9569 61.0336 73.126 60.815L75.0949 62.7836L69.6671 68.2114L67.7049 66.2495ZM73.0953 71.6402L71.4757 70.0206L76.9035 64.5928L78.5231 66.2124L73.0953 71.6402ZM74.1426 113.846C70.5009 115.372 66.3194 114.501 63.5948 111.689C63.4996 107.772 65.8102 104.178 69.4511 102.653C73.0902 101.127 77.2717 102 79.9974 104.814C80.0923 108.728 77.7822 112.32 74.1426 113.846ZM88.4157 113.846C84.7761 112.32 82.4659 108.728 82.5609 104.814C85.2863 102 89.468 101.127 93.1071 102.653C96.7475 104.178 99.0584 107.772 98.9635 111.689C96.2391 114.501 92.0568 115.371 88.4157 113.846Z" fill="#006BCD"/>
<path d="M42.724 52.3662L37.5508 47.193C37.0511 46.6933 37.0511 45.8835 37.5508 45.3838C38.0505 44.8841 38.8603 44.8841 39.36 45.3838L44.5332 50.557C45.0329 51.0567 45.0329 51.8665 44.5332 52.3662C44.0338 52.8659 43.2237 52.8659 42.724 52.3662Z" fill="#006BCD"/>
<path d="M37.0267 52.6362L34.5672 50.1766C34.0675 49.6769 34.0675 48.8671 34.5672 48.3674C35.0668 47.8678 35.8766 47.8678 36.3763 48.3674L38.8359 50.827C39.3356 51.3267 39.3356 52.1365 38.8359 52.6362C38.3362 53.1359 37.5264 53.1359 37.0267 52.6362Z" fill="#006BCD"/>
<path d="M57.2991 89.1728C56.9718 89.1728 56.6443 89.0479 56.3946 88.7982C55.8949 88.2985 55.8949 87.4885 56.3943 86.989L57.2458 86.1375L55.966 85.3259C55.638 85.1177 55.4223 84.7723 55.3796 84.3862C55.3369 84.0001 55.472 83.6155 55.7465 83.341L57.7274 81.3601C58.2266 80.8604 59.0371 80.8604 59.5363 81.3601C60.036 81.8596 60.036 82.6696 59.5363 83.169L58.685 84.0205L59.9646 84.8321C60.2926 85.0404 60.5083 85.3858 60.551 85.7719C60.5938 86.158 60.4589 86.5426 60.1841 86.8171L58.2035 88.798C57.9541 89.0479 57.6266 89.1728 57.2991 89.1728Z" fill="#006BCD"/>
<path d="M80.8799 43.0583C80.5526 43.0583 80.2249 42.9334 79.9754 42.6835C79.4757 42.184 79.4757 41.374 79.9754 40.8745L80.8267 40.023L79.5468 39.2114C79.2188 39.0034 79.0031 38.6578 78.9604 38.2717C78.9177 37.8856 79.0525 37.501 79.3276 37.2265L81.3084 35.2456C81.8076 34.7459 82.6182 34.7459 83.1174 35.2456C83.6171 35.7451 83.6171 36.5551 83.1174 37.0545L82.2661 37.906L83.5459 38.7176C83.8739 38.9259 84.0896 39.2713 84.1324 39.6574C84.1751 40.0435 84.0403 40.428 83.7652 40.7026L81.7843 42.6835C81.5349 42.9334 81.2074 43.0583 80.8799 43.0583Z" fill="#006BCD"/>
<path d="M88.1306 56.835C87.4239 56.835 86.8513 56.2623 86.8513 55.5557C86.8513 54.709 86.1628 54.0205 85.3162 54.0205C84.6095 54.0205 84.0369 53.4479 84.0369 52.7412C84.0369 52.0345 84.6095 51.4619 85.3162 51.4619C86.1628 51.4619 86.8513 50.7734 86.8513 49.9268C86.8513 49.2201 87.4239 48.6475 88.1306 48.6475C88.8373 48.6475 89.4099 49.2201 89.4099 49.9268C89.4099 50.7734 90.0984 51.4619 90.9451 51.4619C91.6518 51.4619 92.2244 52.0345 92.2244 52.7412C92.2244 53.4479 91.6518 54.0205 90.9451 54.0205C90.0984 54.0205 89.4099 54.709 89.4099 55.5557C89.4099 56.2621 88.8373 56.835 88.1306 56.835Z" fill="#006BCD"/>
<path d="M51.6853 103.6C50.9786 103.6 50.406 103.027 50.406 102.32C50.406 101.474 49.7175 100.785 48.8708 100.785C48.1642 100.785 47.5916 100.213 47.5916 99.5059C47.5916 98.7992 48.1642 98.2266 48.8708 98.2266C49.7175 98.2266 50.406 97.5378 50.406 96.6912C50.406 95.9845 50.9786 95.4119 51.6853 95.4119C52.392 95.4119 52.9646 95.9845 52.9646 96.6912C52.9646 97.5378 53.6531 98.2266 54.4998 98.2266C55.2064 98.2266 55.779 98.7992 55.779 99.5059C55.779 100.213 55.2064 100.785 54.4998 100.785C53.6531 100.785 52.9646 101.474 52.9646 102.32C52.9646 103.027 52.392 103.6 51.6853 103.6Z" fill="#006BCD"/>
<path d="M28.1392 83.5439C27.4325 83.5439 26.8599 82.9713 26.8599 82.2646C26.8599 81.418 26.1713 80.7295 25.3247 80.7295C24.618 80.7295 24.0454 80.1569 24.0454 79.4502C24.0454 78.7435 24.618 78.1709 25.3247 78.1709C26.1713 78.1709 26.8599 77.4824 26.8599 76.6357C26.8599 75.9291 27.4325 75.3564 28.1392 75.3564C28.8458 75.3564 29.4185 75.9291 29.4185 76.6357C29.4185 77.4824 30.107 78.1709 30.9536 78.1709C31.6603 78.1709 32.2329 78.7435 32.2329 79.4502C32.2329 80.1569 31.6603 80.7295 30.9536 80.7295C30.107 80.7295 29.4185 81.418 29.4185 82.2646C29.4185 82.9713 28.8456 83.5439 28.1392 83.5439Z" fill="#006BCD"/>
<defs>
<linearGradient id="paint0_linear" x1="123.388" y1="-11.0577" x2="-39.5172" y2="158.43" gradientUnits="userSpaceOnUse">
<stop stop-color="#006BCD"/>
<stop offset="1" stop-color="#B7C5FF"/>
</linearGradient>
</defs>
</svg>
