<svg width="150" height="139" viewBox="0 0 150 139" fill="none" xmlns="http://www.w3.org/2000/svg">
<path d="M106.52 8.2653C86.3452 0.19873 58.4069 3.26334 42.9676 17.6671C32.0663 27.8372 40.5036 30.7359 47.936 49.3456C53.3154 62.8145 0 60.9607 0 85.2986C0 113.435 38.6145 108.102 52.9443 111.322C74.8532 116.247 93.9662 134.668 117.375 132.239C137.753 130.125 145.522 113.783 148.356 95.0492C153.636 60.1465 140.669 21.9189 106.52 8.2653Z" fill="url(#paint0_linear)"/>
<g opacity="0.1">
<path opacity="0.1" d="M69.1856 85.1661C62.2809 85.361 56.7283 91.1787 56.7005 98.2374C56.6895 101.033 57.5339 103.626 58.9809 105.76C60.6499 108.221 62.1101 110.824 63.3197 113.551L68.2291 124.622H67.8451C67.039 124.622 66.3852 125.29 66.3852 126.114C66.3852 126.938 67.039 127.606 67.8451 127.606H71.4528C72.259 127.606 72.9127 126.938 72.9127 126.114C72.9127 125.29 72.259 124.622 71.4528 124.622H70.87L75.8197 113.46C77.0241 110.744 78.5015 108.168 80.1524 105.709C81.5693 103.599 82.3986 101.044 82.3986 98.2911C82.3983 90.9161 76.448 84.9612 69.1856 85.1661Z" fill="#006BCD"/>
<path opacity="0.1" d="M130.59 71.4118C132.007 69.3014 132.836 66.7467 132.836 63.9942C132.836 56.619 126.886 50.664 119.624 50.869C112.719 51.0639 107.167 56.8816 107.139 63.9402C107.128 66.7357 107.972 69.3289 109.419 71.4629C111.088 73.9241 112.548 76.5266 113.758 79.254L118.667 90.3252H118.088C117.282 90.3252 116.628 90.993 116.628 91.8171C116.628 92.6412 117.282 93.309 118.088 93.309H121.745C122.551 93.309 123.205 92.6412 123.205 91.8171C123.205 90.993 122.551 90.3252 121.745 90.3252H121.308L126.258 79.163C127.462 76.4466 128.939 73.8707 130.59 71.4118Z" fill="#006BCD"/>
<path opacity="0.1" d="M21.0183 52.6425L28.1852 68.8055C28.6758 69.9118 30.2133 69.9118 30.7038 68.8055L37.9254 52.5195C39.5543 48.8456 41.5529 45.3615 43.7857 42.0355C44.1454 41.4996 44.4771 40.9426 44.7787 40.3664C46.4932 41.0312 48.351 41.3982 50.2939 41.3982C58.8839 41.3982 65.8473 34.2819 65.8473 25.504C65.8473 16.7261 58.8839 9.60986 50.2939 9.60986C45.0529 9.60986 40.4209 12.2615 37.603 16.3209C35.0351 14.9227 32.0849 14.1607 28.9523 14.2493C19.613 14.5128 12.1028 22.3818 12.0651 31.9292C12.0502 35.7106 13.1921 39.218 15.1495 42.1044C17.4077 45.4334 19.3827 48.9534 21.0183 52.6425Z" fill="#006BCD"/>
<path opacity="0.1" d="M106.176 136.105C114.663 134.718 120.443 126.563 119.086 117.89C117.728 109.218 109.748 103.311 101.261 104.698C92.7745 106.085 86.9948 114.24 88.352 122.913C89.7092 131.586 97.6893 137.492 106.176 136.105Z" fill="#006BCD"/>
<path opacity="0.1" d="M51.9661 90.325H50.2143C49.4081 90.325 48.7544 90.9929 48.7544 91.8172C48.7544 92.6415 49.4081 93.3094 50.2143 93.3094H51.9661C52.7723 93.3094 53.426 92.6415 53.426 91.8172C53.426 90.9929 52.7723 90.325 51.9661 90.325Z" fill="#006BCD"/>
<path opacity="0.1" d="M20.963 91.6271C19.7501 92.1179 18.5845 92.7451 17.4995 93.4919C16.8306 93.952 16.6534 94.8791 17.1039 95.5626C17.386 95.9905 17.8467 96.2214 18.3162 96.2214C18.5965 96.2214 18.8803 96.1391 19.1302 95.9669C20.0415 95.3397 21.0196 94.8134 22.0377 94.4017C22.7872 94.0982 23.1545 93.2314 22.8579 92.4655C22.5607 91.6996 21.7125 91.3248 20.963 91.6271Z" fill="#006BCD"/>
<path opacity="0.1" d="M49.8059 124.622H46.1982C45.392 124.622 44.7383 125.29 44.7383 126.115C44.7383 126.939 45.392 127.607 46.1982 127.607H49.8059C50.612 127.607 51.2657 126.939 51.2657 126.115C51.2657 125.291 50.612 124.622 49.8059 124.622Z" fill="#006BCD"/>
<path opacity="0.1" d="M28.1592 124.622H27.6736C27.6722 124.622 27.671 124.622 27.6695 124.622C26.7182 124.622 25.7655 124.533 24.8385 124.355C24.0457 124.204 23.2834 124.737 23.135 125.547C22.9867 126.358 23.5091 127.137 24.3015 127.289C25.4052 127.5 26.5384 127.607 27.6692 127.607H27.6742H28.1595C28.9656 127.607 29.6194 126.939 29.6194 126.114C29.6191 125.291 28.9653 124.622 28.1592 124.622Z" fill="#006BCD"/>
<path opacity="0.1" d="M32.175 90.325H28.5673C27.7612 90.325 27.1074 90.9929 27.1074 91.8172C27.1074 92.6415 27.7612 93.3094 28.5673 93.3094H32.175C32.9811 93.3094 33.6349 92.6415 33.6349 91.8172C33.6349 90.9929 32.9811 90.325 32.175 90.325Z" fill="#006BCD"/>
<path opacity="0.1" d="M38.9824 124.622H35.3747C34.5685 124.622 33.9148 125.29 33.9148 126.115C33.9148 126.939 34.5685 127.607 35.3747 127.607H38.9824C39.7885 127.607 40.4423 126.939 40.4423 126.115C40.4423 125.291 39.7888 124.622 38.9824 124.622Z" fill="#006BCD"/>
<path opacity="0.1" d="M42.9986 90.325H39.3906C38.5844 90.325 37.9307 90.9929 37.9307 91.8172C37.9307 92.6415 38.5844 93.3094 39.3906 93.3094H42.9986C43.8047 93.3094 44.4585 92.6415 44.4585 91.8172C44.4585 90.9929 43.8047 90.325 42.9986 90.325Z" fill="#006BCD"/>
<path opacity="0.1" d="M12.4216 110.457C12.3457 109.637 11.6329 109.031 10.8309 109.112C10.0282 109.19 9.43897 109.917 9.51459 110.738C9.63752 112.069 9.90176 113.388 10.2994 114.657C10.498 115.291 11.0717 115.695 11.6896 115.695C11.837 115.695 11.9871 115.672 12.1348 115.624C12.9028 115.372 13.3261 114.533 13.08 113.748C12.7463 112.682 12.5246 111.575 12.4216 110.457Z" fill="#006BCD"/>
<path opacity="0.1" d="M18.8246 121.748C17.9299 121.1 17.1007 120.352 16.3603 119.523C15.8166 118.916 14.8931 118.873 14.2977 119.428C13.7024 119.984 13.6609 120.928 14.2046 121.536C15.0855 122.522 16.0718 123.412 17.136 124.183C17.3924 124.368 17.687 124.458 17.979 124.458C18.4362 124.458 18.8868 124.239 19.1714 123.829C19.6377 123.156 19.4824 122.224 18.8246 121.748Z" fill="#006BCD"/>
<path opacity="0.1" d="M14.1238 98.7383C13.4365 98.3069 12.5375 98.5274 12.1159 99.2297C11.4318 100.369 10.8679 101.585 10.4396 102.845C10.1751 103.623 10.578 104.474 11.3398 104.744C11.4983 104.8 11.6598 104.827 11.8189 104.827C12.4233 104.827 12.9886 104.44 13.1979 103.824C13.5571 102.767 14.0307 101.747 14.6047 100.79C15.0263 100.088 14.8111 99.1695 14.1238 98.7383Z" fill="#006BCD"/>
<path opacity="0.1" d="M60.6293 124.622H57.0217C56.2155 124.622 55.5618 125.29 55.5618 126.115C55.5618 126.939 56.2155 127.607 57.0217 127.607H60.6293C61.4355 127.607 62.0892 126.939 62.0892 126.115C62.0892 125.291 61.4355 124.622 60.6293 124.622Z" fill="#006BCD"/>
<path opacity="0.1" d="M80.4506 124.622H78.6987C77.8925 124.622 77.2388 125.29 77.2388 126.115C77.2388 126.939 77.8925 127.607 78.6987 127.607H80.4506C81.2568 127.607 81.9105 126.939 81.9105 126.115C81.9105 125.291 81.2571 124.622 80.4506 124.622Z" fill="#006BCD"/>
<path opacity="0.1" d="M137.638 75.9599C138.315 75.512 138.508 74.5883 138.07 73.8967C137.711 73.3304 137.304 72.7895 136.862 72.2891C136.321 71.6778 135.398 71.6306 134.8 72.1835C134.202 72.7361 134.155 73.6795 134.696 74.2902C135.034 74.6724 135.345 75.0857 135.619 75.5183C135.898 75.9593 136.367 76.1995 136.846 76.1995C137.118 76.1995 137.393 76.1222 137.638 75.9599Z" fill="#006BCD"/>
<path opacity="0.1" d="M138.67 80.355C137.867 80.2711 137.153 80.8718 137.073 81.6914C136.968 82.7701 136.687 83.8132 136.238 84.7928C135.896 85.539 136.211 86.4273 136.941 86.7764C137.141 86.8725 137.352 86.9178 137.559 86.9178C138.108 86.9178 138.634 86.6001 138.882 86.0585C139.472 84.7725 139.841 83.4029 139.979 81.9877C140.058 81.1678 139.473 80.437 138.67 80.355Z" fill="#006BCD"/>
<path opacity="0.1" d="M96.1435 93.3094H99.8007C100.607 93.3094 101.261 92.6415 101.261 91.8172C101.261 90.9929 100.607 90.325 99.8007 90.325H96.1435C95.3373 90.325 94.6836 90.9929 94.6836 91.8172C94.6836 92.6415 95.3373 93.3094 96.1435 93.3094Z" fill="#006BCD"/>
<path opacity="0.1" d="M107.116 93.3094H110.773C111.579 93.3094 112.233 92.6415 112.233 91.8172C112.233 90.9929 111.579 90.325 110.773 90.325H107.116C106.31 90.325 105.656 90.9929 105.656 91.8172C105.656 92.6415 106.309 93.3094 107.116 93.3094Z" fill="#006BCD"/>
<path opacity="0.1" d="M131.893 89.3318C130.945 89.8121 129.931 90.1224 128.879 90.2537C128.079 90.3534 127.509 91.0972 127.607 91.915C127.697 92.6717 128.327 93.2267 129.054 93.2267C129.113 93.2267 129.172 93.2228 129.233 93.2153C130.614 93.0432 131.945 92.6362 133.191 92.0049C133.913 91.6388 134.208 90.7433 133.85 90.0055C133.492 89.2676 132.616 88.9663 131.893 89.3318Z" fill="#006BCD"/>
<path opacity="0.1" d="M90.2776 91.8172C90.2776 90.9929 89.6239 90.325 88.8177 90.325H87.0658C86.2597 90.325 85.606 90.9929 85.606 91.8172C85.606 92.6415 86.2597 93.3094 87.0658 93.3094H88.8177C89.6239 93.3094 90.2776 92.6415 90.2776 91.8172Z" fill="#006BCD"/>
<path opacity="0.1" d="M38.2644 68.1433C37.4582 68.1433 36.8044 68.8112 36.8044 69.6354C36.8044 70.4597 37.4582 71.1276 38.2644 71.1276H40.0163C40.8224 71.1276 41.4762 70.4597 41.4762 69.6354C41.4762 68.8112 40.8224 68.1433 40.0163 68.1433H38.2644Z" fill="#006BCD"/>
<path opacity="0.1" d="M57.8119 68.1433C57.0058 68.1433 56.3521 68.8112 56.3521 69.6354C56.3521 70.4597 57.0058 71.1276 57.8119 71.1276H61.3708C62.177 71.1276 62.8307 70.4597 62.8307 69.6354C62.8307 68.8112 62.177 68.1433 61.3708 68.1433H57.8119Z" fill="#006BCD"/>
<path opacity="0.1" d="M47.1345 68.1433C46.3283 68.1433 45.6746 68.8112 45.6746 69.6354C45.6746 70.4597 46.3283 71.1276 47.1345 71.1276H50.6934C51.4996 71.1276 52.1533 70.4597 52.1533 69.6354C52.1533 68.8112 51.4996 68.1433 50.6934 68.1433H47.1345Z" fill="#006BCD"/>
<path opacity="0.1" d="M82.7249 68.1433H79.166C78.3598 68.1433 77.7061 68.8112 77.7061 69.6354C77.7061 70.4597 78.3598 71.1276 79.166 71.1276H82.7249C83.5311 71.1276 84.1848 70.4597 84.1848 69.6354C84.1848 68.8115 83.5311 68.1433 82.7249 68.1433Z" fill="#006BCD"/>
<path opacity="0.1" d="M89.8432 71.1276H93.4021C94.2082 71.1276 94.8619 70.4597 94.8619 69.6354C94.8619 68.8112 94.2082 68.1433 93.4021 68.1433H89.8432C89.037 68.1433 88.3833 68.8112 88.3833 69.6354C88.3833 70.4597 89.037 71.1276 89.8432 71.1276Z" fill="#006BCD"/>
<path opacity="0.1" d="M68.4887 71.1276H72.0477C72.8538 71.1276 73.5076 70.4597 73.5076 69.6354C73.5076 68.8112 72.8538 68.1433 72.0477 68.1433H68.4887C67.6826 68.1433 67.0288 68.8112 67.0288 69.6354C67.0288 70.4597 67.6826 71.1276 68.4887 71.1276Z" fill="#006BCD"/>
<path opacity="0.1" d="M100.521 71.1276H102.273C103.079 71.1276 103.733 70.4597 103.733 69.6354C103.733 68.8112 103.079 68.1433 102.273 68.1433H100.521C99.7148 68.1433 99.061 68.8112 99.061 69.6354C99.061 70.4597 99.7145 71.1276 100.521 71.1276Z" fill="#006BCD"/>
</g>
<path d="M48.9122 24.6061C48.9122 14.5243 40.3048 6.38398 29.7992 6.66412C19.8109 6.93039 11.7787 14.8832 11.7384 24.5322C11.7225 28.3538 12.9438 31.8985 15.0372 34.8157C17.4517 38.1801 19.5639 41.7375 21.3136 45.4662L28.9785 61.8012C29.5031 62.9193 31.1475 62.9193 31.6721 61.8012L39.3955 45.3419C41.1377 41.6289 43.2751 38.1077 45.6631 34.7463C47.7125 31.8611 48.9122 28.3688 48.9122 24.6061Z" fill="#006BCD"/>
<path d="M39.7761 27.1361C41.109 21.266 37.5328 15.4032 31.7886 14.0411C26.0443 12.6791 20.3072 16.3335 18.9744 22.2036C17.6415 28.0737 21.2177 33.9366 26.9619 35.2986C32.7061 36.6607 38.4433 33.0062 39.7761 27.1361Z" fill="white"/>
<path d="M82.3981 90.832C82.3981 83.4568 76.4478 77.5018 69.1854 77.7068C62.2806 77.9016 56.728 83.7193 56.7003 90.778C56.6892 93.5734 57.5336 96.1666 58.9807 98.3006C60.6496 100.762 62.1098 103.364 63.3195 106.092L68.6184 118.041C68.981 118.859 70.1177 118.859 70.4803 118.041L75.8195 106.001C77.0239 103.285 78.5013 100.709 80.1522 98.2495C81.5688 96.1394 82.3981 93.5848 82.3981 90.832Z" fill="#006BCD"/>
<path d="M69.5044 98.5154C73.6043 98.5154 76.928 95.1189 76.928 90.9291C76.928 86.7394 73.6043 83.3429 69.5044 83.3429C65.4045 83.3429 62.0808 86.7394 62.0808 90.9291C62.0808 95.1189 65.4045 98.5154 69.5044 98.5154Z" fill="white"/>
<path d="M135.577 57.6429C135.577 50.1037 129.494 44.0164 122.071 44.226C115.013 44.4251 109.337 50.3721 109.308 57.5877C109.297 60.4453 110.16 63.0964 111.639 65.2775C113.345 67.7935 114.838 70.4538 116.074 73.2419L121.491 85.4571C121.862 86.2931 123.024 86.2931 123.394 85.4571L128.852 73.1488C130.083 70.3724 131.594 67.7389 133.281 65.2254C134.729 63.0684 135.577 60.4569 135.577 57.6429Z" fill="#006BCD"/>
<path d="M122.397 65.4972C126.588 65.4972 129.985 62.0252 129.985 57.7424C129.985 53.4595 126.588 49.9875 122.397 49.9875C118.206 49.9875 114.808 53.4595 114.808 57.7424C114.808 62.0252 118.206 65.4972 122.397 65.4972Z" fill="white"/>
<path d="M51.9652 85.8502H50.2133C49.4072 85.8502 48.7534 85.1823 48.7534 84.3579C48.7534 83.5336 49.4072 82.8656 50.2133 82.8656H51.9652C52.7713 82.8656 53.425 83.5336 53.425 84.3579C53.425 85.1823 52.7716 85.8502 51.9652 85.8502Z" fill="#006BCD"/>
<path d="M79.5249 80.35C76.7321 77.5736 73.0453 76.1074 69.1447 76.2157C61.5086 76.4314 55.2708 82.9611 55.2401 90.772C55.2281 93.7853 56.1064 96.6825 57.7806 99.1507C59.4248 101.575 60.8409 104.118 61.9895 106.708L66.8174 117.596C66.5502 117.866 66.3844 118.24 66.3844 118.655C66.3844 119.479 67.0381 120.147 67.8443 120.147H71.4519C72.2581 120.147 72.9118 119.479 72.9118 118.655C72.9118 118.172 72.6832 117.746 72.3343 117.474L77.1485 106.617C78.2527 104.126 79.6288 101.666 81.3553 99.0937C82.9921 96.6553 83.8575 93.7987 83.8575 90.8322C83.8575 86.8498 82.3188 83.127 79.5249 80.35ZM78.9476 97.4061C77.1231 100.124 75.6646 102.734 74.4888 105.385L69.5485 116.527L64.6485 105.476C63.4278 102.723 61.9241 100.023 60.1801 97.4511C58.8487 95.4878 58.15 93.1822 58.1596 90.7839C58.1841 84.5669 63.1481 79.3695 69.225 79.198C69.3339 79.195 69.4423 79.1932 69.5509 79.1932C72.5358 79.1932 75.3437 80.356 77.4889 82.4884C79.7129 84.6991 80.9375 87.6623 80.9375 90.8319C80.9378 93.1933 80.2496 95.4666 78.9476 97.4061Z" fill="#006BCD"/>
<path d="M28.1587 117.163H27.6737C26.7204 117.163 25.7662 117.073 24.838 116.896C24.0447 116.746 23.2826 117.278 23.1345 118.088C22.9862 118.898 23.5086 119.678 24.301 119.829C25.4059 120.041 26.5405 120.147 27.6734 120.147H28.1584C28.9645 120.147 29.6183 119.48 29.6183 118.655C29.6186 117.831 28.9651 117.163 28.1587 117.163Z" fill="#006BCD"/>
<path d="M20.9627 84.1678C19.7499 84.6586 18.5846 85.2858 17.4993 86.0326C16.8304 86.4927 16.6535 87.4198 17.104 88.1034C17.3861 88.5313 17.8468 88.7622 18.3163 88.7622C18.5966 88.7622 18.8804 88.6799 19.1303 88.5077C20.0413 87.8805 21.0194 87.3542 22.0375 86.9424C22.787 86.639 23.1543 85.7722 22.8577 85.0062C22.5607 84.24 21.7122 83.8655 20.9627 84.1678Z" fill="#006BCD"/>
<path d="M18.8243 114.289C17.9297 113.641 17.1004 112.893 16.36 112.064C15.8163 111.457 14.8928 111.414 14.2975 111.969C13.7021 112.525 13.6606 113.469 14.2043 114.077C15.0852 115.062 16.0715 115.952 17.1358 116.723C17.3921 116.909 17.6867 116.998 17.9787 116.998C18.436 116.998 18.8865 116.78 19.1709 116.369C19.6372 115.697 19.4821 114.766 18.8243 114.289Z" fill="#006BCD"/>
<path d="M12.4208 102.998C12.3449 102.177 11.6319 101.573 10.8301 101.653C10.0275 101.73 9.43824 102.458 9.51386 103.278C9.63679 104.609 9.90103 105.928 10.2987 107.198C10.4973 107.831 11.071 108.235 11.6888 108.235C11.8363 108.235 11.9864 108.212 12.1341 108.164C12.902 107.913 13.3254 107.073 13.0793 106.288C12.7458 105.223 12.5242 104.116 12.4208 102.998Z" fill="#006BCD"/>
<path d="M14.1237 91.2788C13.4364 90.8477 12.5373 91.0679 12.1157 91.7703C11.4319 92.9092 10.8678 94.1259 10.4391 95.3854C10.1746 96.1635 10.5775 97.0139 11.339 97.2842C11.4976 97.3406 11.6593 97.3672 11.8182 97.3672C12.4226 97.3672 12.9876 96.9808 13.1972 96.3649C13.5567 95.3078 14.0303 94.2868 14.6043 93.3308C15.0259 92.6287 14.8107 91.71 14.1237 91.2788Z" fill="#006BCD"/>
<path d="M42.9982 82.8656H39.3906C38.5844 82.8656 37.9307 83.5336 37.9307 84.3579C37.9307 85.1823 38.5844 85.8502 39.3906 85.8502H42.9982C43.8044 85.8502 44.4581 85.1823 44.4581 84.3579C44.4581 83.5336 43.8044 82.8656 42.9982 82.8656Z" fill="#006BCD"/>
<path d="M49.8054 117.163H46.1977C45.3915 117.163 44.7378 117.831 44.7378 118.655C44.7378 119.48 45.3915 120.147 46.1977 120.147H49.8054C50.6115 120.147 51.2653 119.48 51.2653 118.655C51.2653 117.831 50.6115 117.163 49.8054 117.163Z" fill="#006BCD"/>
<path d="M60.6286 117.163H57.0209C56.2148 117.163 55.561 117.831 55.561 118.655C55.561 119.48 56.2148 120.147 57.0209 120.147H60.6286C61.4348 120.147 62.0885 119.48 62.0885 118.655C62.0885 117.831 61.4348 117.163 60.6286 117.163Z" fill="#006BCD"/>
<path d="M32.1745 82.8656H28.5668C27.7607 82.8656 27.1069 83.5336 27.1069 84.3579C27.1069 85.1823 27.7607 85.8502 28.5668 85.8502H32.1745C32.9807 85.8502 33.6344 85.1823 33.6344 84.3579C33.6344 83.5336 32.9807 82.8656 32.1745 82.8656Z" fill="#006BCD"/>
<path d="M38.982 117.163H35.374C34.5678 117.163 33.9141 117.831 33.9141 118.655C33.9141 119.48 34.5678 120.147 35.374 120.147H38.982C39.7881 120.147 40.4419 119.48 40.4419 118.655C40.4419 117.831 39.7881 117.163 38.982 117.163Z" fill="#006BCD"/>
<path d="M80.45 120.147H78.6982C77.892 120.147 77.2383 119.48 77.2383 118.655C77.2383 117.831 77.892 117.163 78.6982 117.163H80.45C81.2562 117.163 81.9099 117.831 81.9099 118.655C81.9099 119.48 81.2562 120.147 80.45 120.147Z" fill="#006BCD"/>
<path d="M136.846 68.7404C136.367 68.7404 135.898 68.4999 135.619 68.0592C135.344 67.6262 135.033 67.213 134.696 66.831C134.155 66.22 134.201 65.2765 134.799 64.7242C135.397 64.1716 136.32 64.2187 136.861 64.8298C137.304 65.3299 137.71 65.8706 138.069 66.4375C138.508 67.1291 138.314 68.0529 137.637 68.5008C137.392 68.6631 137.117 68.7404 136.846 68.7404Z" fill="#006BCD"/>
<path d="M119.583 41.9182C111.947 42.1339 105.709 48.6638 105.678 56.4747C105.666 59.4883 106.545 62.3855 108.219 64.853C109.864 67.2785 111.28 69.8213 112.428 72.4103L117.202 83.1783C116.855 83.451 116.628 83.8753 116.628 84.3575C116.628 85.1816 117.281 85.8494 118.087 85.8494H121.745C122.551 85.8494 123.205 85.1816 123.205 84.3575C123.205 83.9246 123.021 83.5382 122.733 83.2657L127.587 72.3196C128.692 69.8281 130.068 67.3674 131.794 64.7967C133.431 62.3583 134.296 59.5017 134.296 56.535C134.296 52.5529 132.757 48.8303 129.964 46.0531C127.171 43.2767 123.488 41.8138 119.583 41.9182ZM129.386 63.1082C127.562 65.8249 126.104 68.4353 124.927 71.0879L119.987 82.2292L115.087 71.1789C113.867 68.4264 112.363 65.7267 110.619 63.1535C109.288 61.1908 108.589 58.8853 108.598 56.4869C108.623 50.2697 113.587 45.0723 119.664 44.9007C119.772 44.8978 119.881 44.896 119.989 44.896C122.974 44.896 125.783 46.059 127.928 48.1915C130.151 50.4022 131.376 53.365 131.376 56.5347C131.376 58.8963 130.688 61.1693 129.386 63.1082Z" fill="#006BCD"/>
<path d="M99.8008 82.8656H96.1435C95.3373 82.8656 94.6836 83.5336 94.6836 84.3579C94.6836 85.1823 95.3373 85.8502 96.1435 85.8502H99.8008C100.607 85.8502 101.261 85.1823 101.261 84.3579C101.261 83.5336 100.607 82.8656 99.8008 82.8656Z" fill="#006BCD"/>
<path d="M110.772 82.8656H107.115C106.309 82.8656 105.655 83.5336 105.655 84.3579C105.655 85.1823 106.309 85.8502 107.115 85.8502H110.772C111.579 85.8502 112.232 85.1823 112.232 84.3579C112.232 83.5336 111.579 82.8656 110.772 82.8656Z" fill="#006BCD"/>
<path d="M138.67 72.8956C137.871 72.8171 137.153 73.4124 137.073 74.232C136.967 75.3107 136.687 76.3541 136.238 77.3333C135.896 78.0796 136.21 78.9678 136.941 79.3169C137.141 79.413 137.351 79.4584 137.559 79.4584C138.108 79.4584 138.634 79.1406 138.882 78.5991C139.471 77.3134 139.84 75.9438 139.978 74.5283C140.058 73.7084 139.473 72.9777 138.67 72.8956Z" fill="#006BCD"/>
<path d="M131.893 81.8725C130.945 82.3529 129.931 82.6632 128.879 82.7947C128.078 82.8947 127.509 83.6385 127.606 84.4564C127.697 85.2128 128.326 85.7675 129.054 85.7675C129.113 85.7675 129.173 85.7636 129.233 85.7561C130.614 85.5836 131.946 85.1764 133.191 84.5453C133.913 84.1792 134.208 83.2838 133.85 82.5459C133.491 81.808 132.616 81.507 131.893 81.8725Z" fill="#006BCD"/>
<path d="M88.8175 85.8503H87.0656C86.2595 85.8503 85.6057 85.1824 85.6057 84.358C85.6057 83.5337 86.2595 82.8657 87.0656 82.8657H88.8175C89.6237 82.8657 90.2775 83.5337 90.2775 84.358C90.2775 85.1824 89.624 85.8503 88.8175 85.8503Z" fill="#006BCD"/>
<path d="M40.0162 63.6685H38.2643C37.4582 63.6685 36.8044 63.0005 36.8044 62.1762C36.8044 61.3519 37.4582 60.684 38.2643 60.684H40.0162C40.8223 60.684 41.4761 61.3519 41.4761 62.1762C41.4761 63.0005 40.8223 63.6685 40.0162 63.6685Z" fill="#006BCD"/>
<path d="M93.4023 63.6685H89.8431C89.0369 63.6685 88.3832 63.0005 88.3832 62.1762C88.3832 61.3519 89.0369 60.684 89.8431 60.684H93.4023C94.2084 60.684 94.8622 61.3519 94.8622 62.1762C94.8622 63.0005 94.2084 63.6685 93.4023 63.6685ZM82.7249 63.6685H79.1657C78.3595 63.6685 77.7058 63.0005 77.7058 62.1762C77.7058 61.3519 78.3595 60.684 79.1657 60.684H82.7249C83.5311 60.684 84.1848 61.3519 84.1848 62.1762C84.1848 63.0005 83.5311 63.6685 82.7249 63.6685ZM72.0478 63.6685H68.4889C67.6828 63.6685 67.029 63.0005 67.029 62.1762C67.029 61.3519 67.6828 60.684 68.4889 60.684H72.0478C72.854 60.684 73.5077 61.3519 73.5077 62.1762C73.5077 63.0005 72.854 63.6685 72.0478 63.6685ZM61.3705 63.6685H57.8115C57.0054 63.6685 56.3516 63.0005 56.3516 62.1762C56.3516 61.3519 57.0054 60.684 57.8115 60.684H61.3705C62.1766 60.684 62.8304 61.3519 62.8304 62.1762C62.8304 63.0005 62.1769 63.6685 61.3705 63.6685ZM50.6934 63.6685H47.1345C46.3283 63.6685 45.6746 63.0005 45.6746 62.1762C45.6746 61.3519 46.3283 60.684 47.1345 60.684H50.6934C51.4995 60.684 52.1533 61.3519 52.1533 62.1762C52.1533 63.0005 51.4995 63.6685 50.6934 63.6685Z" fill="#006BCD"/>
<path d="M102.272 63.6685H100.52C99.714 63.6685 99.0603 63.0005 99.0603 62.1762C99.0603 61.3519 99.714 60.684 100.52 60.684H102.272C103.078 60.684 103.732 61.3519 103.732 62.1762C103.732 63.0005 103.078 63.6685 102.272 63.6685Z" fill="#006BCD"/>
<path d="M50.2942 33.9391C58.8841 33.9391 65.8477 26.8231 65.8477 18.045C65.8477 9.26691 58.8841 2.15088 50.2942 2.15088C41.7042 2.15088 34.7407 9.26691 34.7407 18.045C34.7407 26.8231 41.7042 33.9391 50.2942 33.9391Z" fill="white"/>
<path d="M54.0859 20.206C55.2474 19.1408 55.9835 17.6003 55.9835 15.8838C55.9835 12.6778 53.4313 10.0697 50.294 10.0697C47.1567 10.0697 44.6045 12.6778 44.6045 15.8838C44.6045 17.6003 45.3406 19.1408 46.5021 20.206C45.3406 21.2711 44.6045 22.8116 44.6045 24.5282C44.6045 25.352 45.2582 26.02 46.0644 26.02C46.8705 26.02 47.5243 25.352 47.5243 24.5282C47.5243 22.9677 48.7667 21.6978 50.294 21.6978C51.8211 21.6978 53.0637 22.9674 53.0637 24.5282C53.0637 25.352 53.7175 26.02 54.5236 26.02C55.3298 26.02 55.9835 25.352 55.9835 24.5282C55.9835 22.8116 55.2474 21.2711 54.0859 20.206ZM47.5243 15.8838C47.5243 14.3233 48.7667 13.0534 50.294 13.0534C51.8211 13.0534 53.0637 14.323 53.0637 15.8838C53.0637 17.4445 51.8213 18.7141 50.294 18.7141C48.7667 18.7144 47.5243 17.4445 47.5243 15.8838Z" fill="#006BCD"/>
<path d="M50.2943 0.658936C45.0205 0.658936 40.2998 3.12381 37.1768 6.98479C34.5992 5.80024 31.7647 5.21811 28.9124 5.29837C24.015 5.43682 19.4207 7.49919 15.9762 11.1062C12.5329 14.7124 10.6254 19.456 10.6059 24.4636C10.5901 28.4308 11.7466 32.2455 13.9502 35.4948C16.1923 38.8011 18.1232 42.268 19.6887 45.7989L26.8557 61.9622C27.3222 63.014 28.3144 63.6677 29.4449 63.6677C30.5752 63.6677 31.5673 63.0143 32.0336 61.9619L39.2551 45.676C39.9521 44.1039 40.7638 42.4786 41.668 40.8447C42.0648 40.1277 41.8178 39.2174 41.1159 38.8119C40.4143 38.4067 39.5235 38.6591 39.1267 39.3764C38.1798 41.087 37.3284 42.7925 36.5955 44.4449L29.4443 60.5718L22.3484 44.5675C20.7104 40.8731 18.6922 37.249 16.35 33.7953C14.4889 31.0508 13.5122 27.8284 13.5257 24.4758C13.5598 15.786 20.4987 8.52082 28.9932 8.28123C31.2275 8.21678 33.4439 8.64047 35.4883 9.49711C34.0862 12.0235 33.2812 14.9389 33.2812 18.045C33.2812 27.6318 40.9133 35.4313 50.2946 35.4313C59.6758 35.4313 67.3079 27.6318 67.3079 18.045C67.3076 8.45787 59.6755 0.658936 50.2943 0.658936ZM50.2943 32.4472C42.5229 32.4472 36.2007 25.9865 36.2007 18.0447C36.2007 10.1034 42.5229 3.64239 50.2943 3.64239C58.0656 3.64239 64.3878 10.1031 64.3878 18.0447C64.3878 25.9862 58.0656 32.4472 50.2943 32.4472Z" fill="#006BCD"/>
<path d="M114.586 124.16C120.659 117.954 120.659 107.892 114.586 101.686C108.513 95.4798 98.6663 95.4798 92.5932 101.686C86.5201 107.892 86.5201 117.954 92.5932 124.16C98.6663 130.366 108.513 130.366 114.586 124.16Z" fill="white"/>
<path d="M107.405 115.086C108.566 114.021 109.302 112.48 109.302 110.763C109.302 107.557 106.75 104.949 103.613 104.949C100.476 104.949 97.9233 107.557 97.9233 110.763C97.9233 112.48 98.6594 114.021 99.8209 115.086C98.6594 116.151 97.9233 117.691 97.9233 119.408C97.9233 120.232 98.5771 120.9 99.3832 120.9C100.189 120.9 100.843 120.232 100.843 119.408C100.843 117.848 102.086 116.578 103.613 116.578C105.14 116.578 106.383 117.847 106.383 119.408C106.383 120.232 107.036 120.9 107.842 120.9C108.649 120.9 109.302 120.232 109.302 119.408C109.302 117.691 108.566 116.151 107.405 115.086ZM100.843 110.763C100.843 109.203 102.086 107.933 103.613 107.933C105.14 107.933 106.383 109.203 106.383 110.763C106.383 112.324 105.14 113.594 103.613 113.594C102.086 113.594 100.843 112.324 100.843 110.763Z" fill="#006BCD"/>
<path d="M103.613 130.311C94.2319 130.311 86.5999 122.511 86.5999 112.925C86.5999 105.186 91.6855 98.3091 98.9675 96.1999C99.7433 95.9755 100.55 96.4359 100.77 97.2284C100.99 98.0208 100.54 98.8459 99.7637 99.0705C93.7323 100.817 89.5196 106.514 89.5196 112.925C89.5196 120.866 95.8419 127.327 103.613 127.327C111.384 127.327 117.707 120.866 117.707 112.925C117.707 106.535 113.512 100.843 107.505 99.0828C106.729 98.8554 106.282 98.0295 106.504 97.2373C106.726 96.4451 107.534 95.9874 108.309 96.2142C115.562 98.3392 120.627 105.21 120.627 112.924C120.627 122.511 112.994 130.311 103.613 130.311Z" fill="#006BCD"/>
<path d="M71.3951 49.5553C71.0214 49.5553 70.6479 49.4097 70.3627 49.1182L68.6213 47.3386L66.88 49.1182C66.3097 49.7009 65.3856 49.7009 64.8154 49.1182C64.2451 48.5357 64.2451 47.5911 64.8154 47.0086L67.5892 44.174C68.1594 43.5913 69.0835 43.5913 69.6538 44.174L72.4275 47.0086C72.9978 47.5911 72.9978 48.5357 72.4275 49.1182C72.1423 49.4094 71.7688 49.5553 71.3951 49.5553Z" fill="#006BCD"/>
<path d="M79.7018 36.8483C79.328 36.8483 78.9546 36.7027 78.6693 36.4111L76.928 34.6316L75.1866 36.4111C74.6164 36.9939 73.6922 36.9939 73.122 36.4111C72.5518 35.8287 72.5518 34.8841 73.122 34.3016L75.8958 31.4671C76.466 30.8843 77.3902 30.8843 77.9604 31.4671L80.7342 34.3016C81.3044 34.8841 81.3044 35.8287 80.7342 36.4111C80.4489 36.7024 80.0752 36.8483 79.7018 36.8483Z" fill="#006BCD"/>
<path d="M14.8205 61.6456C13.6897 61.6456 12.6263 61.1954 11.8265 60.3781C10.176 58.6914 10.176 55.9466 11.8265 54.2599C13.4771 52.5732 16.1633 52.5729 17.8138 54.2599C19.4644 55.9466 19.4644 58.6914 17.8138 60.3781C17.0147 61.1954 15.9513 61.6456 14.8205 61.6456ZM14.8205 55.9771C14.4841 55.9771 14.1475 56.1078 13.8914 56.3694C13.3793 56.8931 13.3793 57.7446 13.8914 58.2683C14.1396 58.5222 14.4695 58.6616 14.8205 58.6616C15.1714 58.6616 15.5014 58.5219 15.7493 58.2683C16.2617 57.7446 16.2617 56.8931 15.7493 56.3694C15.4935 56.1078 15.1571 55.9771 14.8205 55.9771Z" fill="#006BCD"/>
<path d="M127.366 135.978C126.282 135.978 125.198 135.556 124.372 134.713C122.722 133.026 122.722 130.281 124.372 128.594C126.023 126.907 128.709 126.907 130.36 128.594C131.159 129.411 131.6 130.498 131.6 131.654C131.6 132.809 131.159 133.896 130.36 134.713C129.534 135.556 128.45 135.978 127.366 135.978ZM127.366 130.312C127.03 130.312 126.693 130.442 126.437 130.704C125.925 131.228 125.925 132.079 126.437 132.603C126.949 133.126 127.783 133.126 128.295 132.603C128.543 132.349 128.68 132.012 128.68 131.653C128.68 131.295 128.543 130.958 128.295 130.704V130.704C128.039 130.442 127.703 130.312 127.366 130.312Z" fill="#006BCD"/>
<path d="M127.596 101.355C126.512 101.355 125.428 100.933 124.602 100.09C123.803 99.2729 123.362 98.1863 123.362 97.0307C123.362 95.8751 123.803 94.7884 124.603 93.9712C126.253 92.2845 128.939 92.2845 130.59 93.9715L130.589 93.9712C130.59 93.9715 130.59 93.9715 130.59 93.9715C131.389 94.7884 131.83 95.8751 131.83 97.0307C131.83 98.1863 131.389 99.2729 130.589 100.09C129.764 100.933 128.68 101.355 127.596 101.355ZM127.596 95.6886C127.26 95.6886 126.923 95.8196 126.667 96.0813C126.418 96.3352 126.282 96.672 126.282 97.031C126.282 97.3896 126.419 97.7268 126.667 97.9804C127.179 98.5043 128.013 98.504 128.525 97.9807C128.774 97.7268 128.91 97.3899 128.91 97.031C128.91 96.6723 128.773 96.3352 128.525 96.0816L128.525 96.0813C128.269 95.8193 127.932 95.6886 127.596 95.6886Z" fill="#006BCD"/>
<defs>
<linearGradient id="paint0_linear" x1="170.248" y1="-6.96155" x2="21.4117" y2="211.777" gradientUnits="userSpaceOnUse">
<stop stop-color="#006BCD"/>
<stop offset="1" stop-color="#B7C5FF"/>
</linearGradient>
</defs>
</svg>
