<svg width="150" height="138" viewBox="0 0 150 138" fill="none" xmlns="http://www.w3.org/2000/svg">
<path d="M147.033 31.4016C140.483 14.7352 120.307 4.74052 103.218 11.3546C83.1291 19.1297 90.5412 49.8026 72.4613 56.2046C62.8903 59.5937 48.7419 46.9339 39.0719 44.9927C21.2532 41.4155 5.12238 53.9883 1.15031 71.3991C-2.90203 89.1618 3.59748 112.886 23.1133 117.708C46.3604 123.45 58.4696 102.553 77.9714 96.552C97.9844 90.3941 120.236 104.937 136.804 87.2426C149.044 74.17 153.519 47.9048 147.033 31.4016Z" fill="url(#paint0_linear)"/>
<path opacity="0.1" d="M82.3799 113.603L92.9713 90.2301C96.4233 82.6117 100.658 75.3868 105.39 68.4901C109.451 62.5709 111.828 55.4058 111.828 47.6849C111.828 26.9989 94.773 10.2965 73.9576 10.8716C54.1673 11.4183 38.2523 27.7355 38.1727 47.5334C38.141 55.3744 40.5609 62.6477 44.7088 68.633C49.4927 75.5362 53.678 82.8353 57.1444 90.4853L67.6201 113.603C37.9828 114.344 15.0322 119.487 15.0322 125.722C15.0322 132.465 41.8805 137.932 74.9997 137.932C108.119 137.932 134.967 132.465 134.967 125.722C134.967 119.487 112.017 114.344 82.3799 113.603Z" fill="#006BCD"/>
<path d="M74.9997 130.608C108.119 130.608 134.967 125.141 134.967 118.397C134.967 111.654 108.119 106.187 74.9997 106.187C41.8806 106.187 15.0322 111.654 15.0322 118.397C15.0322 125.141 41.8806 130.608 74.9997 130.608Z" fill="#006BCD"/>
<path d="M72.7822 106.195V109.034C72.7822 110.446 71.7744 111.658 70.3857 111.915L65.2356 112.868C63.8467 113.125 62.8389 114.336 62.8389 115.749V118.453C62.8389 120.071 61.5272 121.383 59.9092 121.383H53.86C53.083 121.383 52.3377 121.074 51.7884 120.525L49.1159 117.852C48.5666 117.303 47.8213 116.994 47.0443 116.994H38.99C37.9746 116.994 37.0315 116.468 36.4978 115.604L32.8564 109.711C43.1953 107.63 57.2344 106.309 72.7822 106.195Z" fill="white"/>
<path d="M134.968 118.397C134.968 125.141 108.12 130.608 75 130.608C74.4932 130.608 73.9863 130.608 73.4824 130.605L75.956 125.257C76.3307 124.447 77.1416 123.928 78.034 123.928H90.0729C90.9855 123.928 91.8108 123.386 92.1738 122.549L92.8181 121.062C93.181 120.225 94.0063 119.683 94.9189 119.683H99.9712C100.578 119.683 101.16 119.924 101.589 120.353L102.797 121.56C103.226 121.988 103.808 122.229 104.415 122.229H106.392C107.357 122.229 108.218 121.625 108.546 120.717L109.133 119.092C109.533 117.982 109.025 116.749 107.958 116.245L104.073 114.408C103.272 114.03 102.762 113.224 102.762 112.338C102.762 111.256 103.52 110.321 104.579 110.098L111.311 108.679C125.689 110.909 134.968 114.433 134.968 118.397Z" fill="white"/>
<path d="M111.828 40.3607C111.828 19.6747 94.7731 2.97228 73.9576 3.54738C54.1673 4.09406 38.2524 20.4112 38.1727 40.2092C38.141 48.0502 40.561 55.3235 44.7088 61.3088C49.4927 68.212 53.678 75.511 57.1445 83.161L72.3317 116.677C73.3711 118.971 76.6292 118.971 77.6687 116.677L92.9716 82.9059C96.4237 75.2875 100.659 68.0626 105.39 61.1658C109.451 55.2467 111.828 48.0816 111.828 40.3607Z" fill="white"/>
<path d="M131.652 112.708C128.976 111.296 125.155 110.012 120.295 108.892C110.984 106.745 98.3694 105.328 84.623 104.879L94.3056 83.5105C97.5382 76.377 101.559 69.339 106.598 61.9949C110.116 56.8665 112.346 50.8925 113.046 44.7179C113.137 43.914 112.559 43.1883 111.755 43.0975C110.952 43.0032 110.226 43.5841 110.135 44.3878C109.488 50.0878 107.43 55.6029 104.182 60.337C99.045 67.825 94.9417 75.0095 91.6376 82.3014L76.3343 116.072C75.9725 116.871 75.2216 116.932 74.9999 116.932C74.7784 116.932 74.0275 116.87 73.6657 116.072L58.4785 82.5566C55.0475 74.9845 50.8197 67.5551 45.9125 60.4744C41.7781 54.5084 39.6078 47.5029 39.6374 40.2153C39.6743 31.0208 43.2558 22.3082 49.7219 15.6821C56.1892 9.05514 64.8104 5.26559 73.9979 5.01188C82.9162 4.76696 91.516 7.84782 98.2197 13.6902C104.858 19.4757 109.082 27.4539 110.112 36.155C110.208 36.9584 110.936 37.5358 111.74 37.4374C112.543 37.3424 113.117 36.6138 113.022 35.8105C111.905 26.386 107.332 17.7458 100.145 11.4815C92.885 5.15455 83.5748 1.81266 73.917 2.08336C63.9643 2.35817 54.6271 6.4609 47.6251 13.6363C40.625 20.8093 36.7478 30.2444 36.7077 40.2036C36.676 48.095 39.0265 55.6814 43.5048 62.1434C48.3116 69.0798 52.4518 76.3548 55.8101 83.7663L70.9973 117.282C71.7186 118.874 73.2523 119.863 74.9999 119.863C76.7474 119.863 78.2814 118.874 79.0027 117.282L83.3129 107.77C97.3463 108.169 110.233 109.578 119.637 111.747C133.114 114.854 133.503 118.044 133.503 118.398C133.503 119.377 132.051 120.66 129.62 121.831C126.75 123.212 122.424 124.515 117.111 125.597C105.878 127.884 90.923 129.143 75.0005 129.143C59.0779 129.143 44.1224 127.884 32.8894 125.597C19.9501 122.962 16.4978 119.832 16.4978 118.398C16.4978 116.986 19.5163 114.547 28.0229 112.322C35.9313 110.254 47.1245 108.742 59.5399 108.065C60.3476 108.021 60.9669 107.331 60.923 106.523C60.8791 105.715 60.1874 105.094 59.3805 105.14C51.7302 105.557 13.5681 108.155 13.5681 118.398C13.5681 122.548 19.8722 125.936 32.3049 128.467C43.7246 130.792 58.8875 132.073 75.0005 132.073C91.1134 132.073 106.276 130.793 117.696 128.467C130.129 125.936 136.433 122.548 136.433 118.398C136.432 116.297 134.824 114.383 131.652 112.708Z" fill="#006BCD"/>
<path d="M95.0424 60.8205C106.19 49.673 106.19 31.5994 95.0424 20.4519C83.8949 9.30445 65.8213 9.30445 54.6738 20.4519C43.5263 31.5994 43.5263 49.673 54.6738 60.8205C65.8213 71.968 83.8949 71.968 95.0424 60.8205Z" fill="#006BCD"/>
<path d="M90.9065 58.551H59.0933C57.9824 58.551 57.0818 57.6504 57.0818 56.5395V24.7266C57.0818 23.6157 57.9824 22.7151 59.0933 22.7151H90.9062C92.0171 22.7151 92.9177 23.6157 92.9177 24.7266V56.5395C92.918 57.6504 92.0174 58.551 90.9065 58.551Z" fill="white"/>
<path d="M87.8889 27.7437V53.5223H62.1106V27.7437H87.8889Z" fill="#006BCD"/>
<path d="M87.374 24.7051L90.9294 28.2604L63.2406 55.9492L59.6852 52.3939L87.374 24.7051Z" fill="white"/>
<path d="M60.1912 29.1287L63.7465 25.5733L91.4353 53.2621L87.8799 56.8175L60.1912 29.1287Z" fill="white"/>
<path d="M131.393 103.479C131.018 103.479 130.643 103.336 130.357 103.049L128.61 101.302L126.862 103.049C126.29 103.622 125.363 103.622 124.791 103.049C124.219 102.478 124.219 101.55 124.791 100.978L127.574 98.195C128.146 97.6228 129.073 97.6228 129.645 98.195L132.429 100.978C133.001 101.55 133.001 102.478 132.429 103.049C132.142 103.336 131.768 103.479 131.393 103.479Z" fill="#006BCD"/>
<path d="M109.737 98.9607C108.65 98.9607 107.562 98.5468 106.734 97.7186C105.077 96.0624 105.077 93.3671 106.734 91.7109C108.39 90.0542 111.085 90.0545 112.741 91.7109C114.398 93.3671 114.398 96.0624 112.741 97.7186C111.913 98.5468 110.825 98.9607 109.737 98.9607ZM109.737 93.397C109.4 93.397 109.062 93.5256 108.805 93.7822C108.291 94.2964 108.291 95.1328 108.805 95.647C109.319 96.1608 110.155 96.1608 110.67 95.647C111.184 95.1328 111.184 94.2964 110.67 93.7822C110.413 93.5253 110.075 93.397 109.737 93.397Z" fill="#006BCD"/>
<path d="M29.5396 37.7676C28.4518 37.7676 27.3637 37.3536 26.5358 36.5254C24.8793 34.8692 24.8793 32.1739 26.5358 30.5177C28.1919 28.8616 30.8873 28.8616 32.5434 30.5177C34.1999 32.1739 34.1999 34.8689 32.5434 36.5254C31.7152 37.3536 30.6271 37.7676 29.5396 37.7676ZM29.5393 32.2038C29.2018 32.2038 28.864 32.3321 28.6071 32.589C28.0929 33.1032 28.0929 33.9396 28.6071 34.4538C29.1209 34.9677 29.9577 34.9674 30.4715 34.4538C30.9857 33.9396 30.9857 33.1032 30.4715 32.589C30.2146 32.3321 29.8771 32.2038 29.5393 32.2038Z" fill="#006BCD"/>
<path d="M29.5395 48.88C29.1645 48.88 28.7898 48.7371 28.5035 48.4508L26.7563 46.7036L25.009 48.4508C24.4368 49.023 23.5096 49.023 22.9374 48.4508C22.3653 47.879 22.3653 46.9514 22.9374 46.3796L25.7206 43.5964C26.2928 43.0242 27.22 43.0242 27.7922 43.5964L30.5754 46.3796C31.1476 46.9514 31.1476 47.879 30.5754 48.4508C30.2892 48.7371 29.9145 48.88 29.5395 48.88Z" fill="#006BCD"/>
<path d="M121.621 22.912C121.246 22.912 120.871 22.7691 120.585 22.4828L118.837 20.7356L117.09 22.4828C116.518 23.055 115.591 23.055 115.018 22.4828C114.446 21.911 114.446 20.9834 115.018 20.4115L117.802 17.6283C118.374 17.0562 119.301 17.0562 119.873 17.6283L122.656 20.4115C123.229 20.9834 123.229 21.911 122.656 22.4828C122.37 22.7691 121.996 22.912 121.621 22.912Z" fill="#006BCD"/>
<defs>
<linearGradient id="paint0_linear" x1="170.826" y1="0.0579916" x2="52.9428" y2="204.344" gradientUnits="userSpaceOnUse">
<stop stop-color="#006BCD"/>
<stop offset="1" stop-color="#B7C5FF"/>
</linearGradient>
</defs>
</svg>
