<svg width="155" height="137" viewBox="0 0 155 137" fill="none" xmlns="http://www.w3.org/2000/svg">
<path d="M110.444 10.4598C89.5261 2.2754 60.5587 5.38479 44.5507 19.999C33.2478 30.3177 41.9959 33.2588 49.702 52.1403C55.2793 65.8057 0 63.9248 0 88.6183C0 117.166 40.0369 111.754 54.8945 115.022C77.6105 120.018 97.4275 138.709 121.698 136.245C142.828 134.1 150.883 117.519 153.821 98.5113C159.295 63.0987 145.85 24.313 110.444 10.4598Z" fill="url(#paint0_linear)"/>
<g opacity="0.1">
<path opacity="0.1" d="M143.954 111.79L143.953 84.6649C143.953 82.9908 142.597 81.6376 140.926 81.6376H133.503V55.9847C133.503 54.9733 132.683 54.1535 131.672 54.1535H77.7483C76.7372 54.1535 75.9171 54.9733 75.9171 55.9847V81.6376H68.2909V45.6545C68.2909 43.9834 66.9347 42.6272 65.2636 42.6272H39.7582C32.7136 42.6272 26.6014 47.4891 25.015 54.3551L16.359 91.8227C15.6542 91.2678 14.8359 90.9439 13.9598 90.9439C11.3336 90.9439 9.20443 93.8029 9.20443 97.3298C9.20443 100.701 11.1513 103.455 13.6168 103.692L11.7462 111.79H11.0469C9.37487 111.79 8.01953 113.146 8.01953 114.818V120.612C8.01953 122.284 9.37487 123.64 11.0469 123.64H20.8518C22.3473 128.611 26.958 132.233 32.4166 132.233C37.8752 132.233 42.4858 128.611 43.9813 123.64H115.408C116.903 128.611 121.514 132.233 126.973 132.233C132.431 132.233 137.042 128.611 138.537 123.64H143.954C145.626 123.64 146.981 122.284 146.981 120.612V114.818C146.981 113.146 145.625 111.79 143.954 111.79Z" fill="#006BCD"/>
<g opacity="0.1">
<path opacity="0.1" d="M102.647 41.2603L130.688 48.4939C131.668 48.7466 132.666 48.1575 132.919 47.1782L140.153 19.1368C140.405 18.1574 139.816 17.159 138.837 16.9065L110.795 9.67271C109.816 9.42023 108.818 10.009 108.565 10.9884L101.331 39.0298C101.079 40.0091 101.668 41.0075 102.647 41.2603Z" fill="#006BCD"/>
<path opacity="0.1" d="M85.9187 46.7939C85.9187 47.63 86.5965 48.3076 87.4324 48.3076C88.2682 48.3076 88.946 47.63 88.946 46.7939C88.946 42.027 91.9952 37.8547 96.5332 36.411C97.3296 36.1576 97.7701 35.3066 97.5167 34.5098C97.263 33.713 96.4118 33.2735 95.6156 33.5262C89.8155 35.3708 85.9187 40.7026 85.9187 46.7939Z" fill="#006BCD"/>
<path opacity="0.1" d="M80.746 48.3077C81.5819 48.3077 82.2597 47.6302 82.2597 46.794C82.2597 39.4733 86.9424 33.0656 93.912 30.8487C94.7084 30.5953 95.1489 29.7443 94.8955 28.9475C94.6421 28.151 93.7909 27.7112 92.9944 27.964C84.763 30.582 79.2327 38.1492 79.2327 46.794C79.2324 47.6299 79.9102 48.3077 80.746 48.3077Z" fill="#006BCD"/>
</g>
</g>
<path d="M106.708 79.2065H77.7485C76.7373 79.2065 75.9172 78.3867 75.9172 77.3752V48.416C75.9172 47.4048 76.737 46.5847 77.7485 46.5847H106.708C107.719 46.5847 108.539 47.4045 108.539 48.416V77.3752C108.539 78.3867 107.719 79.2065 106.708 79.2065Z" fill="white"/>
<path d="M103.961 51.1626V74.6288H80.4956V51.1626H103.961Z" fill="#006BCD"/>
<path d="M103.493 48.3904L106.73 51.6268L81.5244 76.832L78.288 73.5956L103.493 48.3904Z" fill="white"/>
<path d="M131.672 79.2065H102.713C101.702 79.2065 100.882 78.3867 100.882 77.3752V48.416C100.882 47.4048 101.702 46.5847 102.713 46.5847H131.672C132.683 46.5847 133.503 47.4045 133.503 48.416V77.3752C133.503 78.3867 132.683 79.2065 131.672 79.2065Z" fill="white"/>
<path d="M128.926 51.1626V74.6287H105.46V51.1626H128.926Z" fill="#006BCD"/>
<path d="M128.455 48.3877L131.691 51.6241L106.486 76.8291L103.25 73.5927L128.455 48.3877Z" fill="white"/>
<path d="M130.688 40.9255L102.647 33.692C101.668 33.4395 101.079 32.4408 101.331 31.4614L108.565 3.42003C108.817 2.44069 109.816 1.85187 110.795 2.10435L138.837 9.33789C139.816 9.59037 140.405 10.5891 140.153 11.5684L132.919 39.6098C132.666 40.5889 131.668 41.178 130.688 40.9255Z" fill="white"/>
<path d="M135.016 13.0476L129.149 35.7628L106.434 29.8963L112.3 7.18107L135.016 13.0476Z" fill="#006BCD"/>
<path d="M131.145 42.4973C130.869 42.4973 130.59 42.4631 130.311 42.391L102.269 35.1575C100.484 34.6967 99.4054 32.8688 99.8658 31.0833L107.1 3.0416C107.56 1.25607 109.388 0.178944 111.174 0.638495L139.215 7.87203C141.001 8.33309 142.079 10.1607 141.619 11.9462L134.385 39.9879C133.996 41.4946 132.634 42.4973 131.145 42.4973ZM131.067 39.4596C131.236 39.5035 131.41 39.4012 131.453 39.2317L138.687 11.1903C138.73 11.0208 138.628 10.8473 138.458 10.8034L110.417 3.57017C110.248 3.52688 110.074 3.6286 110.03 3.79813L102.797 31.8395C102.753 32.009 102.856 32.1825 103.025 32.2261L131.067 39.4596Z" fill="#006BCD"/>
<path d="M135.268 10.2607L137.593 14.2021L106.898 32.3126L104.573 28.3712L135.268 10.2607Z" fill="white"/>
<path d="M143.953 77.0963V107.249H11.0469L25.015 46.7865C26.6014 39.9205 32.7136 35.0586 39.7582 35.0586H65.2636C66.9347 35.0586 68.2909 36.4148 68.2909 38.0859V74.0689H140.926C142.597 74.0689 143.953 75.4222 143.953 77.0963Z" fill="white"/>
<path d="M47.3706 66.6973H50.8321V104.221H47.3706V66.6973Z" fill="#006BCD"/>
<path d="M56.8293 66.6973H60.2908V104.221H56.8293V66.6973Z" fill="#006BCD"/>
<path d="M25.8162 44.3169C25.4832 45.1055 25.2122 45.9296 25.0151 46.7863L19.7173 69.7245H47.805C49.477 69.7245 50.8323 68.3692 50.8323 66.6972V47.3442C50.8323 45.6722 49.477 44.3169 47.805 44.3169H25.8162Z" fill="#006BCD"/>
<path d="M68.2909 44.3162V69.7247H59.8567C58.1826 69.7247 56.8293 68.3684 56.8293 66.6973V47.3435C56.8293 45.6724 58.1826 44.3162 59.8567 44.3162H68.2909Z" fill="#006BCD"/>
<path d="M143.953 91.9331V107.248H11.0469L14.5858 91.9331H143.953Z" fill="white"/>
<path d="M139.371 89.7617H143.954V79.4485H139.371C136.524 79.4485 134.215 81.7571 134.215 84.6053C134.215 87.4528 136.523 89.7617 139.371 89.7617Z" fill="#006BCD"/>
<path d="M143.953 116.071H11.0466C9.37463 116.071 8.01929 114.716 8.01929 113.044V107.249C8.01929 105.577 9.37463 104.222 11.0466 104.222H143.953C145.625 104.222 146.981 105.577 146.981 107.249V113.044C146.981 114.715 145.625 116.071 143.953 116.071Z" fill="white"/>
<path d="M32.4163 124.664C39.0863 124.664 44.4933 119.257 44.4933 112.587C44.4933 105.918 39.0863 100.51 32.4163 100.51C25.7464 100.51 20.3394 105.918 20.3394 112.587C20.3394 119.257 25.7464 124.664 32.4163 124.664Z" fill="#006BCD"/>
<path d="M32.4165 118.057C35.437 118.057 37.8857 115.608 37.8857 112.587C37.8857 109.567 35.437 107.118 32.4165 107.118C29.3959 107.118 26.9473 109.567 26.9473 112.587C26.9473 115.608 29.3959 118.057 32.4165 118.057Z" fill="white"/>
<path d="M126.972 124.664C133.642 124.664 139.049 119.257 139.049 112.587C139.049 105.918 133.642 100.51 126.972 100.51C120.302 100.51 114.895 105.918 114.895 112.587C114.895 119.257 120.302 124.664 126.972 124.664Z" fill="#006BCD"/>
<path d="M126.972 118.057C129.993 118.057 132.442 115.608 132.442 112.587C132.442 109.567 129.993 107.118 126.972 107.118C123.952 107.118 121.503 109.567 121.503 112.587C121.503 115.608 123.952 118.057 126.972 118.057Z" fill="white"/>
<path d="M138.142 97.9652C137.121 97.9652 136.292 97.1373 136.292 96.1155V96.0729C136.292 95.0511 137.121 94.2231 138.142 94.2231C139.163 94.2231 139.992 95.0511 139.992 96.0729V96.1155C139.992 97.1373 139.163 97.9652 138.142 97.9652Z" fill="#006BCD"/>
<path d="M87.4324 40.7393C86.5965 40.7393 85.9187 40.0618 85.9187 39.2257C85.9187 33.1346 89.8155 27.8029 95.6156 25.958C96.4118 25.7055 97.2634 26.1448 97.5167 26.9416C97.7701 27.7384 97.3297 28.5894 96.5332 28.8428C91.9952 30.2865 88.946 34.4588 88.946 39.2257C88.946 40.0615 88.2682 40.7393 87.4324 40.7393Z" fill="#006BCD"/>
<path d="M80.7461 40.7392C79.9102 40.7392 79.2324 40.0617 79.2324 39.2256C79.2324 30.5807 84.7628 23.0135 92.9941 20.3955C93.7906 20.143 94.6419 20.5826 94.8953 21.3791C95.1487 22.1759 94.7082 23.0269 93.9117 23.2802C86.9422 25.4972 82.2595 31.9048 82.2595 39.2256C82.2598 40.0614 81.5819 40.7392 80.7461 40.7392Z" fill="#006BCD"/>
<path d="M26.5942 90.3425H143.954V93.3699H26.5942V90.3425Z" fill="#006BCD"/>
<path d="M13.9602 83.3757H20.5616C24.0885 83.3757 26.9475 86.2348 26.9475 89.7616C26.9475 93.2885 24.0885 96.1475 20.5616 96.1475H13.9602V83.3757Z" fill="white"/>
<path d="M13.9602 96.1475C16.5865 96.1475 18.7155 93.2884 18.7155 89.7616C18.7155 86.2348 16.5865 83.3757 13.9602 83.3757C11.3339 83.3757 9.20483 86.2348 9.20483 89.7616C9.20483 93.2884 11.3339 96.1475 13.9602 96.1475Z" fill="white"/>
<path d="M143.954 102.708H136.292C136.292 102.708 136.291 102.708 136.29 102.708C133.855 100.41 130.577 98.9968 126.972 98.9968C123.368 98.9968 120.089 100.41 117.654 102.708H41.7387C41.7375 102.708 41.7363 102.708 41.7351 102.708C39.2999 100.41 36.0212 98.9968 32.4166 98.9968C28.8122 98.9968 25.5336 100.41 23.0984 102.708H13.6492L14.815 97.6611H20.5612C24.917 97.6611 28.4608 94.1173 28.4608 89.7613C28.4608 85.4055 24.917 81.8617 20.5612 81.8617H18.4648L26.4891 47.1257C27.9246 40.9118 33.3814 36.5718 39.7591 36.5718H65.2624C66.097 36.5718 66.776 37.2508 66.776 38.0854V74.0672C66.776 74.9034 67.4538 75.5809 68.2897 75.5809H140.926C141.761 75.5809 142.44 76.26 142.44 77.0946V95.5792C142.44 96.4154 143.118 97.0929 143.954 97.0929C144.789 97.0929 145.467 96.4154 145.467 95.5792V77.0946C145.467 74.5907 143.43 72.5536 140.926 72.5536H135.017V48.4163C135.017 46.5717 133.516 45.0713 131.672 45.0713H102.713C100.868 45.0713 99.3681 46.5717 99.3681 48.4163V72.5536H77.4314V48.416C77.4314 48.241 77.5737 48.0987 77.7486 48.0987H92.4615C93.2974 48.0987 93.9752 47.4212 93.9752 46.585C93.9752 45.7489 93.2974 45.0713 92.4615 45.0713H77.7486C75.9044 45.0713 74.404 46.5717 74.404 48.416V72.5536H69.804V38.0854C69.804 35.5815 67.7669 33.5444 65.263 33.5444H39.7597C31.9646 33.5444 25.2948 38.8489 23.5401 46.4445L15.3578 81.8617H13.9598C10.5029 81.8617 7.69076 85.4055 7.69076 89.7613C7.69076 93.1698 9.41271 96.0806 11.8179 97.1859L10.5353 102.739C8.27171 102.994 6.50586 104.918 6.50586 107.249V113.044C6.50586 115.548 8.54296 117.585 11.0469 117.585H19.782C21.7776 122.612 26.687 126.178 32.4166 126.178C38.1461 126.178 43.0559 122.613 45.0515 117.585H114.338C116.333 122.612 121.243 126.178 126.973 126.178C132.702 126.178 137.612 122.613 139.607 117.585H143.954C146.458 117.585 148.495 115.548 148.495 113.044V107.249C148.495 104.745 146.458 102.708 143.954 102.708ZM102.395 48.4163C102.395 48.2413 102.537 48.0987 102.712 48.0987H131.672C131.847 48.0987 131.989 48.2413 131.989 48.4163V72.5536H102.395V48.4163H102.395ZM18.8892 84.8891H20.5615C23.248 84.8891 25.4337 87.0748 25.4337 89.7616C25.4337 92.4481 23.248 94.6338 20.5615 94.6338H18.8892C19.7275 93.2903 20.2291 91.5989 20.2291 89.7613C20.2291 87.924 19.7272 86.2326 18.8892 84.8891ZM13.9601 84.8891C15.7172 84.8891 17.2018 87.1202 17.2018 89.7613C17.2018 92.4026 15.7172 94.6338 13.9601 94.6338C12.2027 94.6338 10.7184 92.4026 10.7184 89.7613C10.7181 87.1205 12.2027 84.8891 13.9601 84.8891ZM18.8259 112.588C18.8259 113.257 18.8765 113.914 18.9703 114.557H11.0466C10.2119 114.557 9.5329 113.878 9.5329 113.044V107.249C9.5329 106.414 10.2119 105.735 11.0466 105.735H20.6868C19.5062 107.749 18.8259 110.09 18.8259 112.588ZM32.4166 123.151C26.592 123.151 21.8533 118.412 21.8533 112.587C21.8533 106.763 26.592 102.024 32.4166 102.024C38.2412 102.024 42.9799 106.763 42.9799 112.587C42.9799 118.412 38.2412 123.151 32.4166 123.151ZM113.382 112.588C113.382 113.257 113.432 113.914 113.526 114.557H45.8625C45.9564 113.914 46.0069 113.257 46.0069 112.588C46.0069 110.09 45.3264 107.749 44.1457 105.735H115.243C114.062 107.749 113.382 110.09 113.382 112.588ZM126.972 123.151C121.148 123.151 116.409 118.412 116.409 112.587C116.409 106.763 121.148 102.024 126.972 102.024C132.797 102.024 137.536 106.763 137.536 112.587C137.536 118.412 132.797 123.151 126.972 123.151ZM145.467 113.043C145.467 113.878 144.788 114.557 143.954 114.557H140.419C140.512 113.914 140.563 113.257 140.563 112.587C140.563 110.09 139.883 107.749 138.702 105.735H143.954C144.788 105.735 145.467 106.414 145.467 107.249V113.043Z" fill="#006BCD"/>
<path d="M35.2747 74.6289C35.2747 73.6459 36.0715 72.8491 37.0544 72.8491H41.5955C42.5784 72.8491 43.3752 73.6459 43.3752 74.6289C43.3752 75.6119 42.5784 76.4087 41.5955 76.4087H37.0544C36.0715 76.4087 35.2747 75.6119 35.2747 74.6289Z" fill="#006BCD"/>
<path d="M128.102 96.0942H115.528C114.692 96.0942 114.014 95.4164 114.014 94.5805V89.1316C114.014 88.2957 114.692 87.6179 115.528 87.6179H128.102C128.938 87.6179 129.616 88.2957 129.616 89.1316V94.5805C129.616 95.4167 128.938 96.0942 128.102 96.0942Z" fill="#006BCD"/>
<path d="M143.953 34.9188C142.829 34.9188 141.705 34.4911 140.849 33.6352C139.138 31.9239 139.138 29.139 140.849 27.4277C142.561 25.7157 145.346 25.716 147.057 27.4277C148.769 29.139 148.769 31.9239 147.057 33.6352C146.202 34.4911 145.078 34.9188 143.953 34.9188ZM143.954 29.1699C143.605 29.1699 143.256 29.3025 142.99 29.568C142.459 30.0993 142.459 30.9633 142.99 31.4946C143.521 32.0256 144.386 32.0256 144.917 31.4946C145.448 30.9633 145.448 30.0993 144.917 29.568C144.651 29.3025 144.302 29.1699 143.954 29.1699Z" fill="#006BCD"/>
<path d="M69.6531 134.804C68.529 134.804 67.405 134.376 66.5491 133.52C64.8375 131.809 64.8375 129.024 66.5491 127.312C68.2605 125.6 71.0453 125.601 72.757 127.312C74.4687 129.024 74.4687 131.809 72.757 133.52C71.9012 134.376 70.7771 134.804 69.6531 134.804ZM69.6531 129.055C69.304 129.055 68.9553 129.188 68.6898 129.453C68.1585 129.984 68.1585 130.848 68.6898 131.38C69.2205 131.91 70.0851 131.911 70.6164 131.38C71.1477 130.848 71.1477 129.984 70.6164 129.453C70.3509 129.188 70.0018 129.055 69.6531 129.055Z" fill="#006BCD"/>
<path d="M31.9404 29.9078C30.7679 29.9078 29.6653 29.451 28.8365 28.6218C27.1251 26.9104 27.1251 24.1256 28.8368 22.4142C30.5481 20.7023 33.3333 20.7026 35.0446 22.4142C36.756 24.1256 36.756 26.9104 35.0446 28.6218C34.2154 29.451 33.1132 29.9078 31.9404 29.9078ZM31.9407 24.1565C31.5916 24.1565 31.2429 24.2891 30.9774 24.5546C30.4464 25.0859 30.4464 25.9499 30.9774 26.4812C31.2347 26.7388 31.5768 26.8802 31.9407 26.8802C32.3046 26.8802 32.6467 26.7385 32.904 26.4812C33.4353 25.9499 33.4353 25.0859 32.904 24.5546C32.6385 24.2894 32.2894 24.1565 31.9407 24.1565Z" fill="#006BCD"/>
<path d="M59.7065 129.054C59.319 129.054 58.9318 128.906 58.636 128.611L56.8305 126.805L55.025 128.611C54.4337 129.202 53.4756 129.202 52.8843 128.611C52.2931 128.02 52.2931 127.061 52.8843 126.47L55.7603 123.594C56.3516 123.003 57.3097 123.003 57.901 123.594L60.7769 126.47C61.3682 127.061 61.3682 128.02 60.7769 128.611C60.4812 128.906 60.094 129.054 59.7065 129.054Z" fill="#006BCD"/>
<path d="M96.1427 13.4384C95.7552 13.4384 95.368 13.2907 95.0723 12.9949L93.2668 11.1894L91.4613 12.9949C90.87 13.5861 89.9119 13.5861 89.3206 12.9949C88.7294 12.404 88.7294 11.4455 89.3206 10.8546L92.1966 7.97859C92.7878 7.38735 93.746 7.38735 94.3372 7.97859L97.2132 10.8546C97.8044 11.4455 97.8044 12.404 97.2132 12.9949C96.9174 13.2907 96.5302 13.4384 96.1427 13.4384Z" fill="#006BCD"/>
<defs>
<linearGradient id="paint0_linear" x1="176.52" y1="-4.98947" x2="26.7356" y2="219.964" gradientUnits="userSpaceOnUse">
<stop stop-color="#006BCD"/>
<stop offset="1" stop-color="#B7C5FF"/>
</linearGradient>
</defs>
</svg>
