<svg width="151" height="128" viewBox="0 0 151 128" fill="none" xmlns="http://www.w3.org/2000/svg">
<path d="M108.433 4.99039C88.1633 -3.2074 59.9346 -0.502121 44.192 13.5449C33.0764 23.4631 41.5584 26.4227 48.8497 44.8857C54.1267 58.2485 0.343591 55.8053 0.0700266 79.8397C-0.246282 107.626 38.7823 102.802 53.207 106.147C75.2613 111.262 94.3427 129.673 117.993 127.544C138.582 125.69 146.606 109.641 149.677 91.1729C155.397 56.766 142.741 18.8661 108.433 4.99039Z" fill="url(#paint0_linear)"/>
<path opacity="0.1" d="M140.243 105.65V31.7019C140.243 30.0738 138.923 28.754 137.295 28.754H71.728C69.63 28.754 67.69 29.8689 66.6338 31.6819L62.7768 38.302H38.7827C31.923 38.302 25.9712 43.0363 24.4265 49.7221L11.5059 105.65H10.8246C9.19648 105.65 7.87671 106.97 7.87671 108.598V114.241C7.87671 115.869 9.19648 117.188 10.8246 117.188H20.3722C21.8285 122.029 26.3181 125.557 31.6335 125.557C36.9488 125.557 41.4385 122.029 42.8947 117.188H112.447C113.903 122.029 118.393 125.557 123.708 125.557C129.023 125.557 133.513 122.029 134.969 117.188H140.244C141.872 117.188 143.191 115.869 143.191 114.241V108.598C143.191 106.97 141.871 105.65 140.243 105.65Z" fill="#006BCD"/>
<path d="M66.6337 24.3125L62.7767 30.9326H38.7826C31.9229 30.9326 25.9711 35.6669 24.4264 42.3527L10.8248 101.228H140.243V24.3325C140.243 22.7044 138.923 21.3846 137.295 21.3846H71.728C69.63 21.3846 67.69 22.4995 66.6337 24.3125Z" fill="white"/>
<path d="M20.926 76.3375H16.575L14.6992 84.4572H20.926C23.1682 84.4572 24.9859 82.6395 24.9859 80.3974C24.9856 78.1552 23.1682 76.3375 20.926 76.3375Z" fill="#006BCD"/>
<path d="M62.7766 30.9325H71.4888C72.4492 30.9325 73.2281 30.154 73.2281 29.1932C73.2281 28.2328 72.4495 27.454 71.4888 27.454H64.8033L62.7766 30.9325Z" fill="#006BCD"/>
<path d="M140.243 58.1593H137.192C135.563 58.1593 134.244 56.8396 134.244 55.2114V34.2124C134.244 32.5843 135.563 31.2645 137.192 31.2645H140.243V58.1593Z" fill="#006BCD"/>
<path d="M134.244 50.9109V55.2118C134.244 56.84 135.563 58.1597 137.192 58.1597H140.243V50.9109H134.244Z" fill="#006BCD"/>
<path d="M90.2734 74.6994H140.243V62.582H98.8412L90.2734 74.6994Z" fill="#006BCD"/>
<path d="M94.2475 62.5812L85.6809 74.7H77.0259L85.5925 62.5812H94.2475Z" fill="#006BCD"/>
<path d="M81.1423 62.5812L72.5758 74.7H66.8687L75.4352 62.5812H81.1423Z" fill="#006BCD"/>
<path d="M53.5652 61.741H56.9358V98.2804H53.5652V61.741Z" fill="#006BCD"/>
<path d="M25.2064 39.9481C24.8821 40.716 24.6183 41.5185 24.4264 42.3527L19.2676 64.6889H53.9878C55.616 64.6889 56.9357 63.3691 56.9357 61.741V42.896C56.9357 41.2679 55.616 39.9481 53.9878 39.9481H25.2064Z" fill="#006BCD"/>
<path d="M140.243 86.3146V101.228H10.8248L14.2709 86.3146H140.243Z" fill="white"/>
<path d="M53.5664 86.3146H56.9358V98.2801H53.5664V86.3146Z" fill="#006BCD"/>
<path d="M140.243 109.819H10.8246C9.19648 109.819 7.87671 108.499 7.87671 106.871V101.228C7.87671 99.6002 9.19648 98.2804 10.8246 98.2804H140.243C141.871 98.2804 143.191 99.6002 143.191 101.228V106.871C143.191 108.499 141.871 109.819 140.243 109.819Z" fill="white"/>
<path d="M31.6334 118.187C38.1283 118.187 43.3935 112.922 43.3935 106.427C43.3935 99.9319 38.1283 94.6667 31.6334 94.6667C25.1386 94.6667 19.8734 99.9319 19.8734 106.427C19.8734 112.922 25.1386 118.187 31.6334 118.187Z" fill="#006BCD"/>
<path d="M31.6335 111.752C34.5748 111.752 36.9592 109.368 36.9592 106.427C36.9592 103.485 34.5748 101.101 31.6335 101.101C28.6922 101.101 26.3079 103.485 26.3079 106.427C26.3079 109.368 28.6922 111.752 31.6335 111.752Z" fill="white"/>
<path d="M123.708 118.187C130.203 118.187 135.468 112.922 135.468 106.427C135.468 99.9319 130.203 94.6667 123.708 94.6667C117.213 94.6667 111.948 99.9319 111.948 106.427C111.948 112.922 117.213 118.187 123.708 118.187Z" fill="#006BCD"/>
<path d="M141.717 97.0643V70.8915C141.717 70.0773 141.057 69.4175 140.243 69.4175C139.429 69.4175 138.769 70.0773 138.769 70.8915V96.8064H132.782C130.41 94.5686 127.218 93.1926 123.708 93.1926C120.198 93.1926 117.006 94.5686 114.634 96.8064H40.707C38.3358 94.5686 35.1432 93.1926 31.6334 93.1926C28.1237 93.1926 24.9311 94.5686 22.5598 96.8064H13.3589L25.8623 42.6843C27.2605 36.6326 32.5735 32.4062 38.7827 32.4062H62.7767C63.3012 32.4062 63.7861 32.1276 64.0502 31.6742L67.9072 25.0544C68.6964 23.6999 70.1606 22.8585 71.728 22.8585H137.295C138.108 22.8585 138.769 23.5197 138.769 24.3325V62.2683C138.769 63.0825 139.429 63.7423 140.243 63.7423C141.057 63.7423 141.717 63.0825 141.717 62.2683V24.3325C141.717 21.8943 139.734 19.9106 137.295 19.9106H71.728C69.1156 19.9106 66.6753 21.313 65.36 23.5705L61.9295 29.4586H38.7827C31.1933 29.4586 24.6994 34.6242 22.9902 42.021L10.3266 96.8365C8.12222 97.085 6.40271 98.9584 6.40271 101.228V106.871C6.40271 109.309 8.38635 111.293 10.8245 111.293H19.3304C21.2736 116.188 26.0542 119.661 31.6337 119.661C38.9309 119.661 44.8677 113.724 44.8677 106.427C44.8677 103.995 44.205 101.715 43.0553 99.7543H112.287C111.137 101.715 110.474 103.994 110.474 106.427C110.474 107.078 110.523 107.718 110.615 108.345H51.415C50.6011 108.345 49.941 109.004 49.941 109.819C49.941 110.633 50.6011 111.293 51.415 111.293H111.405C113.348 116.188 118.128 119.661 123.708 119.661C129.287 119.661 134.068 116.188 136.011 111.293H140.243C142.682 111.293 144.665 109.309 144.665 106.871V101.228C144.665 99.3074 143.432 97.6734 141.717 97.0643ZM10.8245 108.345C10.0118 108.345 9.3506 107.684 9.3506 106.871V101.228C9.3506 100.415 10.0118 99.7543 10.8245 99.7543H20.2118C19.0621 101.715 18.3995 103.994 18.3995 106.427C18.3995 107.078 18.4487 107.718 18.5401 108.345H10.8245ZM31.6337 116.713C25.962 116.713 21.3476 112.099 21.3476 106.427C21.3476 100.755 25.962 96.1408 31.6337 96.1408C37.3055 96.1408 41.9198 100.755 41.9198 106.427C41.9198 112.099 37.3055 116.713 31.6337 116.713ZM123.708 116.713C118.036 116.713 113.422 112.099 113.422 106.427C113.422 100.755 118.036 96.1408 123.708 96.1408C129.38 96.1408 133.994 100.755 133.994 106.427C133.994 112.099 129.38 116.713 123.708 116.713ZM141.717 106.871C141.717 107.684 141.056 108.345 140.243 108.345H136.801C136.893 107.718 136.942 107.078 136.942 106.427C136.942 103.995 136.279 101.715 135.13 99.7543H140.243C141.056 99.7543 141.717 100.415 141.717 101.228V106.871H141.717Z" fill="#006BCD"/>
<path d="M123.708 111.752C126.649 111.752 129.033 109.368 129.033 106.427C129.033 103.485 126.649 101.101 123.708 101.101C120.766 101.101 118.382 103.485 118.382 106.427C118.382 109.368 120.766 111.752 123.708 111.752Z" fill="white"/>
<path d="M44.3562 69.4644C44.3562 68.5072 45.1321 67.7313 46.0893 67.7313H49.0372C49.9943 67.7313 50.7702 68.5072 50.7702 69.4644C50.7702 70.4216 49.9943 71.1975 49.0372 71.1975H46.0893C45.1321 71.1972 44.3562 70.4213 44.3562 69.4644Z" fill="#006BCD"/>
<path d="M119.63 33.5007C119.63 33.7489 119.674 33.9969 119.756 34.2342H96.4836C95.2487 34.2342 94.2473 35.2353 94.2473 36.4704C94.2473 37.7056 95.2487 38.7067 96.4836 38.7067H119.756C119.484 39.4905 119.659 40.3953 120.285 41.0208C121.158 41.8943 122.574 41.8943 123.448 41.0208L126.415 38.0532C127.281 37.2204 127.281 35.7211 126.415 34.888L123.448 31.9201C122.574 31.0466 121.159 31.0466 120.285 31.9195C119.849 32.3558 119.63 32.9285 119.63 33.5007Z" fill="#006BCD"/>
<path d="M101.556 45.2238H124.829C126.064 45.2238 127.065 46.2249 127.065 47.4601C127.065 48.6953 126.064 49.6964 124.829 49.6964H101.556C101.639 49.9334 101.682 50.181 101.682 50.4292C101.682 51.0014 101.464 51.5739 101.027 52.0102C100.154 52.8836 98.7378 52.8836 97.8646 52.0102L94.8973 49.0428C94.0312 48.21 94.0309 46.7104 94.897 45.8774L97.8646 42.9097C98.7378 42.0363 100.154 42.0363 101.027 42.9097C101.653 43.5356 101.828 44.44 101.556 45.2238Z" fill="#006BCD"/>
<path d="M85.4689 56.4889H70.9532C70.1393 56.4889 69.4792 55.8288 69.4792 55.0149V35.5173C69.4792 34.7034 70.1393 34.0433 70.9532 34.0433H85.4689C86.2828 34.0433 86.9428 34.7034 86.9428 35.5173V55.0149C86.9428 55.8288 86.2831 56.4889 85.4689 56.4889Z" fill="#006BCD"/>
<path d="M89.5115 41.2708H75.1898C74.3759 41.2708 73.7158 40.6107 73.7158 39.7968C73.7158 38.9829 74.3759 38.3229 75.1898 38.3229H89.5115C90.3254 38.3229 90.9854 38.9829 90.9854 39.7968C90.9854 40.6107 90.3254 41.2708 89.5115 41.2708Z" fill="#006BCD"/>
<path d="M80.6678 47.2615H75.1898C74.3759 47.2615 73.7158 46.6015 73.7158 45.7875C73.7158 44.9736 74.3759 44.3136 75.1898 44.3136H80.6678C81.4817 44.3136 82.1418 44.9736 82.1418 45.7875C82.1418 46.6015 81.4817 47.2615 80.6678 47.2615Z" fill="#006BCD"/>
<path d="M80.6678 52.3676H75.1898C74.3759 52.3676 73.7158 51.7075 73.7158 50.8936C73.7158 50.0797 74.3759 49.4197 75.1898 49.4197H80.6678C81.4817 49.4197 82.1418 50.0797 82.1418 50.8936C82.1418 51.7078 81.4817 52.3676 80.6678 52.3676Z" fill="#006BCD"/>
<path d="M55.0401 25.4034C53.9456 25.4034 52.851 24.9868 52.0177 24.1535C50.3512 22.487 50.3512 19.7752 52.0177 18.1088C53.6841 16.4418 56.3962 16.4421 58.0626 18.1088C59.729 19.7752 59.729 22.487 58.0626 24.1535C57.2295 24.9868 56.1347 25.4034 55.0401 25.4034ZM55.0401 19.8053C54.7002 19.8053 54.3606 19.9344 54.1021 20.193C53.5851 20.7103 53.5851 21.5516 54.1021 22.069C54.6189 22.5861 55.4608 22.5861 55.9781 22.069C56.4952 21.5516 56.4952 20.7103 55.9781 20.193C55.7196 19.9344 55.38 19.8053 55.0401 19.8053Z" fill="#006BCD"/>
<path d="M79.9734 123.933C78.8788 123.933 77.7843 123.517 76.9512 122.683C75.2845 121.017 75.2845 118.305 76.9512 116.638C78.6174 114.971 81.3297 114.972 82.9959 116.638C84.6626 118.305 84.6626 121.017 82.9959 122.683C82.1628 123.517 81.0682 123.933 79.9734 123.933ZM79.9734 118.335C79.6341 118.335 79.2942 118.464 79.0354 118.723C78.5183 119.24 78.5183 120.081 79.0354 120.599C79.553 121.116 80.3938 121.116 80.9114 120.599C81.4285 120.081 81.4285 119.24 80.9114 118.723C80.6529 118.464 80.3133 118.335 79.9734 118.335Z" fill="#006BCD"/>
<path d="M101.075 127.03C100.698 127.03 100.321 126.887 100.033 126.599L98.2744 124.84L96.516 126.599C95.9408 127.174 95.0069 127.174 94.4318 126.599C93.8561 126.023 93.8561 125.09 94.4318 124.514L97.2323 121.714C97.8074 121.138 98.7413 121.138 99.3165 121.714L102.117 124.514C102.693 125.09 102.693 126.023 102.117 126.599C101.829 126.887 101.452 127.03 101.075 127.03Z" fill="#006BCD"/>
<path d="M132.666 14.6925C132.289 14.6925 131.911 14.5487 131.624 14.2607L129.865 12.5025L128.107 14.2607C127.532 14.8364 126.598 14.8364 126.023 14.2607C125.447 13.6852 125.447 12.7519 126.023 12.1765L128.823 9.37601C129.398 8.80028 130.332 8.80028 130.908 9.37601L133.708 12.1765C134.284 12.7519 134.284 13.6852 133.708 14.2607C133.42 14.5487 133.043 14.6925 132.666 14.6925Z" fill="#006BCD"/>
<path d="M46.9819 18.1098C46.6045 18.1098 46.2275 17.9659 45.9395 17.6779L44.1814 15.9198L42.4232 17.6779C41.8475 18.2536 40.9145 18.2536 40.3388 17.6779C39.7631 17.1025 39.7631 16.1692 40.3388 15.5937L43.1393 12.7932C43.715 12.2175 44.648 12.2175 45.2237 12.7932L48.0242 15.5937C48.5999 16.1692 48.5999 17.1025 48.0242 17.6779C47.7365 17.9656 47.3592 18.1098 46.9819 18.1098Z" fill="#006BCD"/>
<path d="M14.2709 84.8406H139.599V87.7885H14.2709V84.8406Z" fill="#006BCD"/>
<defs>
<linearGradient id="paint0_linear" x1="171.955" y1="-10.3568" x2="25.6228" y2="208.892" gradientUnits="userSpaceOnUse">
<stop stop-color="#006BCD"/>
<stop offset="1" stop-color="#B7C5FF"/>
</linearGradient>
</defs>
</svg>
